{
copyright = "This work is licensed under the Creative Commons Attribution 3.0 Unported License. To view a copy of this license, visit http://creativecommons.org/licenses/by/3.0/.";
date = "2013-06-18 01:35:54 +0000";
designer = "Ali Mihandoost";
designerURL = "http://ali.md/";
familyName = "Encrypted Persian";
fontMaster = (
{
ascender = 1000;
capHeight = 700;
customParameters = (
{
name = "typoAscender";
value = "1000";
},
{
name = "typoDescender";
value = "0";
},
{
name = "typoLineGap";
value = "90";
}
);
descender = "-800";
id = "3D323242-F336-407C-B164-DE86AA499667";
weightValue = 500;
widthValue = 5;
xHeight = 500;
}
);
glyphs = (
{
glyphname = "ain-ar";
lastChange = "2013-06-18 10:59:11 +0330";
layers = (
{
layerId = "3D323242-F336-407C-B164-DE86AA499667";
name = "Regular";
paths = (
{
closed = 1;
nodes = (
"40 245 OFFCURVE",
"140 370 OFFCURVE",
"277 370 CURVE SMOOTH",
"380 370 OFFCURVE",
"455 278 OFFCURVE",
"455 174 CURVE SMOOTH",
"455 80 OFFCURVE",
"395 2 OFFCURVE",
"315 2 CURVE SMOOTH",
"313 2 LINE SMOOTH",
"257 2 OFFCURVE",
"208 53 OFFCURVE",
"208 135 CURVE SMOOTH",
"208 151 OFFCURVE",
"224 167 OFFCURVE",
"243 167 CURVE SMOOTH",
"259 167 OFFCURVE",
"274 151 OFFCURVE",
"274 135 CURVE SMOOTH",
"274 112 OFFCURVE",
"280 93 OFFCURVE",
"292 79 CURVE SMOOTH",
"298 72 OFFCURVE",
"304 68 OFFCURVE",
"313 68 CURVE SMOOTH",
"357 68 OFFCURVE",
"389 115 OFFCURVE",
"389 174 CURVE SMOOTH",
"389 245 OFFCURVE",
"340 304 OFFCURVE",
"277 304 CURVE SMOOTH",
"182 304 OFFCURVE",
"106 213 OFFCURVE",
"106 106 CURVE SMOOTH",
"106 49 OFFCURVE",
"115 3 OFFCURVE",
"142 -46 CURVE SMOOTH",
"171 -93 OFFCURVE",
"183 -116 OFFCURVE",
"236 -166 CURVE SMOOTH",
"262 -191 OFFCURVE",
"283 -208 OFFCURVE",
"296 -218 CURVE",
"309 -228 OFFCURVE",
"332 -249 OFFCURVE",
"367 -278 CURVE SMOOTH",
"376 -285 OFFCURVE",
"379 -294 OFFCURVE",
"379 -303 CURVE SMOOTH",
"379 -321 OFFCURVE",
"366 -337 OFFCURVE",
"345 -337 CURVE SMOOTH",
"336 -337 OFFCURVE",
"329 -334 OFFCURVE",
"324 -329 CURVE",
"309 -315 OFFCURVE",
"292 -302 OFFCURVE",
"277 -290 CURVE SMOOTH",
"246 -265 OFFCURVE",
"215 -237 OFFCURVE",
"189 -211 CURVE SMOOTH",
"160 -184 OFFCURVE",
"134 -153 OFFCURVE",
"113 -122 CURVE SMOOTH",
"91 -92 OFFCURVE",
"73 -56 OFFCURVE",
"61 -19 CURVE SMOOTH",
"49 17 OFFCURVE",
"40 60 OFFCURVE",
"40 106 CURVE SMOOTH"
);
}
);
width = 495;
}
);
unicode = 0639;
},
{
glyphname = "alef-ar";
lastChange = "2013-06-18 10:59:26 +0330";
layers = (
{
layerId = "3D323242-F336-407C-B164-DE86AA499667";
name = "Regular";
paths = (
{
closed = 1;
nodes = (
"105 834 LINE SMOOTH",
"105 847 OFFCURVE",
"117 859 OFFCURVE",
"130 859 CURVE SMOOTH",
"143 859 OFFCURVE",
"155 847 OFFCURVE",
"155 834 CURVE SMOOTH",
"155 696 LINE",
"204 653 OFFCURVE",
"224 628 OFFCURVE",
"224 581 CURVE SMOOTH",
"224 530 OFFCURVE",
"205 504 OFFCURVE",
"153 452 CURVE",
"153 -1 LINE SMOOTH",
"153 -14 OFFCURVE",
"141 -26 OFFCURVE",
"128 -26 CURVE SMOOTH",
"115 -26 OFFCURVE",
"103 -14 OFFCURVE",
"103 -1 CURVE SMOOTH",
"103 455 LINE",
"72 490 OFFCURVE",
"61 503 OFFCURVE",
"49 533 CURVE SMOOTH",
"43 548 OFFCURVE",
"40 564 OFFCURVE",
"40 581 CURVE SMOOTH",
"40 628 OFFCURVE",
"60 658 OFFCURVE",
"105 699 CURVE"
);
},
{
closed = 1;
nodes = (
"167 516 OFFCURVE",
"184 541 OFFCURVE",
"184 581 CURVE SMOOTH",
"184 618 OFFCURVE",
"169 639 OFFCURVE",
"129 674 CURVE",
"96 644 OFFCURVE",
"80 613 OFFCURVE",
"80 581 CURVE SMOOTH",
"80 542 OFFCURVE",
"94 518 OFFCURVE",
"130 478 CURVE"
);
}
);
width = 264;
}
);
unicode = 0627;
},
{
glyphname = "alefHamzaabove-ar";
lastChange = "2013-06-18 10:59:41 +0330";
layers = (
{
layerId = "3D323242-F336-407C-B164-DE86AA499667";
name = "Regular";
paths = (
{
closed = 1;
nodes = (
"105 834 LINE SMOOTH",
"105 847 OFFCURVE",
"117 859 OFFCURVE",
"130 859 CURVE SMOOTH",
"143 859 OFFCURVE",
"155 847 OFFCURVE",
"155 834 CURVE SMOOTH",
"155 696 LINE",
"204 653 OFFCURVE",
"224 628 OFFCURVE",
"224 581 CURVE SMOOTH",
"224 530 OFFCURVE",
"205 504 OFFCURVE",
"153 452 CURVE",
"153 -1 LINE SMOOTH",
"153 -14 OFFCURVE",
"141 -26 OFFCURVE",
"128 -26 CURVE SMOOTH",
"115 -26 OFFCURVE",
"103 -14 OFFCURVE",
"103 -1 CURVE SMOOTH",
"103 455 LINE",
"72 490 OFFCURVE",
"61 503 OFFCURVE",
"49 533 CURVE SMOOTH",
"43 548 OFFCURVE",
"40 564 OFFCURVE",
"40 581 CURVE SMOOTH",
"40 628 OFFCURVE",
"60 658 OFFCURVE",
"105 699 CURVE"
);
},
{
closed = 1;
nodes = (
"167 516 OFFCURVE",
"184 541 OFFCURVE",
"184 581 CURVE SMOOTH",
"184 618 OFFCURVE",
"169 639 OFFCURVE",
"129 674 CURVE",
"96 644 OFFCURVE",
"80 613 OFFCURVE",
"80 581 CURVE SMOOTH",
"80 542 OFFCURVE",
"94 518 OFFCURVE",
"130 478 CURVE"
);
}
);
width = 264;
}
);
unicode = 0623;
},
{
glyphname = "alefHamzabelow-ar";
lastChange = "2013-06-18 10:59:47 +0330";
layers = (
{
layerId = "3D323242-F336-407C-B164-DE86AA499667";
name = "Regular";
paths = (
{
closed = 1;
nodes = (
"105 834 LINE SMOOTH",
"105 847 OFFCURVE",
"117 859 OFFCURVE",
"130 859 CURVE SMOOTH",
"143 859 OFFCURVE",
"155 847 OFFCURVE",
"155 834 CURVE SMOOTH",
"155 696 LINE",
"204 653 OFFCURVE",
"224 628 OFFCURVE",
"224 581 CURVE SMOOTH",
"224 530 OFFCURVE",
"205 504 OFFCURVE",
"153 452 CURVE",
"153 -1 LINE SMOOTH",
"153 -14 OFFCURVE",
"141 -26 OFFCURVE",
"128 -26 CURVE SMOOTH",
"115 -26 OFFCURVE",
"103 -14 OFFCURVE",
"103 -1 CURVE SMOOTH",
"103 455 LINE",
"72 490 OFFCURVE",
"61 503 OFFCURVE",
"49 533 CURVE SMOOTH",
"43 548 OFFCURVE",
"40 564 OFFCURVE",
"40 581 CURVE SMOOTH",
"40 628 OFFCURVE",
"60 658 OFFCURVE",
"105 699 CURVE"
);
},
{
closed = 1;
nodes = (
"167 516 OFFCURVE",
"184 541 OFFCURVE",
"184 581 CURVE SMOOTH",
"184 618 OFFCURVE",
"169 639 OFFCURVE",
"129 674 CURVE",
"96 644 OFFCURVE",
"80 613 OFFCURVE",
"80 581 CURVE SMOOTH",
"80 542 OFFCURVE",
"94 518 OFFCURVE",
"130 478 CURVE"
);
}
);
width = 264;
}
);
unicode = 0625;
},
{
glyphname = "alefMadda-ar";
lastChange = "2013-06-18 10:59:56 +0330";
layers = (
{
layerId = "3D323242-F336-407C-B164-DE86AA499667";
name = "Regular";
paths = (
{
closed = 1;
nodes = (
"105 834 LINE SMOOTH",
"105 847 OFFCURVE",
"117 859 OFFCURVE",
"130 859 CURVE SMOOTH",
"143 859 OFFCURVE",
"155 847 OFFCURVE",
"155 834 CURVE SMOOTH",
"155 696 LINE",
"204 653 OFFCURVE",
"224 628 OFFCURVE",
"224 581 CURVE SMOOTH",
"224 530 OFFCURVE",
"205 504 OFFCURVE",
"153 452 CURVE",
"153 -1 LINE SMOOTH",
"153 -14 OFFCURVE",
"141 -26 OFFCURVE",
"128 -26 CURVE SMOOTH",
"115 -26 OFFCURVE",
"103 -14 OFFCURVE",
"103 -1 CURVE SMOOTH",
"103 455 LINE",
"72 490 OFFCURVE",
"61 503 OFFCURVE",
"49 533 CURVE SMOOTH",
"43 548 OFFCURVE",
"40 564 OFFCURVE",
"40 581 CURVE SMOOTH",
"40 628 OFFCURVE",
"60 658 OFFCURVE",
"105 699 CURVE"
);
},
{
closed = 1;
nodes = (
"167 516 OFFCURVE",
"184 541 OFFCURVE",
"184 581 CURVE SMOOTH",
"184 618 OFFCURVE",
"169 639 OFFCURVE",
"129 674 CURVE",
"96 644 OFFCURVE",
"80 613 OFFCURVE",
"80 581 CURVE SMOOTH",
"80 542 OFFCURVE",
"94 518 OFFCURVE",
"130 478 CURVE"
);
}
);
width = 264;
}
);
unicode = 0622;
},
{
glyphname = "beh-ar";
lastChange = "2013-06-18 11:19:21 +0330";
layers = (
{
layerId = "3D323242-F336-407C-B164-DE86AA499667";
name = "Regular";
paths = (
{
closed = 1;
nodes = (
"89 198 LINE",
"161 78 OFFCURVE",
"299 8 OFFCURVE",
"462 8 CURVE SMOOTH",
"466 8 LINE SMOOTH",
"547 8 OFFCURVE",
"616 28 OFFCURVE",
"667 64 CURVE SMOOTH",
"719 100 OFFCURVE",
"756 139 OFFCURVE",
"796 198 CURVE"
);
},
{
closed = 1;
nodes = (
"831 235 LINE SMOOTH",
"838 235 OFFCURVE",
"844 231 OFFCURVE",
"846 225 CURVE",
"847 225 LINE",
"855 220 LINE",
"866 216 OFFCURVE",
"879 208 OFFCURVE",
"896 194 CURVE SMOOTH",
"912 178 OFFCURVE",
"926 162 OFFCURVE",
"936 135 CURVE SMOOTH",
"940 121 OFFCURVE",
"942 106 OFFCURVE",
"942 90 CURVE SMOOTH",
"942 88 LINE SMOOTH",
"941 39 OFFCURVE",
"908 15 OFFCURVE",
"880 15 CURVE SMOOTH",
"850 15 OFFCURVE",
"801 67 OFFCURVE",
"794 133 CURVE",
"711 30 OFFCURVE",
"615 -28 OFFCURVE",
"466 -29 CURVE SMOOTH",
"462 -29 LINE SMOOTH",
"276 -29 OFFCURVE",
"115 57 OFFCURVE",
"42 208 CURVE",
"41 212 OFFCURVE",
"40 215 OFFCURVE",
"40 217 CURVE SMOOTH",
"40 220 OFFCURVE",
"41 223 OFFCURVE",
"44 226 CURVE",
"46 232 OFFCURVE",
"52 235 OFFCURVE",
"58 235 CURVE SMOOTH"
);
},
{
closed = 1;
nodes = (
"835 189 LINE",
"824 173 LINE",
"825 168 OFFCURVE",
"826 162 OFFCURVE",
"827 154 CURVE",
"830 138 OFFCURVE",
"838 95 OFFCURVE",
"856 72 CURVE",
"865 60 OFFCURVE",
"875 55 OFFCURVE",
"886 55 CURVE SMOOTH",
"898 55 OFFCURVE",
"905 66 OFFCURVE",
"906 88 CURVE",
"906 90 LINE SMOOTH",
"906 124 OFFCURVE",
"888 154 OFFCURVE",
"870 168 CURVE",
"861 175 OFFCURVE",
"853 180 OFFCURVE",
"846 184 CURVE SMOOTH"
);
}
);
width = 982;
}
);
unicode = 0628;
},
{
glyphname = "beh-ar.fina";
lastChange = "2013-06-18 11:41:16 +0330";
layers = (
{
layerId = "3D323242-F336-407C-B164-DE86AA499667";
name = "Regular";
paths = (
{
closed = 1;
nodes = (
"89 198 LINE",
"161 78 OFFCURVE",
"299 8 OFFCURVE",
"462 8 CURVE SMOOTH",
"466 8 LINE SMOOTH",
"547 8 OFFCURVE",
"616 28 OFFCURVE",
"667 64 CURVE SMOOTH",
"719 100 OFFCURVE",
"756 139 OFFCURVE",
"796 198 CURVE"
);
},
{
closed = 1;
nodes = (
"831 235 LINE SMOOTH",
"838 235 OFFCURVE",
"844 231 OFFCURVE",
"846 225 CURVE",
"847 225 LINE",
"855 220 LINE",
"866 216 OFFCURVE",
"879 208 OFFCURVE",
"896 194 CURVE SMOOTH",
"912 178 OFFCURVE",
"926 162 OFFCURVE",
"936 135 CURVE SMOOTH",
"940 121 OFFCURVE",
"942 106 OFFCURVE",
"942 90 CURVE SMOOTH",
"942 88 LINE SMOOTH",
"941 39 OFFCURVE",
"908 15 OFFCURVE",
"880 15 CURVE SMOOTH",
"850 15 OFFCURVE",
"801 67 OFFCURVE",
"794 133 CURVE",
"711 30 OFFCURVE",
"615 -28 OFFCURVE",
"466 -29 CURVE SMOOTH",
"462 -29 LINE SMOOTH",
"276 -29 OFFCURVE",
"115 57 OFFCURVE",
"42 208 CURVE",
"41 212 OFFCURVE",
"40 215 OFFCURVE",
"40 217 CURVE SMOOTH",
"40 220 OFFCURVE",
"41 223 OFFCURVE",
"44 226 CURVE",
"46 232 OFFCURVE",
"52 235 OFFCURVE",
"58 235 CURVE SMOOTH"
);
},
{
closed = 1;
nodes = (
"835 189 LINE",
"824 173 LINE",
"825 168 OFFCURVE",
"826 162 OFFCURVE",
"827 154 CURVE",
"830 138 OFFCURVE",
"838 95 OFFCURVE",
"856 72 CURVE",
"865 60 OFFCURVE",
"875 55 OFFCURVE",
"886 55 CURVE SMOOTH",
"898 55 OFFCURVE",
"905 66 OFFCURVE",
"906 88 CURVE",
"906 90 LINE SMOOTH",
"906 124 OFFCURVE",
"888 154 OFFCURVE",
"870 168 CURVE",
"861 175 OFFCURVE",
"853 180 OFFCURVE",
"846 184 CURVE SMOOTH"
);
}
);
width = 982;
}
);
unicode = FE90;
},
{
glyphname = "beh-ar.init";
lastChange = "2013-06-18 11:41:06 +0330";
layers = (
{
layerId = "3D323242-F336-407C-B164-DE86AA499667";
name = "Regular";
paths = (
{
closed = 1;
nodes = (
"89 198 LINE",
"161 78 OFFCURVE",
"299 8 OFFCURVE",
"462 8 CURVE SMOOTH",
"466 8 LINE SMOOTH",
"547 8 OFFCURVE",
"616 28 OFFCURVE",
"667 64 CURVE SMOOTH",
"719 100 OFFCURVE",
"756 139 OFFCURVE",
"796 198 CURVE"
);
},
{
closed = 1;
nodes = (
"831 235 LINE SMOOTH",
"838 235 OFFCURVE",
"844 231 OFFCURVE",
"846 225 CURVE",
"847 225 LINE",
"855 220 LINE",
"866 216 OFFCURVE",
"879 208 OFFCURVE",
"896 194 CURVE SMOOTH",
"912 178 OFFCURVE",
"926 162 OFFCURVE",
"936 135 CURVE SMOOTH",
"940 121 OFFCURVE",
"942 106 OFFCURVE",
"942 90 CURVE SMOOTH",
"942 88 LINE SMOOTH",
"941 39 OFFCURVE",
"908 15 OFFCURVE",
"880 15 CURVE SMOOTH",
"850 15 OFFCURVE",
"801 67 OFFCURVE",
"794 133 CURVE",
"711 30 OFFCURVE",
"615 -28 OFFCURVE",
"466 -29 CURVE SMOOTH",
"462 -29 LINE SMOOTH",
"276 -29 OFFCURVE",
"115 57 OFFCURVE",
"42 208 CURVE",
"41 212 OFFCURVE",
"40 215 OFFCURVE",
"40 217 CURVE SMOOTH",
"40 220 OFFCURVE",
"41 223 OFFCURVE",
"44 226 CURVE",
"46 232 OFFCURVE",
"52 235 OFFCURVE",
"58 235 CURVE SMOOTH"
);
},
{
closed = 1;
nodes = (
"835 189 LINE",
"824 173 LINE",
"825 168 OFFCURVE",
"826 162 OFFCURVE",
"827 154 CURVE",
"830 138 OFFCURVE",
"838 95 OFFCURVE",
"856 72 CURVE",
"865 60 OFFCURVE",
"875 55 OFFCURVE",
"886 55 CURVE SMOOTH",
"898 55 OFFCURVE",
"905 66 OFFCURVE",
"906 88 CURVE",
"906 90 LINE SMOOTH",
"906 124 OFFCURVE",
"888 154 OFFCURVE",
"870 168 CURVE",
"861 175 OFFCURVE",
"853 180 OFFCURVE",
"846 184 CURVE SMOOTH"
);
}
);
width = 982;
}
);
unicode = FE91;
},
{
glyphname = "beh-ar.medi";
lastChange = "2013-06-18 11:41:42 +0330";
layers = (
{
layerId = "3D323242-F336-407C-B164-DE86AA499667";
name = "Regular";
paths = (
{
closed = 1;
nodes = (
"89 198 LINE",
"161 78 OFFCURVE",
"299 8 OFFCURVE",
"462 8 CURVE SMOOTH",
"466 8 LINE SMOOTH",
"547 8 OFFCURVE",
"616 28 OFFCURVE",
"667 64 CURVE SMOOTH",
"719 100 OFFCURVE",
"756 139 OFFCURVE",
"796 198 CURVE"
);
},
{
closed = 1;
nodes = (
"831 235 LINE SMOOTH",
"838 235 OFFCURVE",
"844 231 OFFCURVE",
"846 225 CURVE",
"847 225 LINE",
"855 220 LINE",
"866 216 OFFCURVE",
"879 208 OFFCURVE",
"896 194 CURVE SMOOTH",
"912 178 OFFCURVE",
"926 162 OFFCURVE",
"936 135 CURVE SMOOTH",
"940 121 OFFCURVE",
"942 106 OFFCURVE",
"942 90 CURVE SMOOTH",
"942 88 LINE SMOOTH",
"941 39 OFFCURVE",
"908 15 OFFCURVE",
"880 15 CURVE SMOOTH",
"850 15 OFFCURVE",
"801 67 OFFCURVE",
"794 133 CURVE",
"711 30 OFFCURVE",
"615 -28 OFFCURVE",
"466 -29 CURVE SMOOTH",
"462 -29 LINE SMOOTH",
"276 -29 OFFCURVE",
"115 57 OFFCURVE",
"42 208 CURVE",
"41 212 OFFCURVE",
"40 215 OFFCURVE",
"40 217 CURVE SMOOTH",
"40 220 OFFCURVE",
"41 223 OFFCURVE",
"44 226 CURVE",
"46 232 OFFCURVE",
"52 235 OFFCURVE",
"58 235 CURVE SMOOTH"
);
},
{
closed = 1;
nodes = (
"835 189 LINE",
"824 173 LINE",
"825 168 OFFCURVE",
"826 162 OFFCURVE",
"827 154 CURVE",
"830 138 OFFCURVE",
"838 95 OFFCURVE",
"856 72 CURVE",
"865 60 OFFCURVE",
"875 55 OFFCURVE",
"886 55 CURVE SMOOTH",
"898 55 OFFCURVE",
"905 66 OFFCURVE",
"906 88 CURVE",
"906 90 LINE SMOOTH",
"906 124 OFFCURVE",
"888 154 OFFCURVE",
"870 168 CURVE",
"861 175 OFFCURVE",
"853 180 OFFCURVE",
"846 184 CURVE SMOOTH"
);
}
);
width = 982;
}
);
unicode = FE92;
},
{
glyphname = "dad-ar";
lastChange = "2013-06-18 11:00:16 +0330";
layers = (
{
layerId = "3D323242-F336-407C-B164-DE86AA499667";
name = "Regular";
paths = (
{
closed = 1;
nodes = (
"338 0 LINE SMOOTH",
"304 0 OFFCURVE",
"267 11 OFFCURVE",
"227 32 CURVE",
"192 14 OFFCURVE",
"158 2 OFFCURVE",
"127 -5 CURVE SMOOTH",
"123 -6 OFFCURVE",
"119 -7 OFFCURVE",
"114 -7 CURVE SMOOTH",
"79 -7 OFFCURVE",
"56 20 OFFCURVE",
"48 41 CURVE",
"45 47 OFFCURVE",
"43 57 OFFCURVE",
"40 70 CURVE",
"40 75 LINE SMOOTH",
"40 112 OFFCURVE",
"72 142 OFFCURVE",
"107 142 CURVE SMOOTH",
"108 142 OFFCURVE",
"109 142 OFFCURVE",
"112 142 CURVE",
"115 141 OFFCURVE",
"116 141 OFFCURVE",
"117 141 CURVE",
"146 136 OFFCURVE",
"183 121 OFFCURVE",
"227 96 CURVE",
"249 109 OFFCURVE",
"269 121 OFFCURVE",
"288 133 CURVE SMOOTH",
"324 156 OFFCURVE",
"378 176 OFFCURVE",
"434 177 CURVE",
"439 178 OFFCURVE",
"447 178 OFFCURVE",
"458 178 CURVE SMOOTH",
"546 178 OFFCURVE",
"630 158 OFFCURVE",
"710 117 CURVE",
"768 133 OFFCURVE",
"828 147 OFFCURVE",
"891 159 CURVE",
"896 159 LINE SMOOTH",
"911 159 OFFCURVE",
"920 152 OFFCURVE",
"923 137 CURVE",
"923 132 LINE SMOOTH",
"923 117 OFFCURVE",
"916 108 OFFCURVE",
"901 105 CURVE SMOOTH",
"866 99 OFFCURVE",
"826 90 OFFCURVE",
"781 79 CURVE",
"802 66 LINE SMOOTH",
"875 21 OFFCURVE",
"901 -28 OFFCURVE",
"934 -129 CURVE SMOOTH",
"943 -156 OFFCURVE",
"947 -186 OFFCURVE",
"947 -217 CURVE SMOOTH",
"947 -228 OFFCURVE",
"947 -242 OFFCURVE",
"946 -261 CURVE SMOOTH",
"945 -280 OFFCURVE",
"944 -295 OFFCURVE",
"944 -304 CURVE SMOOTH",
"944 -348 OFFCURVE",
"953 -382 OFFCURVE",
"967 -415 CURVE SMOOTH",
"974 -432 OFFCURVE",
"983 -451 OFFCURVE",
"994 -472 CURVE SMOOTH",
"1005 -493 OFFCURVE",
"1014 -511 OFFCURVE",
"1020 -524 CURVE",
"1021 -529 OFFCURVE",
"1022 -533 OFFCURVE",
"1022 -535 CURVE SMOOTH",
"1022 -548 OFFCURVE",
"1016 -556 OFFCURVE",
"1005 -560 CURVE",
"1003 -561 OFFCURVE",
"1000 -562 OFFCURVE",
"995 -562 CURVE SMOOTH",
"983 -562 OFFCURVE",
"974 -557 OFFCURVE",
"969 -546 CURVE",
"966 -540 OFFCURVE",
"955 -517 OFFCURVE",
"935 -476 CURVE SMOOTH",
"895 -396 OFFCURVE",
"889 -349 OFFCURVE",
"889 -304 CURVE SMOOTH",
"889 -293 OFFCURVE",
"890 -277 OFFCURVE",
"891 -258 CURVE SMOOTH",
"892 -239 OFFCURVE",
"893 -226 OFFCURVE",
"893 -217 CURVE SMOOTH",
"893 -166 OFFCURVE",
"867 -91 OFFCURVE",
"839 -43 CURVE SMOOTH",
"825 -20 OFFCURVE",
"803 1 OFFCURVE",
"774 19 CURVE",
"704 59 LINE",
"600 32 OFFCURVE",
"574 24 OFFCURVE",
"482 11 CURVE SMOOTH",
"435 4 OFFCURVE",
"389 1 OFFCURVE",
"343 0 CURVE SMOOTH"
);
},
{
closed = 1;
nodes = (
"301 59 OFFCURVE",
"319 55 OFFCURVE",
"338 55 CURVE SMOOTH",
"342 55 LINE SMOOTH",
"427 56 OFFCURVE",
"521 70 OFFCURVE",
"624 95 CURVE",
"575 114 OFFCURVE",
"519 123 OFFCURVE",
"458 123 CURVE SMOOTH",
"436 123 LINE SMOOTH",
"392 122 OFFCURVE",
"341 103 OFFCURVE",
"283 66 CURVE"
);
},
{
closed = 1;
nodes = (
"149 76 OFFCURVE",
"128 84 OFFCURVE",
"108 87 CURVE",
"107 87 LINE SMOOTH",
"102 87 OFFCURVE",
"95 80 OFFCURVE",
"95 75 CURVE",
"96 69 OFFCURVE",
"97 65 OFFCURVE",
"98 63 CURVE",
"102 53 OFFCURVE",
"107 48 OFFCURVE",
"114 48 CURVE SMOOTH",
"116 48 LINE",
"133 51 OFFCURVE",
"151 57 OFFCURVE",
"170 65 CURVE"
);
}
);
width = 1032;
}
);
unicode = 0636;
},
{
glyphname = "dal-ar";
lastChange = "2013-06-18 11:22:25 +0330";
layers = (
{
layerId = "3D323242-F336-407C-B164-DE86AA499667";
name = "Regular";
paths = (
{
closed = 1;
nodes = (
"359 -13 LINE",
"354 -19 OFFCURVE",
"351 -23 OFFCURVE",
"350 -23 CURVE SMOOTH",
"349 -23 OFFCURVE",
"344 -21 OFFCURVE",
"340 -14 CURVE",
"44 354 LINE",
"41 358 OFFCURVE",
"40 362 OFFCURVE",
"40 364 CURVE SMOOTH",
"40 368 OFFCURVE",
"42 372 OFFCURVE",
"46 374 CURVE SMOOTH",
"98 415 LINE",
"98 418 OFFCURVE",
"103 420 OFFCURVE",
"105 420 CURVE SMOOTH",
"110 420 OFFCURVE",
"114 418 OFFCURVE",
"116 415 CURVE",
"339 139 LINE",
"349 129 LINE",
"350 129 OFFCURVE",
"351 130 OFFCURVE",
"354 133 CURVE",
"355 135 OFFCURVE",
"358 138 OFFCURVE",
"360 142 CURVE",
"582 415 LINE",
"584 418 OFFCURVE",
"588 420 OFFCURVE",
"593 420 CURVE SMOOTH",
"595 420 OFFCURVE",
"600 418 OFFCURVE",
"600 415 CURVE",
"652 374 LINE SMOOTH",
"656 372 OFFCURVE",
"658 368 OFFCURVE",
"658 364 CURVE SMOOTH",
"658 362 OFFCURVE",
"657 358 OFFCURVE",
"654 354 CURVE"
);
},
{
closed = 1;
nodes = (
"344 24 OFFCURVE",
"348 21 OFFCURVE",
"349 21 CURVE",
"358 33 LINE",
"625 362 LINE",
"594 387 LINE",
"359 97 LINE",
"354 91 OFFCURVE",
"350 86 OFFCURVE",
"349 86 CURVE SMOOTH",
"348 86 OFFCURVE",
"343 92 OFFCURVE",
"340 95 CURVE",
"104 387 LINE",
"73 362 LINE",
"340 32 LINE SMOOTH"
);
}
);
width = 698;
}
);
unicode = 062F;
},
{
glyphname = "feh-ar";
lastChange = "2013-06-18 11:00:41 +0330";
layers = (
{
layerId = "3D323242-F336-407C-B164-DE86AA499667";
name = "Regular";
paths = (
{
closed = 1;
nodes = (
"40 447 LINE SMOOTH",
"40 460 OFFCURVE",
"50 470 OFFCURVE",
"63 470 CURVE SMOOTH",
"673 470 LINE SMOOTH",
"686 470 OFFCURVE",
"696 460 OFFCURVE",
"696 447 CURVE SMOOTH",
"696 23 LINE SMOOTH",
"696 10 OFFCURVE",
"686 0 OFFCURVE",
"673 0 CURVE SMOOTH",
"409 0 LINE",
"409 45 LINE",
"651 45 LINE",
"651 425 LINE",
"85 425 LINE",
"85 19 LINE",
"40 19 LINE"
);
}
);
width = 736;
}
);
unicode = 0641;
},
{
glyphname = "gaf-ar";
lastChange = "2013-06-18 11:00:52 +0330";
layers = (
{
layerId = "3D323242-F336-407C-B164-DE86AA499667";
name = "Regular";
paths = (
{
closed = 1;
nodes = (
"1024 51 LINE SMOOTH",
"1037 51 OFFCURVE",
"1048 39 OFFCURVE",
"1048 26 CURVE SMOOTH",
"1048 13 OFFCURVE",
"1037 1 OFFCURVE",
"1024 1 CURVE SMOOTH",
"514 1 LINE",
"563 -54 OFFCURVE",
"588 -84 OFFCURVE",
"615 -144 CURVE SMOOTH",
"628 -175 OFFCURVE",
"635 -205 OFFCURVE",
"635 -234 CURVE SMOOTH",
"635 -247 OFFCURVE",
"625 -258 OFFCURVE",
"612 -258 CURVE SMOOTH",
"599 -258 OFFCURVE",
"588 -247 OFFCURVE",
"588 -234 CURVE SMOOTH",
"588 -190 OFFCURVE",
"569 -145 OFFCURVE",
"542 -109 CURVE SMOOTH",
"515 -73 OFFCURVE",
"482 -32 OFFCURVE",
"450 1 CURVE",
"64 1 LINE SMOOTH",
"51 1 OFFCURVE",
"40 13 OFFCURVE",
"40 26 CURVE SMOOTH",
"40 39 OFFCURVE",
"51 51 OFFCURVE",
"64 51 CURVE SMOOTH",
"410 51 LINE",
"379 92 OFFCURVE",
"363 131 OFFCURVE",
"363 168 CURVE SMOOTH",
"363 225 OFFCURVE",
"386 271 OFFCURVE",
"418 295 CURVE SMOOTH",
"449 318 OFFCURVE",
"483 330 OFFCURVE",
"514 330 CURVE SMOOTH",
"565 330 OFFCURVE",
"607 302 OFFCURVE",
"627 267 CURVE SMOOTH",
"646 231 OFFCURVE",
"655 201 OFFCURVE",
"655 185 CURVE SMOOTH",
"655 140 OFFCURVE",
"613 81 OFFCURVE",
"562 81 CURVE",
"534 84 OFFCURVE",
"495 122 OFFCURVE",
"479 153 CURVE",
"473 169 OFFCURVE",
"470 179 OFFCURVE",
"470 184 CURVE SMOOTH",
"470 197 OFFCURVE",
"476 205 OFFCURVE",
"480 206 CURVE SMOOTH",
"484 207 LINE",
"492 207 OFFCURVE",
"503 181 OFFCURVE",
"507 170 CURVE",
"516 151 OFFCURVE",
"542 129 OFFCURVE",
"562 129 CURVE SMOOTH",
"585 129 OFFCURVE",
"608 163 OFFCURVE",
"608 186 CURVE SMOOTH",
"608 189 OFFCURVE",
"607 194 OFFCURVE",
"604 203 CURVE SMOOTH",
"598 220 OFFCURVE",
"588 249 OFFCURVE",
"561 269 CURVE SMOOTH",
"548 278 OFFCURVE",
"532 283 OFFCURVE",
"514 283 CURVE SMOOTH",
"497 283 OFFCURVE",
"475 277 OFFCURVE",
"451 262 CURVE SMOOTH",
"427 246 OFFCURVE",
"410 212 OFFCURVE",
"410 168 CURVE SMOOTH",
"410 137 OFFCURVE",
"430 98 OFFCURVE",
"470 51 CURVE"
);
},
{
closed = 1;
nodes = (
"1015 -31 LINE",
"1028 -31 OFFCURVE",
"1039 -40 OFFCURVE",
"1039 -49 CURVE SMOOTH",
"1039 -59 OFFCURVE",
"1028 -68 OFFCURVE",
"1015 -68 CURVE",
"705 -68 LINE",
"692 -68 OFFCURVE",
"681 -59 OFFCURVE",
"681 -49 CURVE SMOOTH",
"681 -40 OFFCURVE",
"692 -31 OFFCURVE",
"705 -31 CURVE"
);
}
);
width = 1088;
}
);
unicode = 06AF;
},
{
glyphname = "ghain-ar";
lastChange = "2013-06-18 11:01:12 +0330";
layers = (
{
layerId = "3D323242-F336-407C-B164-DE86AA499667";
name = "Regular";
paths = (
{
closed = 1;
nodes = (
"40 245 OFFCURVE",
"140 370 OFFCURVE",
"277 370 CURVE SMOOTH",
"380 370 OFFCURVE",
"455 278 OFFCURVE",
"455 174 CURVE SMOOTH",
"455 80 OFFCURVE",
"395 2 OFFCURVE",
"315 2 CURVE SMOOTH",
"313 2 LINE SMOOTH",
"257 2 OFFCURVE",
"208 53 OFFCURVE",
"208 135 CURVE SMOOTH",
"208 151 OFFCURVE",
"224 167 OFFCURVE",
"243 167 CURVE SMOOTH",
"259 167 OFFCURVE",
"274 151 OFFCURVE",
"274 135 CURVE SMOOTH",
"274 112 OFFCURVE",
"280 93 OFFCURVE",
"292 79 CURVE SMOOTH",
"298 72 OFFCURVE",
"304 68 OFFCURVE",
"313 68 CURVE SMOOTH",
"357 68 OFFCURVE",
"389 115 OFFCURVE",
"389 174 CURVE SMOOTH",
"389 245 OFFCURVE",
"340 304 OFFCURVE",
"277 304 CURVE SMOOTH",
"182 304 OFFCURVE",
"106 213 OFFCURVE",
"106 106 CURVE SMOOTH",
"106 49 OFFCURVE",
"115 3 OFFCURVE",
"142 -46 CURVE SMOOTH",
"171 -93 OFFCURVE",
"183 -116 OFFCURVE",
"236 -166 CURVE SMOOTH",
"262 -191 OFFCURVE",
"283 -208 OFFCURVE",
"296 -218 CURVE",
"309 -228 OFFCURVE",
"332 -249 OFFCURVE",
"367 -278 CURVE SMOOTH",
"376 -285 OFFCURVE",
"379 -294 OFFCURVE",
"379 -303 CURVE SMOOTH",
"379 -321 OFFCURVE",
"366 -337 OFFCURVE",
"345 -337 CURVE SMOOTH",
"336 -337 OFFCURVE",
"329 -334 OFFCURVE",
"324 -329 CURVE",
"309 -315 OFFCURVE",
"292 -302 OFFCURVE",
"277 -290 CURVE SMOOTH",
"246 -265 OFFCURVE",
"215 -237 OFFCURVE",
"189 -211 CURVE SMOOTH",
"160 -184 OFFCURVE",
"134 -153 OFFCURVE",
"113 -122 CURVE SMOOTH",
"91 -92 OFFCURVE",
"73 -56 OFFCURVE",
"61 -19 CURVE SMOOTH",
"49 17 OFFCURVE",
"40 60 OFFCURVE",
"40 106 CURVE SMOOTH"
);
},
{
closed = 1;
nodes = (
"362 453 OFFCURVE",
"323 415 OFFCURVE",
"277 415 CURVE SMOOTH",
"231 415 OFFCURVE",
"191 453 OFFCURVE",
"191 497 CURVE SMOOTH",
"191 546 OFFCURVE",
"231 586 OFFCURVE",
"280 586 CURVE SMOOTH",
"325 586 OFFCURVE",
"362 546 OFFCURVE",
"362 498 CURVE SMOOTH"
);
}
);
width = 495;
}
);
unicode = 063A;
},
{
glyphname = "hah-ar";
lastChange = "2013-06-18 11:21:42 +0330";
layers = (
{
layerId = "3D323242-F336-407C-B164-DE86AA499667";
name = "Regular";
paths = (
{
closed = 1;
nodes = (
"311 337 LINE",
"311 340 LINE",
"311 401 OFFCURVE",
"286 445 OFFCURVE",
"232 451 CURVE",
"180 451 OFFCURVE",
"136 439 OFFCURVE",
"99 411 CURVE SMOOTH",
"64 386 OFFCURVE",
"50 396 OFFCURVE",
"50 414 CURVE",
"50 446 OFFCURVE",
"146 507 OFFCURVE",
"219 507 CURVE SMOOTH",
"279 507 OFFCURVE",
"374 460 OFFCURVE",
"374 340 CURVE SMOOTH",
"374 337 LINE",
"341 -255 LINE",
"340 -268 OFFCURVE",
"329 -280 OFFCURVE",
"316 -280 CURVE SMOOTH",
"303 -280 OFFCURVE",
"291 -268 OFFCURVE",
"291 -255 CURVE"
);
}
);
width = 424;
}
);
unicode = 062D;
},
{
glyphname = "hamza-ar";
lastChange = "2013-06-18 11:02:13 +0330";
layers = (
{
layerId = "3D323242-F336-407C-B164-DE86AA499667";
name = "Regular";
paths = (
{
closed = 1;
nodes = (
"83 -199 LINE SMOOTH",
"79 -208 OFFCURVE",
"72 -212 OFFCURVE",
"62 -212 CURVE SMOOTH",
"58 -212 OFFCURVE",
"55 -211 OFFCURVE",
"53 -210 CURVE",
"44 -206 OFFCURVE",
"40 -199 OFFCURVE",
"40 -190 CURVE SMOOTH",
"40 -187 OFFCURVE",
"41 -184 OFFCURVE",
"42 -180 CURVE",
"145 38 LINE",
"89 78 OFFCURVE",
"53 146 OFFCURVE",
"53 219 CURVE SMOOTH",
"53 334 OFFCURVE",
"145 427 OFFCURVE",
"260 427 CURVE SMOOTH",
"377 427 OFFCURVE",
"467 328 OFFCURVE",
"467 209 CURVE SMOOTH",
"467 138 OFFCURVE",
"432 73 OFFCURVE",
"375 36 CURVE",
"478 -181 LINE",
"479 -185 OFFCURVE",
"480 -188 OFFCURVE",
"480 -190 CURVE SMOOTH",
"480 -200 OFFCURVE",
"476 -207 OFFCURVE",
"467 -210 CURVE",
"464 -212 OFFCURVE",
"460 -213 OFFCURVE",
"457 -213 CURVE SMOOTH",
"448 -213 OFFCURVE",
"442 -209 OFFCURVE",
"437 -200 CURVE",
"335 15 LINE",
"320 8 OFFCURVE",
"303 4 OFFCURVE",
"282 2 CURVE",
"284 -217 LINE",
"284 -218 LINE SMOOTH",
"284 -230 OFFCURVE",
"274 -240 OFFCURVE",
"262 -240 CURVE SMOOTH",
"250 -240 OFFCURVE",
"239 -230 OFFCURVE",
"239 -218 CURVE",
"237 3 LINE",
"220 5 OFFCURVE",
"203 9 OFFCURVE",
"185 16 CURVE"
);
},
{
closed = 1;
nodes = (
"339 45 OFFCURVE",
"426 110 OFFCURVE",
"427 209 CURVE",
"424 312 OFFCURVE",
"353 387 OFFCURVE",
"260 387 CURVE SMOOTH",
"168 387 OFFCURVE",
"93 311 OFFCURVE",
"93 219 CURVE SMOOTH",
"93 130 OFFCURVE",
"185 42 OFFCURVE",
"262 41 CURVE"
);
}
);
width = 520;
}
);
unicode = 0621;
},
{
glyphname = "heh-ar";
lastChange = "2013-06-18 11:02:27 +0330";
layers = (
{
layerId = "3D323242-F336-407C-B164-DE86AA499667";
name = "Regular";
paths = (
{
closed = 1;
nodes = (
"393 136 LINE SMOOTH",
"393 125 OFFCURVE",
"384 116 OFFCURVE",
"373 116 CURVE SMOOTH",
"362 116 OFFCURVE",
"353 125 OFFCURVE",
"353 136 CURVE SMOOTH",
"353 391 LINE SMOOTH",
"353 402 OFFCURVE",
"362 411 OFFCURVE",
"373 411 CURVE SMOOTH",
"384 411 OFFCURVE",
"393 402 OFFCURVE",
"393 391 CURVE SMOOTH"
);
},
{
closed = 1;
nodes = (
"283 139 LINE SMOOTH",
"283 128 OFFCURVE",
"274 119 OFFCURVE",
"263 119 CURVE SMOOTH",
"252 119 OFFCURVE",
"243 128 OFFCURVE",
"243 139 CURVE SMOOTH",
"243 394 LINE SMOOTH",
"243 405 OFFCURVE",
"252 414 OFFCURVE",
"263 414 CURVE SMOOTH",
"274 414 OFFCURVE",
"283 405 OFFCURVE",
"283 394 CURVE SMOOTH"
);
},
{
closed = 1;
nodes = (
"579 123 OFFCURVE",
"459 0 OFFCURVE",
"308 0 CURVE SMOOTH",
"160 0 OFFCURVE",
"40 118 OFFCURVE",
"40 265 CURVE SMOOTH",
"40 413 OFFCURVE",
"165 530 OFFCURVE",
"314 530 CURVE SMOOTH",
"458 530 OFFCURVE",
"579 418 OFFCURVE",
"579 274 CURVE SMOOTH"
);
},
{
closed = 1;
nodes = (
"186 490 OFFCURVE",
"80 390 OFFCURVE",
"80 265 CURVE SMOOTH",
"80 141 OFFCURVE",
"183 40 OFFCURVE",
"308 40 CURVE SMOOTH",
"436 40 OFFCURVE",
"539 145 OFFCURVE",
"539 274 CURVE SMOOTH",
"539 394 OFFCURVE",
"438 490 OFFCURVE",
"314 490 CURVE SMOOTH"
);
}
);
width = 619;
}
);
unicode = 0647;
},
{
glyphname = "hehDoachashmee-ar";
lastChange = "2013-06-18 11:02:39 +0330";
layers = (
{
layerId = "3D323242-F336-407C-B164-DE86AA499667";
name = "Regular";
paths = (
{
closed = 1;
nodes = (
"393 136 LINE SMOOTH",
"393 125 OFFCURVE",
"384 116 OFFCURVE",
"373 116 CURVE SMOOTH",
"362 116 OFFCURVE",
"353 125 OFFCURVE",
"353 136 CURVE SMOOTH",
"353 391 LINE SMOOTH",
"353 402 OFFCURVE",
"362 411 OFFCURVE",
"373 411 CURVE SMOOTH",
"384 411 OFFCURVE",
"393 402 OFFCURVE",
"393 391 CURVE SMOOTH"
);
},
{
closed = 1;
nodes = (
"283 139 LINE SMOOTH",
"283 128 OFFCURVE",
"274 119 OFFCURVE",
"263 119 CURVE SMOOTH",
"252 119 OFFCURVE",
"243 128 OFFCURVE",
"243 139 CURVE SMOOTH",
"243 394 LINE SMOOTH",
"243 405 OFFCURVE",
"252 414 OFFCURVE",
"263 414 CURVE SMOOTH",
"274 414 OFFCURVE",
"283 405 OFFCURVE",
"283 394 CURVE SMOOTH"
);
},
{
closed = 1;
nodes = (
"579 123 OFFCURVE",
"459 0 OFFCURVE",
"308 0 CURVE SMOOTH",
"160 0 OFFCURVE",
"40 118 OFFCURVE",
"40 265 CURVE SMOOTH",
"40 413 OFFCURVE",
"165 530 OFFCURVE",
"314 530 CURVE SMOOTH",
"458 530 OFFCURVE",
"579 418 OFFCURVE",
"579 274 CURVE SMOOTH"
);
},
{
closed = 1;
nodes = (
"186 490 OFFCURVE",
"80 390 OFFCURVE",
"80 265 CURVE SMOOTH",
"80 141 OFFCURVE",
"183 40 OFFCURVE",
"308 40 CURVE SMOOTH",
"436 40 OFFCURVE",
"539 145 OFFCURVE",
"539 274 CURVE SMOOTH",
"539 394 OFFCURVE",
"438 490 OFFCURVE",
"314 490 CURVE SMOOTH"
);
}
);
width = 619;
}
);
unicode = 06BE;
},
{
glyphname = "jeem-ar";
lastChange = "2013-06-18 11:21:48 +0330";
layers = (
{
layerId = "3D323242-F336-407C-B164-DE86AA499667";
name = "Regular";
paths = (
{
closed = 1;
nodes = (
"311 337 LINE",
"311 340 LINE",
"311 401 OFFCURVE",
"286 445 OFFCURVE",
"232 451 CURVE",
"180 451 OFFCURVE",
"136 439 OFFCURVE",
"99 411 CURVE SMOOTH",
"64 386 OFFCURVE",
"50 396 OFFCURVE",
"50 414 CURVE",
"50 446 OFFCURVE",
"146 507 OFFCURVE",
"219 507 CURVE SMOOTH",
"279 507 OFFCURVE",
"374 460 OFFCURVE",
"374 340 CURVE SMOOTH",
"374 337 LINE",
"350 -36 LINE",
"347 -105 LINE",
"341 -255 LINE SMOOTH",
"340 -268 OFFCURVE",
"329 -280 OFFCURVE",
"316 -280 CURVE SMOOTH",
"303 -280 OFFCURVE",
"291 -268 OFFCURVE",
"291 -255 CURVE"
);
},
{
closed = 1;
nodes = (
"348 -90 OFFCURVE",
"391 -48 OFFCURVE",
"455 -41 CURVE",
"481 -40 OFFCURVE",
"492 -44 OFFCURVE",
"508 -54 CURVE SMOOTH",
"522 -63 OFFCURVE",
"533 -61 OFFCURVE",
"537 -53 CURVE",
"542 -38 OFFCURVE",
"522 -2 OFFCURVE",
"464 -2 CURVE",
"464 -2 OFFCURVE",
"464 -2 OFFCURVE",
"463 -2 CURVE SMOOTH",
"462 -2 OFFCURVE",
"462 -2 OFFCURVE",
"462 -2 CURVE",
"458 -2 LINE",
"420 -4 OFFCURVE",
"384 -17 OFFCURVE",
"350 -36 CURVE",
"347 -105 LINE SMOOTH"
);
}
);
width = 588;
}
);
unicode = 062C;
},
{
glyphname = "jeh-ar";
lastChange = "2013-06-18 11:25:03 +0330";
layers = (
{
layerId = "3D323242-F336-407C-B164-DE86AA499667";
name = "Regular";
paths = (
{
closed = 1;
nodes = (
"493 671 LINE",
"494 541 OFFCURVE",
"496 442 OFFCURVE",
"498 374 CURVE SMOOTH",
"498 372 LINE SMOOTH",
"498 355 OFFCURVE",
"497 333 OFFCURVE",
"496 307 CURVE SMOOTH",
"494 281 OFFCURVE",
"493 260 OFFCURVE",
"493 246 CURVE SMOOTH",
"493 231 OFFCURVE",
"493 219 OFFCURVE",
"494 211 CURVE SMOOTH",
"499 148 OFFCURVE",
"501 121 OFFCURVE",
"520 73 CURVE",
"529 51 OFFCURVE",
"543 37 OFFCURVE",
"563 33 CURVE",
"565 32 OFFCURVE",
"570 32 OFFCURVE",
"575 32 CURVE SMOOTH",
"586 32 OFFCURVE",
"602 34 OFFCURVE",
"625 37 CURVE SMOOTH",
"646 40 OFFCURVE",
"662 41 OFFCURVE",
"674 41 CURVE SMOOTH",
"674 41 OFFCURVE",
"676 41 OFFCURVE",
"679 41 CURVE",
"681 41 OFFCURVE",
"683 41 OFFCURVE",
"684 41 CURVE SMOOTH",
"707 41 OFFCURVE",
"729 31 OFFCURVE",
"752 11 CURVE",
"765 0 OFFCURVE",
"772 -11 OFFCURVE",
"779 -29 CURVE",
"783 -37 OFFCURVE",
"785 -45 OFFCURVE",
"790 -49 CURVE",
"705 -13 OFFCURVE",
"695 -9 OFFCURVE",
"644 -3 CURVE SMOOTH",
"638 -2 OFFCURVE",
"628 -1 OFFCURVE",
"617 -1 CURVE SMOOTH",
"611 -1 OFFCURVE",
"606 -1 OFFCURVE",
"599 -1 CURVE",
"591 -2 OFFCURVE",
"584 -2 OFFCURVE",
"581 -2 CURVE SMOOTH",
"568 -2 OFFCURVE",
"555 0 OFFCURVE",
"542 1 CURVE SMOOTH",
"528 4 OFFCURVE",
"519 10 OFFCURVE",
"505 19 CURVE",
"499 22 OFFCURVE",
"492 27 OFFCURVE",
"487 28 CURVE",
"483 23 OFFCURVE",
"467 2 OFFCURVE",
"457 -6 CURVE SMOOTH",
"410 -50 OFFCURVE",
"381 -67 OFFCURVE",
"343 -73 CURVE SMOOTH",
"333 -75 OFFCURVE",
"324 -76 OFFCURVE",
"318 -76 CURVE SMOOTH",
"300 -76 OFFCURVE",
"275 -72 OFFCURVE",
"254 -63 CURVE SMOOTH",
"243 -59 OFFCURVE",
"234 -56 OFFCURVE",
"227 -55 CURVE SMOOTH",
"220 -55 OFFCURVE",
"215 -54 OFFCURVE",
"212 -54 CURVE SMOOTH",
"201 -54 OFFCURVE",
"191 -59 OFFCURVE",
"183 -63 CURVE",
"180 -65 OFFCURVE",
"174 -69 OFFCURVE",
"170 -72 CURVE",
"165 -74 OFFCURVE",
"161 -77 OFFCURVE",
"157 -79 CURVE",
"158 -78 OFFCURVE",
"158 -74 OFFCURVE",
"158 -71 CURVE SMOOTH",
"158 -69 OFFCURVE",
"158 -64 OFFCURVE",
"158 -60 CURVE",
"157 -55 OFFCURVE",
"157 -53 OFFCURVE",
"157 -50 CURVE SMOOTH",
"157 -47 OFFCURVE",
"159 -45 OFFCURVE",
"163 -43 CURVE",
"165 -42 OFFCURVE",
"166 -40 OFFCURVE",
"168 -39 CURVE SMOOTH",
"180 -27 OFFCURVE",
"200 -19 OFFCURVE",
"227 -19 CURVE SMOOTH",
"235 -19 LINE SMOOTH",
"245 -19 OFFCURVE",
"258 -21 OFFCURVE",
"274 -24 CURVE SMOOTH",
"305 -30 OFFCURVE",
"331 -31 OFFCURVE",
"340 -31 CURVE SMOOTH",
"358 -31 OFFCURVE",
"381 -28 OFFCURVE",
"390 -15 CURVE SMOOTH",
"394 -9 OFFCURVE",
"399 -2 OFFCURVE",
"401 4 CURVE",
"402 7 OFFCURVE",
"403 10 OFFCURVE",
"403 11 CURVE SMOOTH",
"403 19 OFFCURVE",
"401 23 OFFCURVE",
"395 24 CURVE SMOOTH",
"381 27 OFFCURVE",
"366 28 OFFCURVE",
"351 28 CURVE SMOOTH",
"343 28 OFFCURVE",
"329 27 OFFCURVE",
"311 26 CURVE SMOOTH",
"293 25 OFFCURVE",
"279 24 OFFCURVE",
"267 24 CURVE SMOOTH",
"256 24 OFFCURVE",
"240 25 OFFCURVE",
"222 28 CURVE SMOOTH",
"204 29 OFFCURVE",
"192 30 OFFCURVE",
"183 30 CURVE SMOOTH",
"155 30 OFFCURVE",
"127 21 OFFCURVE",
"106 10 CURVE",
"96 2 OFFCURVE",
"84 -6 OFFCURVE",
"72 -16 CURVE SMOOTH",
"60 -26 OFFCURVE",
"50 -34 OFFCURVE",
"40 -39 CURVE",
"61 19 LINE",
"83 47 OFFCURVE",
"93 52 OFFCURVE",
"142 69 CURVE",
"155 71 OFFCURVE",
"169 72 OFFCURVE",
"183 72 CURVE SMOOTH",
"197 72 OFFCURVE",
"216 71 OFFCURVE",
"238 69 CURVE SMOOTH",
"260 65 OFFCURVE",
"278 64 OFFCURVE",
"292 63 CURVE",
"297 63 OFFCURVE",
"305 62 OFFCURVE",
"316 61 CURVE SMOOTH",
"326 61 OFFCURVE",
"334 61 OFFCURVE",
"339 61 CURVE SMOOTH",
"374 61 OFFCURVE",
"397 61 OFFCURVE",
"409 64 CURVE SMOOTH",
"420 68 OFFCURVE",
"428 74 OFFCURVE",
"433 85 CURVE",
"439 106 OFFCURVE",
"444 135 OFFCURVE",
"447 173 CURVE SMOOTH",
"450 230 LINE",
"450 247 OFFCURVE",
"449 271 OFFCURVE",
"447 301 CURVE SMOOTH",
"444 332 OFFCURVE",
"442 357 OFFCURVE",
"442 376 CURVE SMOOTH",
"442 408 LINE SMOOTH",
"442 482 OFFCURVE",
"446 628 OFFCURVE",
"447 671 CURVE"
);
}
);
width = 830;
}
);
unicode = 0698;
},
{
glyphname = "kaf-ar";
lastChange = "2013-06-18 11:04:53 +0330";
layers = (
{
layerId = "3D323242-F336-407C-B164-DE86AA499667";
name = "Regular";
paths = (
{
closed = 1;
nodes = (
"1024 51 LINE SMOOTH",
"1037 51 OFFCURVE",
"1048 39 OFFCURVE",
"1048 26 CURVE SMOOTH",
"1048 13 OFFCURVE",
"1037 1 OFFCURVE",
"1024 1 CURVE SMOOTH",
"514 1 LINE",
"563 -54 OFFCURVE",
"588 -84 OFFCURVE",
"615 -144 CURVE SMOOTH",
"628 -175 OFFCURVE",
"635 -205 OFFCURVE",
"635 -234 CURVE SMOOTH",
"635 -247 OFFCURVE",
"625 -258 OFFCURVE",
"612 -258 CURVE SMOOTH",
"599 -258 OFFCURVE",
"588 -247 OFFCURVE",
"588 -234 CURVE SMOOTH",
"588 -190 OFFCURVE",
"569 -145 OFFCURVE",
"542 -109 CURVE SMOOTH",
"515 -73 OFFCURVE",
"482 -32 OFFCURVE",
"450 1 CURVE",
"64 1 LINE SMOOTH",
"51 1 OFFCURVE",
"40 13 OFFCURVE",
"40 26 CURVE SMOOTH",
"40 39 OFFCURVE",
"51 51 OFFCURVE",
"64 51 CURVE SMOOTH",
"410 51 LINE",
"379 92 OFFCURVE",
"363 131 OFFCURVE",
"363 168 CURVE SMOOTH",
"363 225 OFFCURVE",
"386 271 OFFCURVE",
"418 295 CURVE SMOOTH",
"449 318 OFFCURVE",
"483 330 OFFCURVE",
"514 330 CURVE SMOOTH",
"565 330 OFFCURVE",
"607 302 OFFCURVE",
"627 267 CURVE SMOOTH",
"646 231 OFFCURVE",
"655 201 OFFCURVE",
"655 185 CURVE SMOOTH",
"655 140 OFFCURVE",
"613 81 OFFCURVE",
"562 81 CURVE",
"534 84 OFFCURVE",
"495 122 OFFCURVE",
"479 153 CURVE",
"473 169 OFFCURVE",
"470 179 OFFCURVE",
"470 184 CURVE SMOOTH",
"470 197 OFFCURVE",
"476 205 OFFCURVE",
"480 206 CURVE SMOOTH",
"484 207 LINE",
"492 207 OFFCURVE",
"503 181 OFFCURVE",
"507 170 CURVE",
"516 151 OFFCURVE",
"542 129 OFFCURVE",
"562 129 CURVE SMOOTH",
"585 129 OFFCURVE",
"608 163 OFFCURVE",
"608 186 CURVE SMOOTH",
"608 189 OFFCURVE",
"607 194 OFFCURVE",
"604 203 CURVE SMOOTH",
"598 220 OFFCURVE",
"588 249 OFFCURVE",
"561 269 CURVE SMOOTH",
"548 278 OFFCURVE",
"532 283 OFFCURVE",
"514 283 CURVE SMOOTH",
"497 283 OFFCURVE",
"475 277 OFFCURVE",
"451 262 CURVE SMOOTH",
"427 246 OFFCURVE",
"410 212 OFFCURVE",
"410 168 CURVE SMOOTH",
"410 137 OFFCURVE",
"430 98 OFFCURVE",
"470 51 CURVE"
);
}
);
width = 1088;
}
);
unicode = 0643;
},
{
glyphname = "keheh-ar";
lastChange = "2013-06-18 11:05:24 +0330";
layers = (
{
layerId = "3D323242-F336-407C-B164-DE86AA499667";
name = "Regular";
paths = (
{
closed = 1;
nodes = (
"1024 51 LINE SMOOTH",
"1037 51 OFFCURVE",
"1048 39 OFFCURVE",
"1048 26 CURVE SMOOTH",
"1048 13 OFFCURVE",
"1037 1 OFFCURVE",
"1024 1 CURVE SMOOTH",
"514 1 LINE",
"563 -54 OFFCURVE",
"588 -84 OFFCURVE",
"615 -144 CURVE SMOOTH",
"628 -175 OFFCURVE",
"635 -205 OFFCURVE",
"635 -234 CURVE SMOOTH",
"635 -247 OFFCURVE",
"625 -258 OFFCURVE",
"612 -258 CURVE SMOOTH",
"599 -258 OFFCURVE",
"588 -247 OFFCURVE",
"588 -234 CURVE SMOOTH",
"588 -190 OFFCURVE",
"569 -145 OFFCURVE",
"542 -109 CURVE SMOOTH",
"515 -73 OFFCURVE",
"482 -32 OFFCURVE",
"450 1 CURVE",
"64 1 LINE SMOOTH",
"51 1 OFFCURVE",
"40 13 OFFCURVE",
"40 26 CURVE SMOOTH",
"40 39 OFFCURVE",
"51 51 OFFCURVE",
"64 51 CURVE SMOOTH",
"410 51 LINE",
"379 92 OFFCURVE",
"363 131 OFFCURVE",
"363 168 CURVE SMOOTH",
"363 225 OFFCURVE",
"386 271 OFFCURVE",
"418 295 CURVE SMOOTH",
"449 318 OFFCURVE",
"483 330 OFFCURVE",
"514 330 CURVE SMOOTH",
"565 330 OFFCURVE",
"607 302 OFFCURVE",
"627 267 CURVE SMOOTH",
"646 231 OFFCURVE",
"655 201 OFFCURVE",
"655 185 CURVE SMOOTH",
"655 140 OFFCURVE",
"613 81 OFFCURVE",
"562 81 CURVE",
"534 84 OFFCURVE",
"495 122 OFFCURVE",
"479 153 CURVE",
"473 169 OFFCURVE",
"470 179 OFFCURVE",
"470 184 CURVE SMOOTH",
"470 197 OFFCURVE",
"476 205 OFFCURVE",
"480 206 CURVE SMOOTH",
"484 207 LINE",
"492 207 OFFCURVE",
"503 181 OFFCURVE",
"507 170 CURVE",
"516 151 OFFCURVE",
"542 129 OFFCURVE",
"562 129 CURVE SMOOTH",
"585 129 OFFCURVE",
"608 163 OFFCURVE",
"608 186 CURVE SMOOTH",
"608 189 OFFCURVE",
"607 194 OFFCURVE",
"604 203 CURVE SMOOTH",
"598 220 OFFCURVE",
"588 249 OFFCURVE",
"561 269 CURVE SMOOTH",
"548 278 OFFCURVE",
"532 283 OFFCURVE",
"514 283 CURVE SMOOTH",
"497 283 OFFCURVE",
"475 277 OFFCURVE",
"451 262 CURVE SMOOTH",
"427 246 OFFCURVE",
"410 212 OFFCURVE",
"410 168 CURVE SMOOTH",
"410 137 OFFCURVE",
"430 98 OFFCURVE",
"470 51 CURVE"
);
}
);
width = 1088;
}
);
unicode = 06A9;
},
{
glyphname = "khah-ar";
lastChange = "2013-06-18 11:21:55 +0330";
layers = (
{
layerId = "3D323242-F336-407C-B164-DE86AA499667";
name = "Regular";
paths = (
{
closed = 1;
nodes = (
"295 -102 LINE",
"297 -33 LINE",
"311 330 LINE",
"311 333 LINE",
"311 394 OFFCURVE",
"286 438 OFFCURVE",
"232 444 CURVE",
"180 444 OFFCURVE",
"136 432 OFFCURVE",
"99 404 CURVE SMOOTH",
"64 379 OFFCURVE",
"50 389 OFFCURVE",
"50 407 CURVE",
"50 439 OFFCURVE",
"146 500 OFFCURVE",
"219 500 CURVE SMOOTH",
"279 500 OFFCURVE",
"374 453 OFFCURVE",
"374 333 CURVE SMOOTH",
"374 330 LINE",
"341 -250 LINE",
"340 -263 OFFCURVE",
"329 -275 OFFCURVE",
"316 -275 CURVE SMOOTH",
"303 -275 OFFCURVE",
"291 -263 OFFCURVE",
"291 -250 CURVE"
);
},
{
closed = 1;
nodes = (
"297 -33 LINE SMOOTH",
"297 -33 OFFCURVE",
"221 -2 OFFCURVE",
"183 0 CURVE",
"179 0 LINE",
"179 0 OFFCURVE",
"179 0 OFFCURVE",
"178 0 CURVE SMOOTH",
"177 0 OFFCURVE",
"177 0 OFFCURVE",
"177 0 CURVE",
"119 0 OFFCURVE",
"99 -36 OFFCURVE",
"104 -51 CURVE",
"108 -59 OFFCURVE",
"119 -61 OFFCURVE",
"133 -52 CURVE SMOOTH",
"149 -42 OFFCURVE",
"160 -38 OFFCURVE",
"186 -39 CURVE",
"250 -46 OFFCURVE",
"295 -87 OFFCURVE",
"295 -102 CURVE SMOOTH"
);
}
);
width = 424;
}
);
unicode = 062E;
},
{
glyphname = "lam-ar";
lastChange = "2013-06-18 11:05:43 +0330";
layers = (
{
layerId = "3D323242-F336-407C-B164-DE86AA499667";
name = "Regular";
paths = (
{
closed = 1;
nodes = (
"466 283 OFFCURVE",
"461 286 OFFCURVE",
"454 289 CURVE",
"356 289 LINE",
"350 288 OFFCURVE",
"343 285 OFFCURVE",
"335 281 CURVE SMOOTH",
"288 256 OFFCURVE",
"265 219 OFFCURVE",
"265 170 CURVE SMOOTH",
"265 94 OFFCURVE",
"328 31 OFFCURVE",
"405 31 CURVE SMOOTH",
"480 31 OFFCURVE",
"540 94 OFFCURVE",
"540 170 CURVE SMOOTH",
"540 218 OFFCURVE",
"517 255 OFFCURVE",
"470 280 CURVE"
);
},
{
closed = 1;
nodes = (
"460 368 LINE SMOOTH",
"481 368 OFFCURVE",
"500 350 OFFCURVE",
"500 329 CURVE SMOOTH",
"500 322 OFFCURVE",
"499 317 OFFCURVE",
"496 312 CURVE",
"553 280 OFFCURVE",
"581 233 OFFCURVE",
"581 172 CURVE SMOOTH",
"581 97 OFFCURVE",
"537 32 OFFCURVE",
"470 5 CURVE",
"514 -140 OFFCURVE",
"541 -225 OFFCURVE",
"553 -330 CURVE SMOOTH",
"570 -473 LINE",
"570 -475 OFFCURVE",
"571 -484 OFFCURVE",
"572 -501 CURVE SMOOTH",
"573 -518 OFFCURVE",
"573 -530 OFFCURVE",
"573 -537 CURVE SMOOTH",
"573 -560 OFFCURVE",
"574 -578 OFFCURVE",
"532 -580 CURVE SMOOTH",
"511 -581 OFFCURVE",
"458 -582 OFFCURVE",
"373 -582 CURVE SMOOTH",
"372 -582 OFFCURVE",
"370 -582 OFFCURVE",
"367 -582 CURVE",
"364 -583 OFFCURVE",
"361 -583 OFFCURVE",
"360 -583 CURVE SMOOTH",
"353 -583 OFFCURVE",
"349 -578 OFFCURVE",
"349 -567 CURVE SMOOTH",
"349 -532 OFFCURVE",
"389 -518 OFFCURVE",
"429 -518 CURVE SMOOTH",
"468 -519 OFFCURVE",
"508 -513 OFFCURVE",
"508 -489 CURVE SMOOTH",
"508 -422 OFFCURVE",
"489 -304 OFFCURVE",
"476 -254 CURVE SMOOTH",
"466 -217 OFFCURVE",
"439 -120 OFFCURVE",
"438 -116 CURVE SMOOTH",
"430 -87 OFFCURVE",
"422 -70 OFFCURVE",
"415 -65 CURVE",
"405 -65 LINE",
"398 -72 OFFCURVE",
"386 -115 OFFCURVE",
"369 -172 CURVE SMOOTH",
"347 -247 OFFCURVE",
"342 -274 OFFCURVE",
"338 -287 CURVE",
"336 -299 OFFCURVE",
"326 -342 OFFCURVE",
"297 -409 CURVE SMOOTH",
"271 -469 OFFCURVE",
"256 -516 OFFCURVE",
"251 -539 CURVE",
"251 -540 OFFCURVE",
"251 -543 OFFCURVE",
"252 -547 CURVE",
"252 -551 OFFCURVE",
"252 -554 OFFCURVE",
"252 -555 CURVE SMOOTH",
"252 -570 OFFCURVE",
"248 -577 OFFCURVE",
"239 -577 CURVE",
"225 -580 OFFCURVE",
"209 -582 OFFCURVE",
"191 -582 CURVE SMOOTH",
"184 -582 OFFCURVE",
"167 -581 OFFCURVE",
"140 -580 CURVE SMOOTH",
"113 -579 OFFCURVE",
"86 -578 OFFCURVE",
"60 -578 CURVE SMOOTH",
"49 -578 OFFCURVE",
"42 -571 OFFCURVE",
"41 -564 CURVE",
"40 -559 LINE",
"40 -551 OFFCURVE",
"42 -545 OFFCURVE",
"45 -542 CURVE SMOOTH",
"55 -532 OFFCURVE",
"70 -526 OFFCURVE",
"89 -523 CURVE SMOOTH",
"127 -518 OFFCURVE",
"170 -512 OFFCURVE",
"199 -481 CURVE",
"268 -295 LINE SMOOTH",
"278 -269 OFFCURVE",
"287 -227 OFFCURVE",
"312 -135 CURVE SMOOTH",
"332 -62 OFFCURVE",
"343 -9 OFFCURVE",
"346 2 CURVE",
"274 26 OFFCURVE",
"224 93 OFFCURVE",
"224 172 CURVE SMOOTH",
"224 232 OFFCURVE",
"258 285 OFFCURVE",
"310 314 CURVE",
"309 321 OFFCURVE",
"308 326 OFFCURVE",
"308 329 CURVE SMOOTH",
"308 350 OFFCURVE",
"326 368 OFFCURVE",
"347 368 CURVE SMOOTH"
);
},
{
closed = 1;
nodes = (
"345 342 LINE SMOOTH",
"336 342 OFFCURVE",
"332 338 OFFCURVE",
"332 329 CURVE SMOOTH",
"332 320 OFFCURVE",
"336 316 OFFCURVE",
"345 316 CURVE SMOOTH",
"459 316 LINE SMOOTH",
"468 316 OFFCURVE",
"472 320 OFFCURVE",
"472 329 CURVE SMOOTH",
"472 338 OFFCURVE",
"468 342 OFFCURVE",
"459 342 CURVE SMOOTH"
);
}
);
width = 621;
}
);
unicode = 0644;
},
{
glyphname = "meem-ar";
lastChange = "2013-06-18 11:06:04 +0330";
layers = (
{
layerId = "3D323242-F336-407C-B164-DE86AA499667";
name = "Regular";
paths = (
{
closed = 1;
nodes = (
"306 154 OFFCURVE",
"321 162 OFFCURVE",
"331 171 CURVE",
"328 217 OFFCURVE",
"326 252 OFFCURVE",
"323 277 CURVE",
"321 269 OFFCURVE",
"317 253 OFFCURVE",
"312 230 CURVE SMOOTH",
"306 206 OFFCURVE",
"300 186 OFFCURVE",
"295 171 CURVE",
"294 167 OFFCURVE",
"290 159 OFFCURVE",
"285 146 CURVE"
);
},
{
closed = 1;
nodes = (
"366 35 LINE",
"391 55 OFFCURVE",
"400 64 OFFCURVE",
"412 96 CURVE",
"413 101 OFFCURVE",
"415 108 OFFCURVE",
"416 117 CURVE",
"416 121 OFFCURVE",
"416 124 OFFCURVE",
"417 127 CURVE",
"417 283 LINE",
"415 276 OFFCURVE",
"413 265 OFFCURVE",
"410 249 CURVE SMOOTH",
"405 217 OFFCURVE",
"398 195 OFFCURVE",
"381 170 CURVE SMOOTH",
"357 134 OFFCURVE",
"333 119 OFFCURVE",
"285 104 CURVE SMOOTH",
"260 96 OFFCURVE",
"225 91 OFFCURVE",
"182 88 CURVE SMOOTH",
"138 85 OFFCURVE",
"104 78 OFFCURVE",
"80 68 CURVE",
"81 64 OFFCURVE",
"84 57 OFFCURVE",
"90 46 CURVE",
"90 45 OFFCURVE",
"93 44 OFFCURVE",
"98 43 CURVE",
"107 42 OFFCURVE",
"113 40 OFFCURVE",
"116 39 CURVE"
);
},
{
closed = 1;
nodes = (
"113 -1 LINE SMOOTH",
"112 -1 OFFCURVE",
"110 0 OFFCURVE",
"106 1 CURVE",
"103 2 OFFCURVE",
"98 3 OFFCURVE",
"91 4 CURVE SMOOTH",
"62 9 OFFCURVE",
"42 42 OFFCURVE",
"41 65 CURVE",
"40 63 LINE",
"40 70 LINE SMOOTH",
"40 103 OFFCURVE",
"83 114 OFFCURVE",
"121 121 CURVE SMOOTH",
"140 124 OFFCURVE",
"160 127 OFFCURVE",
"182 128 CURVE SMOOTH",
"204 129 OFFCURVE",
"221 131 OFFCURVE",
"234 133 CURVE",
"255 173 OFFCURVE",
"261 190 OFFCURVE",
"276 254 CURVE SMOOTH",
"283 286 OFFCURVE",
"291 312 OFFCURVE",
"300 331 CURVE",
"301 332 OFFCURVE",
"303 334 OFFCURVE",
"304 336 CURVE",
"309 342 OFFCURVE",
"314 346 OFFCURVE",
"321 347 CURVE",
"322 348 OFFCURVE",
"324 348 OFFCURVE",
"328 348 CURVE SMOOTH",
"344 348 OFFCURVE",
"353 341 OFFCURVE",
"356 327 CURVE",
"360 304 OFFCURVE",
"362 276 OFFCURVE",
"362 244 CURVE SMOOTH",
"362 241 OFFCURVE",
"362 238 OFFCURVE",
"362 233 CURVE SMOOTH",
"362 228 OFFCURVE",
"362 224 OFFCURVE",
"362 221 CURVE",
"365 228 OFFCURVE",
"369 245 OFFCURVE",
"374 270 CURVE SMOOTH",
"379 295 OFFCURVE",
"385 316 OFFCURVE",
"393 333 CURVE SMOOTH",
"398 344 OFFCURVE",
"407 349 OFFCURVE",
"418 349 CURVE SMOOTH",
"421 349 OFFCURVE",
"425 349 OFFCURVE",
"429 348 CURVE",
"432 347 OFFCURVE",
"434 346 OFFCURVE",
"435 346 CURVE",
"447 347 OFFCURVE",
"457 337 OFFCURVE",
"457 326 CURVE SMOOTH",
"457 125 LINE",
"456 124 LINE",
"456 123 OFFCURVE",
"456 123 OFFCURVE",
"456 122 CURVE",
"451 78 OFFCURVE",
"443 58 OFFCURVE",
"422 33 CURVE",
"414 22 OFFCURVE",
"407 17 OFFCURVE",
"398 10 CURVE",
"393 7 OFFCURVE",
"389 3 OFFCURVE",
"386 0 CURVE",
"375 0 LINE",
"357 0 LINE",
"352 0 LINE",
"350 -576 LINE",
"350 -577 LINE SMOOTH",
"350 -589 OFFCURVE",
"343 -596 OFFCURVE",
"330 -597 CURVE",
"319 -597 OFFCURVE",
"310 -588 OFFCURVE",
"310 -577 CURVE SMOOTH",
"312 -1 LINE"
);
}
);
width = 497;
}
);
unicode = 0645;
},
{
glyphname = "noon-ar";
lastChange = "2013-06-18 11:09:33 +0330";
layers = (
{
layerId = "3D323242-F336-407C-B164-DE86AA499667";
name = "Regular";
paths = (
{
closed = 1;
nodes = (
"84 49 LINE",
"350 49 LINE",
"350 475 LINE SMOOTH",
"350 488 OFFCURVE",
"360 498 OFFCURVE",
"372 498 CURVE SMOOTH",
"682 498 LINE SMOOTH",
"695 498 OFFCURVE",
"704 488 OFFCURVE",
"704 475 CURVE SMOOTH",
"704 0 LINE",
"659 0 LINE",
"659 453 LINE",
"395 453 LINE",
"395 27 LINE",
"394 27 LINE",
"394 12 OFFCURVE",
"387 4 OFFCURVE",
"373 4 CURVE SMOOTH",
"62 4 LINE SMOOTH",
"49 4 OFFCURVE",
"40 14 OFFCURVE",
"40 27 CURVE SMOOTH",
"40 502 LINE",
"84 502 LINE"
);
}
);
width = 744;
}
);
unicode = 0646;
},
{
glyphname = "peh-ar";
lastChange = "2013-06-18 11:09:39 +0330";
layers = (
{
layerId = "3D323242-F336-407C-B164-DE86AA499667";
name = "Regular";
paths = (
{
closed = 1;
nodes = (
"80 8 OFFCURVE",
"80 5 OFFCURVE",
"81 3 CURVE",
"85 3 LINE SMOOTH",
"91 3 OFFCURVE",
"98 5 OFFCURVE",
"105 8 CURVE SMOOTH",
"112 11 OFFCURVE",
"119 14 OFFCURVE",
"124 15 CURVE",
"128 16 OFFCURVE",
"146 20 OFFCURVE",
"179 28 CURVE SMOOTH",
"212 35 OFFCURVE",
"237 40 OFFCURVE",
"254 41 CURVE SMOOTH",
"267 42 OFFCURVE",
"288 44 OFFCURVE",
"317 47 CURVE SMOOTH",
"346 50 OFFCURVE",
"369 52 OFFCURVE",
"388 52 CURVE SMOOTH",
"401 52 OFFCURVE",
"412 52 OFFCURVE",
"419 51 CURVE",
"530 43 OFFCURVE",
"639 28 OFFCURVE",
"748 7 CURVE SMOOTH",
"787 -1 OFFCURVE",
"821 -16 OFFCURVE",
"850 -39 CURVE SMOOTH",
"862 -48 OFFCURVE",
"872 -60 OFFCURVE",
"881 -73 CURVE",
"897 -101 OFFCURVE",
"907 -122 OFFCURVE",
"928 -130 CURVE",
"931 -130 LINE SMOOTH",
"934 -130 OFFCURVE",
"937 -128 OFFCURVE",
"939 -125 CURVE",
"948 -116 OFFCURVE",
"984 -53 OFFCURVE",
"984 -30 CURVE SMOOTH",
"984 -25 OFFCURVE",
"983 -19 OFFCURVE",
"981 -12 CURVE",
"977 -5 OFFCURVE",
"970 -6 OFFCURVE",
"961 -6 CURVE SMOOTH",
"952 -6 OFFCURVE",
"943 -5 OFFCURVE",
"927 0 CURVE SMOOTH",
"906 7 OFFCURVE",
"882 15 OFFCURVE",
"855 26 CURVE SMOOTH",
"802 47 OFFCURVE",
"762 60 OFFCURVE",
"711 71 CURVE SMOOTH",
"642 85 OFFCURVE",
"558 92 OFFCURVE",
"461 93 CURVE SMOOTH",
"436 93 LINE SMOOTH",
"280 93 OFFCURVE",
"172 71 OFFCURVE",
"80 12 CURVE"
);
},
{
closed = 1;
nodes = (
"43 -12 LINE SMOOTH",
"43 -9 OFFCURVE",
"43 -5 OFFCURVE",
"42 0 CURVE SMOOTH",
"41 5 OFFCURVE",
"40 10 OFFCURVE",
"40 13 CURVE SMOOTH",
"40 27 OFFCURVE",
"45 37 OFFCURVE",
"55 44 CURVE",
"114 81 OFFCURVE",
"151 97 OFFCURVE",
"222 112 CURVE SMOOTH",
"287 126 OFFCURVE",
"358 133 OFFCURVE",
"436 133 CURVE SMOOTH",
"461 133 LINE SMOOTH",
"562 132 OFFCURVE",
"648 124 OFFCURVE",
"718 110 CURVE SMOOTH",
"771 99 OFFCURVE",
"814 85 OFFCURVE",
"868 64 CURVE SMOOTH",
"895 53 OFFCURVE",
"919 45 OFFCURVE",
"940 38 CURVE",
"941 38 OFFCURVE",
"1006 37 OFFCURVE",
"1018 2 CURVE SMOOTH",
"1022 -9 OFFCURVE",
"1024 -19 OFFCURVE",
"1024 -30 CURVE SMOOTH",
"1024 -51 OFFCURVE",
"1014 -77 OFFCURVE",
"995 -110 CURVE SMOOTH",
"971 -155 OFFCURVE",
"958 -170 OFFCURVE",
"931 -170 CURVE SMOOTH",
"928 -170 OFFCURVE",
"923 -169 OFFCURVE",
"916 -168 CURVE",
"884 -157 OFFCURVE",
"866 -130 OFFCURVE",
"850 -101 CURVE SMOOTH",
"842 -87 OFFCURVE",
"834 -77 OFFCURVE",
"826 -71 CURVE",
"805 -54 OFFCURVE",
"782 -43 OFFCURVE",
"757 -36 CURVE",
"754 -40 OFFCURVE",
"752 -42 OFFCURVE",
"749 -43 CURVE",
"744 -45 OFFCURVE",
"738 -48 OFFCURVE",
"729 -53 CURVE SMOOTH",
"711 -63 OFFCURVE",
"695 -72 OFFCURVE",
"676 -76 CURVE",
"665 -79 OFFCURVE",
"648 -84 OFFCURVE",
"627 -91 CURVE SMOOTH",
"584 -106 OFFCURVE",
"555 -113 OFFCURVE",
"523 -113 CURVE SMOOTH",
"499 -113 OFFCURVE",
"453 -106 OFFCURVE",
"414 -83 CURVE SMOOTH",
"395 -72 OFFCURVE",
"374 -57 OFFCURVE",
"353 -39 CURVE",
"331 -22 OFFCURVE",
"313 -9 OFFCURVE",
"298 0 CURVE",
"297 0 OFFCURVE",
"297 1 OFFCURVE",
"296 2 CURVE SMOOTH",
"295 3 OFFCURVE",
"294 4 OFFCURVE",
"293 4 CURVE",
"282 3 OFFCURVE",
"270 2 OFFCURVE",
"257 1 CURVE SMOOTH",
"246 0 OFFCURVE",
"204 -8 OFFCURVE",
"132 -25 CURVE",
"131 -25 OFFCURVE",
"126 -27 OFFCURVE",
"117 -31 CURVE",
"107 -35 OFFCURVE",
"96 -37 OFFCURVE",
"85 -37 CURVE SMOOTH",
"77 -37 OFFCURVE",
"42 -38 OFFCURVE",
"42 -15 CURVE SMOOTH",
"42 -14 OFFCURVE",
"42 -14 OFFCURVE",
"43 -13 CURVE"
);
},
{
closed = 1;
nodes = (
"499 -72 OFFCURVE",
"511 -73 OFFCURVE",
"523 -73 CURVE SMOOTH",
"551 -73 OFFCURVE",
"575 -66 OFFCURVE",
"615 -53 CURVE SMOOTH",
"635 -46 OFFCURVE",
"652 -41 OFFCURVE",
"667 -37 CURVE SMOOTH",
"679 -34 OFFCURVE",
"690 -30 OFFCURVE",
"699 -24 CURVE",
"614 -8 OFFCURVE",
"519 4 OFFCURVE",
"416 11 CURVE",
"409 12 OFFCURVE",
"400 12 OFFCURVE",
"388 12 CURVE SMOOTH",
"384 12 OFFCURVE",
"378 12 OFFCURVE",
"371 12 CURVE",
"363 11 OFFCURVE",
"357 11 OFFCURVE",
"354 11 CURVE",
"391 -22 OFFCURVE",
"437 -58 OFFCURVE",
"488 -69 CURVE"
);
}
);
width = 1064;
}
);
unicode = 067E;
},
{
glyphname = "qaf-ar";
lastChange = "2013-06-18 11:09:47 +0330";
layers = (
{
layerId = "3D323242-F336-407C-B164-DE86AA499667";
name = "Regular";
paths = (
{
closed = 1;
nodes = (
"40 447 LINE SMOOTH",
"40 460 OFFCURVE",
"50 470 OFFCURVE",
"63 470 CURVE SMOOTH",
"673 470 LINE SMOOTH",
"686 470 OFFCURVE",
"696 460 OFFCURVE",
"696 447 CURVE SMOOTH",
"696 23 LINE SMOOTH",
"696 10 OFFCURVE",
"686 0 OFFCURVE",
"673 0 CURVE SMOOTH",
"386 0 LINE SMOOTH",
"373 0 OFFCURVE",
"364 10 OFFCURVE",
"364 23 CURVE SMOOTH",
"364 259 LINE",
"409 259 LINE",
"409 45 LINE",
"651 45 LINE",
"651 425 LINE",
"85 425 LINE",
"85 19 LINE",
"40 19 LINE"
);
}
);
width = 736;
}
);
unicode = 0642;
},
{
glyphname = "reh-ar";
lastChange = "2013-06-18 11:23:45 +0330";
layers = (
{
layerId = "3D323242-F336-407C-B164-DE86AA499667";
name = "Regular";
paths = (
{
closed = 1;
nodes = (
"375 686 LINE",
"377 556 OFFCURVE",
"378 457 OFFCURVE",
"379 389 CURVE SMOOTH",
"379 387 LINE SMOOTH",
"379 370 OFFCURVE",
"379 348 OFFCURVE",
"378 322 CURVE SMOOTH",
"377 296 OFFCURVE",
"376 275 OFFCURVE",
"376 261 CURVE SMOOTH",
"376 246 OFFCURVE",
"376 234 OFFCURVE",
"377 226 CURVE SMOOTH",
"386 76 OFFCURVE",
"364 41 OFFCURVE",
"339 9 CURVE SMOOTH",
"298 -43 OFFCURVE",
"264 -52 OFFCURVE",
"225 -58 CURVE SMOOTH",
"215 -60 OFFCURVE",
"205 -61 OFFCURVE",
"199 -61 CURVE SMOOTH",
"182 -61 OFFCURVE",
"157 -57 OFFCURVE",
"136 -48 CURVE SMOOTH",
"125 -44 OFFCURVE",
"115 -41 OFFCURVE",
"108 -40 CURVE SMOOTH",
"102 -40 OFFCURVE",
"97 -39 OFFCURVE",
"95 -39 CURVE SMOOTH",
"84 -39 OFFCURVE",
"74 -44 OFFCURVE",
"65 -48 CURVE",
"61 -50 OFFCURVE",
"57 -54 OFFCURVE",
"52 -57 CURVE",
"47 -59 OFFCURVE",
"43 -62 OFFCURVE",
"40 -64 CURVE",
"41 -63 OFFCURVE",
"41 -59 OFFCURVE",
"41 -56 CURVE SMOOTH",
"41 -54 OFFCURVE",
"41 -49 OFFCURVE",
"41 -45 CURVE",
"40 -40 OFFCURVE",
"40 -38 OFFCURVE",
"40 -35 CURVE SMOOTH",
"40 -32 OFFCURVE",
"41 -30 OFFCURVE",
"45 -28 CURVE",
"47 -27 OFFCURVE",
"49 -25 OFFCURVE",
"50 -24 CURVE SMOOTH",
"63 -12 OFFCURVE",
"82 -4 OFFCURVE",
"108 -4 CURVE SMOOTH",
"116 -4 LINE SMOOTH",
"126 -4 OFFCURVE",
"140 -6 OFFCURVE",
"156 -9 CURVE SMOOTH",
"187 -15 OFFCURVE",
"215 -16 OFFCURVE",
"223 -16 CURVE SMOOTH",
"240 -16 OFFCURVE",
"264 -13 OFFCURVE",
"272 0 CURVE SMOOTH",
"277 6 OFFCURVE",
"280 13 OFFCURVE",
"284 19 CURVE",
"285 22 OFFCURVE",
"286 25 OFFCURVE",
"286 26 CURVE",
"315 100 LINE",
"322 121 OFFCURVE",
"325 150 OFFCURVE",
"329 188 CURVE SMOOTH",
"333 245 LINE",
"333 262 OFFCURVE",
"331 286 OFFCURVE",
"329 316 CURVE SMOOTH",
"325 347 OFFCURVE",
"324 372 OFFCURVE",
"324 391 CURVE SMOOTH",
"324 423 LINE SMOOTH",
"324 497 OFFCURVE",
"328 643 OFFCURVE",
"329 686 CURVE"
);
}
);
width = 419;
}
);
unicode = 0631;
},
{
glyphname = "sad-ar";
lastChange = "2013-06-18 11:11:23 +0330";
layers = (
{
layerId = "3D323242-F336-407C-B164-DE86AA499667";
name = "Regular";
paths = (
{
closed = 1;
nodes = (
"167 0 LINE SMOOTH",
"133 0 OFFCURVE",
"89 11 OFFCURVE",
"56 32 CURVE",
"26 52 OFFCURVE",
"33 94 OFFCURVE",
"117 133 CURVE SMOOTH",
"155 151 OFFCURVE",
"207 176 OFFCURVE",
"263 177 CURVE",
"268 178 OFFCURVE",
"276 178 OFFCURVE",
"287 178 CURVE SMOOTH",
"375 178 OFFCURVE",
"459 158 OFFCURVE",
"539 117 CURVE",
"597 133 OFFCURVE",
"663 153 OFFCURVE",
"726 165 CURVE",
"731 165 LINE SMOOTH",
"746 165 OFFCURVE",
"755 158 OFFCURVE",
"758 143 CURVE",
"758 138 LINE SMOOTH",
"758 123 OFFCURVE",
"751 114 OFFCURVE",
"736 111 CURVE SMOOTH",
"701 105 OFFCURVE",
"655 90 OFFCURVE",
"610 79 CURVE",
"631 66 LINE SMOOTH",
"704 21 OFFCURVE",
"730 -28 OFFCURVE",
"763 -129 CURVE SMOOTH",
"772 -156 OFFCURVE",
"776 -186 OFFCURVE",
"776 -217 CURVE SMOOTH",
"776 -228 OFFCURVE",
"776 -242 OFFCURVE",
"775 -261 CURVE SMOOTH",
"774 -280 OFFCURVE",
"773 -295 OFFCURVE",
"773 -304 CURVE SMOOTH",
"773 -348 OFFCURVE",
"782 -382 OFFCURVE",
"796 -415 CURVE SMOOTH",
"803 -432 OFFCURVE",
"812 -451 OFFCURVE",
"823 -472 CURVE SMOOTH",
"834 -493 OFFCURVE",
"843 -511 OFFCURVE",
"849 -524 CURVE",
"850 -529 OFFCURVE",
"851 -533 OFFCURVE",
"851 -535 CURVE SMOOTH",
"851 -548 OFFCURVE",
"845 -556 OFFCURVE",
"834 -560 CURVE",
"832 -561 OFFCURVE",
"829 -562 OFFCURVE",
"824 -562 CURVE SMOOTH",
"812 -562 OFFCURVE",
"803 -557 OFFCURVE",
"798 -546 CURVE",
"795 -540 OFFCURVE",
"784 -517 OFFCURVE",
"764 -476 CURVE SMOOTH",
"724 -396 OFFCURVE",
"718 -349 OFFCURVE",
"718 -304 CURVE SMOOTH",
"718 -293 OFFCURVE",
"719 -277 OFFCURVE",
"720 -258 CURVE SMOOTH",
"721 -239 OFFCURVE",
"722 -226 OFFCURVE",
"722 -217 CURVE SMOOTH",
"722 -166 OFFCURVE",
"696 -91 OFFCURVE",
"668 -43 CURVE SMOOTH",
"654 -20 OFFCURVE",
"632 1 OFFCURVE",
"603 19 CURVE",
"533 59 LINE",
"429 32 OFFCURVE",
"403 24 OFFCURVE",
"311 11 CURVE SMOOTH",
"264 4 OFFCURVE",
"218 1 OFFCURVE",
"172 0 CURVE SMOOTH"
);
},
{
closed = 1;
nodes = (
"130 59 OFFCURVE",
"148 55 OFFCURVE",
"167 55 CURVE SMOOTH",
"171 55 LINE SMOOTH",
"256 56 OFFCURVE",
"350 70 OFFCURVE",
"453 95 CURVE",
"404 114 OFFCURVE",
"348 123 OFFCURVE",
"287 123 CURVE SMOOTH",
"265 123 LINE SMOOTH",
"221 122 OFFCURVE",
"170 103 OFFCURVE",
"112 66 CURVE"
);
}
);
width = 891;
}
);
unicode = 0635;
},
{
glyphname = "seen-ar";
lastChange = "2013-06-18 11:12:21 +0330";
layers = (
{
layerId = "3D323242-F336-407C-B164-DE86AA499667";
name = "Regular";
paths = (
{
closed = 1;
nodes = (
"246 294 OFFCURVE",
"248 281 OFFCURVE",
"248 270 CURVE SMOOTH",
"248 258 OFFCURVE",
"246 242 OFFCURVE",
"244 230 CURVE SMOOTH",
"241 212 OFFCURVE",
"239 196 OFFCURVE",
"239 189 CURVE SMOOTH",
"239 188 LINE",
"239 184 LINE SMOOTH",
"239 168 OFFCURVE",
"239 153 OFFCURVE",
"238 147 CURVE SMOOTH",
"237 141 OFFCURVE",
"237 128 OFFCURVE",
"237 114 CURVE SMOOTH",
"237 63 OFFCURVE",
"254 26 OFFCURVE",
"279 21 CURVE",
"280 20 OFFCURVE",
"283 20 OFFCURVE",
"287 20 CURVE SMOOTH",
"297 20 OFFCURVE",
"306 25 OFFCURVE",
"309 33 CURVE SMOOTH",
"318 52 OFFCURVE",
"325 90 OFFCURVE",
"326 129 CURVE SMOOTH",
"327 149 OFFCURVE",
"329 170 OFFCURVE",
"331 184 CURVE SMOOTH",
"332 186 OFFCURVE",
"332 195 OFFCURVE",
"332 207 CURVE SMOOTH",
"332 221 LINE SMOOTH",
"332 235 OFFCURVE",
"336 256 OFFCURVE",
"342 274 CURVE",
"359 292 OFFCURVE",
"376 305 OFFCURVE",
"384 307 CURVE",
"389 307 OFFCURVE",
"397 309 OFFCURVE",
"404 311 CURVE SMOOTH",
"410 313 OFFCURVE",
"418 315 OFFCURVE",
"422 315 CURVE SMOOTH",
"423 315 LINE",
"441 313 OFFCURVE",
"460 309 OFFCURVE",
"470 304 CURVE SMOOTH",
"485 298 OFFCURVE",
"497 288 OFFCURVE",
"502 280 CURVE",
"506 274 LINE",
"515 256 OFFCURVE",
"523 229 OFFCURVE",
"526 207 CURVE",
"526 209 OFFCURVE",
"528 196 OFFCURVE",
"530 176 CURVE SMOOTH",
"531 162 OFFCURVE",
"532 148 OFFCURVE",
"532 141 CURVE SMOOTH",
"532 136 OFFCURVE",
"532 129 OFFCURVE",
"532 120 CURVE",
"531 116 OFFCURVE",
"531 109 OFFCURVE",
"531 102 CURVE SMOOTH",
"531 86 OFFCURVE",
"534 69 OFFCURVE",
"538 59 CURVE",
"541 54 OFFCURVE",
"547 51 OFFCURVE",
"554 50 CURVE",
"555 50 OFFCURVE",
"556 50 OFFCURVE",
"557 50 CURVE",
"558 49 OFFCURVE",
"559 49 OFFCURVE",
"561 49 CURVE SMOOTH",
"566 49 OFFCURVE",
"571 54 OFFCURVE",
"574 61 CURVE",
"578 69 OFFCURVE",
"583 91 OFFCURVE",
"587 117 CURVE",
"590 141 OFFCURVE",
"597 167 OFFCURVE",
"605 182 CURVE SMOOTH",
"612 195 OFFCURVE",
"626 209 OFFCURVE",
"640 217 CURVE",
"648 221 OFFCURVE",
"662 224 OFFCURVE",
"676 225 CURVE",
"679 225 LINE",
"679 225 OFFCURVE",
"679 225 OFFCURVE",
"680 225 CURVE SMOOTH",
"681 225 OFFCURVE",
"681 225 OFFCURVE",
"681 225 CURVE",
"701 225 OFFCURVE",
"727 211 OFFCURVE",
"745 189 CURVE",
"754 177 OFFCURVE",
"763 154 OFFCURVE",
"767 132 CURVE SMOOTH",
"765 139 OFFCURVE",
"767 131 OFFCURVE",
"772 111 CURVE",
"772 111 OFFCURVE",
"775 101 OFFCURVE",
"780 87 CURVE SMOOTH",
"782 76 OFFCURVE",
"785 68 OFFCURVE",
"788 67 CURVE",
"796 62 OFFCURVE",
"812 58 OFFCURVE",
"827 58 CURVE SMOOTH",
"913 58 OFFCURVE",
"949 58 OFFCURVE",
"959 57 CURVE SMOOTH",
"969 56 OFFCURVE",
"987 56 OFFCURVE",
"1004 56 CURVE",
"1023 53 OFFCURVE",
"1029 53 OFFCURVE",
"1022 54 CURVE SMOOTH",
"1024 53 OFFCURVE",
"1030 53 OFFCURVE",
"1038 53 CURVE SMOOTH",
"1051 53 LINE",
"1063 51 OFFCURVE",
"1071 46 OFFCURVE",
"1072 39 CURVE",
"1073 38 LINE",
"1073 27 OFFCURVE",
"1064 20 OFFCURVE",
"1050 19 CURVE SMOOTH",
"1007 15 OFFCURVE",
"933 12 OFFCURVE",
"825 12 CURVE SMOOTH",
"812 12 LINE SMOOTH",
"775 12 OFFCURVE",
"744 31 OFFCURVE",
"734 59 CURVE SMOOTH",
"735 57 OFFCURVE",
"734 62 OFFCURVE",
"732 70 CURVE",
"731 75 OFFCURVE",
"728 84 OFFCURVE",
"725 93 CURVE",
"727 84 OFFCURVE",
"724 94 OFFCURVE",
"717 125 CURVE SMOOTH",
"714 140 OFFCURVE",
"708 154 OFFCURVE",
"704 159 CURVE",
"700 169 OFFCURVE",
"691 175 OFFCURVE",
"682 175 CURVE SMOOTH",
"681 175 OFFCURVE",
"681 175 OFFCURVE",
"680 175 CURVE SMOOTH",
"679 175 OFFCURVE",
"679 175 OFFCURVE",
"679 175 CURVE SMOOTH",
"678 175 LINE SMOOTH",
"674 175 OFFCURVE",
"667 174 OFFCURVE",
"662 172 CURVE",
"656 168 OFFCURVE",
"651 163 OFFCURVE",
"649 158 CURVE",
"643 147 OFFCURVE",
"638 125 OFFCURVE",
"636 103 CURVE SMOOTH",
"630 41 OFFCURVE",
"600 0 OFFCURVE",
"561 0 CURVE SMOOTH",
"549 0 LINE",
"508 5 OFFCURVE",
"481 46 OFFCURVE",
"481 102 CURVE SMOOTH",
"481 110 OFFCURVE",
"481 118 OFFCURVE",
"482 122 CURVE",
"482 131 OFFCURVE",
"482 137 OFFCURVE",
"482 141 CURVE SMOOTH",
"482 148 OFFCURVE",
"481 158 OFFCURVE",
"480 168 CURVE",
"473 234 LINE",
"463 252 OFFCURVE",
"456 262 OFFCURVE",
"456 261 CURVE SMOOTH",
"455 261 OFFCURVE",
"454 262 OFFCURVE",
"453 263 CURVE",
"448 266 OFFCURVE",
"445 267 OFFCURVE",
"445 267 CURVE",
"443 268 OFFCURVE",
"436 268 OFFCURVE",
"428 268 CURVE SMOOTH",
"424 268 OFFCURVE",
"418 266 OFFCURVE",
"413 264 CURVE",
"407 262 OFFCURVE",
"402 260 OFFCURVE",
"399 260 CURVE",
"385 246 LINE",
"382 221 LINE",
"382 207 LINE SMOOTH",
"382 202 OFFCURVE",
"381 189 OFFCURVE",
"380 176 CURVE",
"379 169 OFFCURVE",
"377 149 OFFCURVE",
"376 126 CURVE SMOOTH",
"375 86 OFFCURVE",
"366 40 OFFCURVE",
"354 12 CURVE SMOOTH",
"343 -13 OFFCURVE",
"316 -30 OFFCURVE",
"287 -30 CURVE SMOOTH",
"290 -30 OFFCURVE",
"282 -29 OFFCURVE",
"268 -28 CURVE",
"219 -17 OFFCURVE",
"187 40 OFFCURVE",
"187 114 CURVE SMOOTH",
"187 128 OFFCURVE",
"187 142 OFFCURVE",
"188 148 CURVE SMOOTH",
"189 154 OFFCURVE",
"189 168 OFFCURVE",
"189 184 CURVE SMOOTH",
"189 188 LINE",
"189 189 LINE SMOOTH",
"189 196 OFFCURVE",
"191 214 OFFCURVE",
"194 233 CURVE SMOOTH",
"196 246 OFFCURVE",
"198 261 OFFCURVE",
"198 270 CURVE SMOOTH",
"198 284 OFFCURVE",
"190 294 OFFCURVE",
"178 297 CURVE",
"152 289 OFFCURVE",
"126 283 OFFCURVE",
"113 283 CURVE SMOOTH",
"111 283 LINE SMOOTH",
"84 283 OFFCURVE",
"59 293 OFFCURVE",
"47 307 CURVE",
"43 311 OFFCURVE",
"40 319 OFFCURVE",
"40 326 CURVE SMOOTH",
"40 357 OFFCURVE",
"71 377 OFFCURVE",
"117 377 CURVE SMOOTH",
"134 377 OFFCURVE",
"151 374 OFFCURVE",
"159 370 CURVE",
"162 369 OFFCURVE",
"171 364 OFFCURVE",
"183 356 CURVE",
"158 375 OFFCURVE",
"165 371 OFFCURVE",
"203 342 CURVE",
"204 342 OFFCURVE",
"211 338 OFFCURVE",
"220 332 CURVE",
"232 326 OFFCURVE",
"241 313 OFFCURVE",
"244 301 CURVE"
);
},
{
closed = 1;
nodes = (
"117 347 LINE SMOOTH",
"101 347 OFFCURVE",
"85 342 OFFCURVE",
"75 334 CURVE",
"72 331 OFFCURVE",
"70 328 OFFCURVE",
"70 326 CURVE",
"76 318 OFFCURVE",
"93 313 OFFCURVE",
"112 313 CURVE SMOOTH",
"113 313 LINE SMOOTH",
"124 313 OFFCURVE",
"143 317 OFFCURVE",
"161 323 CURVE SMOOTH",
"164 324 OFFCURVE",
"166 326 OFFCURVE",
"166 328 CURVE SMOOTH",
"166 327 OFFCURVE",
"165 329 OFFCURVE",
"164 333 CURVE",
"152 340 OFFCURVE",
"140 346 OFFCURVE",
"132 347 CURVE"
);
}
);
width = 1113;
}
);
unicode = 0633;
},
{
glyphname = "sheen-ar";
lastChange = "2013-06-18 11:12:27 +0330";
layers = (
{
layerId = "3D323242-F336-407C-B164-DE86AA499667";
name = "Regular";
paths = (
{
closed = 1;
nodes = (
"246 344 OFFCURVE",
"248 331 OFFCURVE",
"248 320 CURVE SMOOTH",
"248 308 OFFCURVE",
"246 292 OFFCURVE",
"244 230 CURVE SMOOTH",
"243 212 OFFCURVE",
"239 196 OFFCURVE",
"239 189 CURVE SMOOTH",
"239 188 LINE",
"239 184 LINE SMOOTH",
"239 168 OFFCURVE",
"239 153 OFFCURVE",
"238 147 CURVE SMOOTH",
"237 141 OFFCURVE",
"237 128 OFFCURVE",
"237 114 CURVE SMOOTH",
"237 63 OFFCURVE",
"254 26 OFFCURVE",
"279 21 CURVE",
"280 20 OFFCURVE",
"283 20 OFFCURVE",
"287 20 CURVE SMOOTH",
"297 20 OFFCURVE",
"306 25 OFFCURVE",
"309 33 CURVE SMOOTH",
"318 52 OFFCURVE",
"325 90 OFFCURVE",
"326 129 CURVE SMOOTH",
"327 149 OFFCURVE",
"329 170 OFFCURVE",
"331 184 CURVE SMOOTH",
"332 186 OFFCURVE",
"332 195 OFFCURVE",
"332 207 CURVE SMOOTH",
"332 221 LINE SMOOTH",
"332 235 OFFCURVE",
"336 256 OFFCURVE",
"342 274 CURVE",
"359 292 OFFCURVE",
"376 305 OFFCURVE",
"384 307 CURVE",
"389 307 OFFCURVE",
"397 309 OFFCURVE",
"404 311 CURVE SMOOTH",
"410 313 OFFCURVE",
"418 315 OFFCURVE",
"422 315 CURVE SMOOTH",
"423 315 LINE",
"441 313 OFFCURVE",
"460 309 OFFCURVE",
"470 304 CURVE SMOOTH",
"485 298 OFFCURVE",
"497 288 OFFCURVE",
"502 280 CURVE",
"506 274 LINE",
"515 256 OFFCURVE",
"523 229 OFFCURVE",
"526 207 CURVE",
"526 209 OFFCURVE",
"528 196 OFFCURVE",
"530 176 CURVE SMOOTH",
"531 162 OFFCURVE",
"532 148 OFFCURVE",
"532 141 CURVE SMOOTH",
"532 136 OFFCURVE",
"532 129 OFFCURVE",
"532 120 CURVE",
"531 116 OFFCURVE",
"531 109 OFFCURVE",
"531 102 CURVE SMOOTH",
"531 86 OFFCURVE",
"534 69 OFFCURVE",
"538 59 CURVE",
"541 54 OFFCURVE",
"547 51 OFFCURVE",
"554 50 CURVE",
"555 50 OFFCURVE",
"556 50 OFFCURVE",
"557 50 CURVE",
"558 49 OFFCURVE",
"559 49 OFFCURVE",
"561 49 CURVE SMOOTH",
"566 49 OFFCURVE",
"571 54 OFFCURVE",
"574 61 CURVE",
"578 69 OFFCURVE",
"583 91 OFFCURVE",
"587 117 CURVE",
"590 141 OFFCURVE",
"597 167 OFFCURVE",
"605 182 CURVE SMOOTH",
"612 195 OFFCURVE",
"626 209 OFFCURVE",
"640 217 CURVE",
"648 221 OFFCURVE",
"662 224 OFFCURVE",
"676 225 CURVE",
"679 225 LINE",
"679 225 OFFCURVE",
"679 225 OFFCURVE",
"680 225 CURVE SMOOTH",
"681 225 OFFCURVE",
"681 225 OFFCURVE",
"681 225 CURVE",
"701 225 OFFCURVE",
"727 211 OFFCURVE",
"745 189 CURVE",
"754 177 OFFCURVE",
"763 154 OFFCURVE",
"767 132 CURVE SMOOTH",
"765 139 OFFCURVE",
"767 131 OFFCURVE",
"772 111 CURVE",
"772 111 OFFCURVE",
"775 101 OFFCURVE",
"784 -2 CURVE",
"785 -28 OFFCURVE",
"786 -53 OFFCURVE",
"786 -63 CURVE SMOOTH",
"785 -73 OFFCURVE",
"786 -91 OFFCURVE",
"786 -108 CURVE",
"784 -197 OFFCURVE",
"784 -203 OFFCURVE",
"785 -196 CURVE SMOOTH",
"784 -198 OFFCURVE",
"784 -204 OFFCURVE",
"785 -212 CURVE SMOOTH",
"785 -225 LINE",
"784 -237 OFFCURVE",
"779 -245 OFFCURVE",
"772 -246 CURVE",
"771 -247 LINE",
"760 -248 OFFCURVE",
"753 -239 OFFCURVE",
"751 -225 CURVE SMOOTH",
"746 -182 OFFCURVE",
"740 -39 OFFCURVE",
"738 -2 CURVE",
"725 93 LINE",
"727 84 OFFCURVE",
"724 94 OFFCURVE",
"717 125 CURVE SMOOTH",
"714 140 OFFCURVE",
"708 154 OFFCURVE",
"704 159 CURVE",
"700 169 OFFCURVE",
"691 175 OFFCURVE",
"682 175 CURVE SMOOTH",
"681 175 OFFCURVE",
"681 175 OFFCURVE",
"680 175 CURVE SMOOTH",
"679 175 OFFCURVE",
"679 175 OFFCURVE",
"679 175 CURVE SMOOTH",
"678 175 LINE SMOOTH",
"674 175 OFFCURVE",
"667 174 OFFCURVE",
"662 172 CURVE",
"656 168 OFFCURVE",
"651 163 OFFCURVE",
"649 158 CURVE",
"643 147 OFFCURVE",
"638 125 OFFCURVE",
"636 103 CURVE SMOOTH",
"630 41 OFFCURVE",
"600 0 OFFCURVE",
"561 0 CURVE SMOOTH",
"549 0 LINE",
"508 5 OFFCURVE",
"481 46 OFFCURVE",
"481 102 CURVE SMOOTH",
"481 110 OFFCURVE",
"481 118 OFFCURVE",
"482 122 CURVE",
"482 131 OFFCURVE",
"482 137 OFFCURVE",
"482 141 CURVE SMOOTH",
"482 148 OFFCURVE",
"481 158 OFFCURVE",
"480 168 CURVE",
"473 234 LINE",
"463 252 OFFCURVE",
"456 262 OFFCURVE",
"456 261 CURVE SMOOTH",
"455 261 OFFCURVE",
"454 262 OFFCURVE",
"453 263 CURVE",
"448 266 OFFCURVE",
"445 267 OFFCURVE",
"445 267 CURVE",
"443 268 OFFCURVE",
"436 268 OFFCURVE",
"428 268 CURVE SMOOTH",
"424 268 OFFCURVE",
"418 266 OFFCURVE",
"413 264 CURVE",
"407 262 OFFCURVE",
"402 260 OFFCURVE",
"399 260 CURVE",
"385 246 LINE",
"382 221 LINE",
"382 207 LINE SMOOTH",
"382 202 OFFCURVE",
"381 189 OFFCURVE",
"380 176 CURVE",
"379 169 OFFCURVE",
"377 149 OFFCURVE",
"376 126 CURVE SMOOTH",
"375 86 OFFCURVE",
"366 40 OFFCURVE",
"354 12 CURVE SMOOTH",
"343 -13 OFFCURVE",
"316 -30 OFFCURVE",
"287 -30 CURVE SMOOTH",
"290 -30 OFFCURVE",
"282 -29 OFFCURVE",
"268 -28 CURVE",
"219 -17 OFFCURVE",
"187 40 OFFCURVE",
"187 114 CURVE SMOOTH",
"187 128 OFFCURVE",
"187 142 OFFCURVE",
"188 148 CURVE SMOOTH",
"189 154 OFFCURVE",
"189 168 OFFCURVE",
"189 184 CURVE SMOOTH",
"189 188 LINE",
"189 189 LINE SMOOTH",
"189 196 OFFCURVE",
"193 214 OFFCURVE",
"194 233 CURVE SMOOTH",
"196 296 OFFCURVE",
"198 311 OFFCURVE",
"198 320 CURVE SMOOTH",
"198 334 OFFCURVE",
"190 344 OFFCURVE",
"178 347 CURVE",
"152 339 OFFCURVE",
"126 333 OFFCURVE",
"113 333 CURVE SMOOTH",
"111 333 LINE SMOOTH",
"84 333 OFFCURVE",
"59 343 OFFCURVE",
"47 357 CURVE",
"43 361 OFFCURVE",
"40 369 OFFCURVE",
"40 376 CURVE SMOOTH",
"40 407 OFFCURVE",
"71 427 OFFCURVE",
"117 427 CURVE SMOOTH",
"134 427 OFFCURVE",
"151 424 OFFCURVE",
"159 420 CURVE",
"162 419 OFFCURVE",
"171 414 OFFCURVE",
"183 406 CURVE",
"158 425 OFFCURVE",
"165 421 OFFCURVE",
"203 392 CURVE",
"204 392 OFFCURVE",
"211 388 OFFCURVE",
"220 382 CURVE",
"232 376 OFFCURVE",
"241 363 OFFCURVE",
"244 351 CURVE"
);
},
{
closed = 1;
nodes = (
"117 397 LINE SMOOTH",
"101 397 OFFCURVE",
"85 392 OFFCURVE",
"75 384 CURVE",
"72 381 OFFCURVE",
"70 378 OFFCURVE",
"70 376 CURVE",
"76 368 OFFCURVE",
"93 363 OFFCURVE",
"112 363 CURVE SMOOTH",
"113 363 LINE SMOOTH",
"124 363 OFFCURVE",
"143 367 OFFCURVE",
"161 373 CURVE SMOOTH",
"164 374 OFFCURVE",
"166 376 OFFCURVE",
"166 378 CURVE SMOOTH",
"166 377 OFFCURVE",
"165 379 OFFCURVE",
"164 383 CURVE",
"152 390 OFFCURVE",
"140 396 OFFCURVE",
"132 397 CURVE"
);
}
);
width = 826;
}
);
unicode = 0634;
},
{
glyphname = "tah-ar";
lastChange = "2013-06-18 11:27:51 +0330";
layers = (
{
layerId = "3D323242-F336-407C-B164-DE86AA499667";
name = "Regular";
paths = (
{
closed = 1;
nodes = (
"84 163 LINE",
"84 1 LINE",
"794 1 LINE",
"794 163 LINE"
);
},
{
closed = 1;
nodes = (
"816 207 LINE SMOOTH",
"830 207 OFFCURVE",
"838 199 OFFCURVE",
"838 185 CURVE SMOOTH",
"838 -21 LINE SMOOTH",
"838 -35 OFFCURVE",
"830 -43 OFFCURVE",
"816 -43 CURVE SMOOTH",
"62 -43 LINE SMOOTH",
"48 -43 OFFCURVE",
"40 -35 OFFCURVE",
"40 -21 CURVE SMOOTH",
"40 185 LINE SMOOTH",
"40 199 OFFCURVE",
"48 207 OFFCURVE",
"62 207 CURVE SMOOTH",
"290 207 LINE",
"291 208 OFFCURVE",
"291 208 OFFCURVE",
"291 208 CURVE",
"291 209 OFFCURVE",
"291 210 OFFCURVE",
"292 210 CURVE",
"622 694 LINE",
"668 665 LINE",
"668 664 LINE",
"357 207 LINE"
);
}
);
width = 878;
}
);
unicode = 0637;
},
{
glyphname = "tcheh-ar";
lastChange = "2013-06-18 11:22:00 +0330";
layers = (
{
layerId = "3D323242-F336-407C-B164-DE86AA499667";
name = "Regular";
paths = (
{
closed = 1;
nodes = (
"293 -223 LINE",
"294 -153 LINE",
"295 -101 LINE",
"297 -32 LINE",
"311 333 LINE",
"311 336 LINE",
"311 397 OFFCURVE",
"286 441 OFFCURVE",
"232 447 CURVE",
"180 447 OFFCURVE",
"136 435 OFFCURVE",
"99 407 CURVE SMOOTH",
"64 382 OFFCURVE",
"50 392 OFFCURVE",
"50 410 CURVE",
"50 442 OFFCURVE",
"146 503 OFFCURVE",
"219 503 CURVE SMOOTH",
"279 503 OFFCURVE",
"374 456 OFFCURVE",
"374 336 CURVE SMOOTH",
"374 333 LINE",
"350 -30 LINE",
"347 -99 LINE",
"345 -150 LINE",
"343 -221 LINE",
"341 -309 LINE SMOOTH",
"341 -322 OFFCURVE",
"329 -334 OFFCURVE",
"316 -334 CURVE SMOOTH",
"303 -334 OFFCURVE",
"291 -322 OFFCURVE",
"291 -309 CURVE"
);
},
{
closed = 1;
nodes = (
"348 -84 OFFCURVE",
"391 -42 OFFCURVE",
"455 -35 CURVE",
"481 -34 OFFCURVE",
"492 -38 OFFCURVE",
"508 -48 CURVE SMOOTH",
"522 -57 OFFCURVE",
"533 -55 OFFCURVE",
"537 -47 CURVE",
"542 -32 OFFCURVE",
"522 4 OFFCURVE",
"464 4 CURVE",
"464 4 OFFCURVE",
"464 4 OFFCURVE",
"463 4 CURVE SMOOTH",
"462 4 OFFCURVE",
"462 4 OFFCURVE",
"462 4 CURVE",
"458 4 LINE",
"420 2 OFFCURVE",
"350 -30 OFFCURVE",
"350 -30 CURVE",
"347 -99 LINE SMOOTH"
);
},
{
closed = 1;
nodes = (
"297 -32 LINE SMOOTH",
"297 -32 OFFCURVE",
"221 -1 OFFCURVE",
"183 1 CURVE",
"179 1 LINE",
"179 1 OFFCURVE",
"179 1 OFFCURVE",
"178 1 CURVE SMOOTH",
"177 1 OFFCURVE",
"177 1 OFFCURVE",
"177 1 CURVE",
"119 1 OFFCURVE",
"99 -35 OFFCURVE",
"104 -50 CURVE",
"108 -58 OFFCURVE",
"119 -60 OFFCURVE",
"133 -51 CURVE SMOOTH",
"149 -41 OFFCURVE",
"160 -37 OFFCURVE",
"186 -38 CURVE",
"250 -45 OFFCURVE",
"295 -86 OFFCURVE",
"295 -101 CURVE SMOOTH"
);
},
{
closed = 1;
nodes = (
"343 -216 OFFCURVE",
"388 -162 OFFCURVE",
"452 -155 CURVE",
"478 -154 OFFCURVE",
"489 -158 OFFCURVE",
"505 -168 CURVE SMOOTH",
"519 -177 OFFCURVE",
"530 -175 OFFCURVE",
"534 -167 CURVE",
"539 -152 OFFCURVE",
"519 -116 OFFCURVE",
"461 -116 CURVE",
"461 -116 OFFCURVE",
"461 -116 OFFCURVE",
"460 -116 CURVE SMOOTH",
"459 -116 OFFCURVE",
"459 -116 OFFCURVE",
"459 -116 CURVE",
"455 -116 LINE",
"417 -118 OFFCURVE",
"345 -150 OFFCURVE",
"345 -150 CURVE",
"343 -221 LINE SMOOTH"
);
},
{
closed = 1;
nodes = (
"294 -153 LINE SMOOTH",
"294 -153 OFFCURVE",
"218 -121 OFFCURVE",
"180 -119 CURVE",
"176 -119 LINE",
"176 -119 OFFCURVE",
"176 -119 OFFCURVE",
"175 -119 CURVE SMOOTH",
"174 -119 OFFCURVE",
"174 -119 OFFCURVE",
"174 -119 CURVE",
"116 -119 OFFCURVE",
"96 -155 OFFCURVE",
"101 -170 CURVE",
"105 -178 OFFCURVE",
"116 -180 OFFCURVE",
"130 -171 CURVE SMOOTH",
"146 -161 OFFCURVE",
"157 -157 OFFCURVE",
"183 -158 CURVE",
"247 -165 OFFCURVE",
"286 -213 OFFCURVE",
"293 -223 CURVE"
);
}
);
width = 588;
}
);
unicode = 0686;
},
{
glyphname = "teh-ar";
lastChange = "2013-06-18 11:14:26 +0330";
layers = (
{
layerId = "3D323242-F336-407C-B164-DE86AA499667";
name = "Regular";
paths = (
{
closed = 1;
nodes = (
"433 60 OFFCURVE",
"412 43 OFFCURVE",
"412 22 CURVE SMOOTH",
"412 -1 OFFCURVE",
"433 -20 OFFCURVE",
"458 -20 CURVE SMOOTH",
"481 -20 OFFCURVE",
"499 0 OFFCURVE",
"499 24 CURVE SMOOTH",
"499 43 OFFCURVE",
"481 60 OFFCURVE",
"458 60 CURVE SMOOTH"
);
},
{
closed = 1;
nodes = (
"559 58 OFFCURVE",
"541 42 OFFCURVE",
"541 22 CURVE SMOOTH",
"541 -2 OFFCURVE",
"559 -22 OFFCURVE",
"582 -22 CURVE SMOOTH",
"607 -22 OFFCURVE",
"628 -3 OFFCURVE",
"628 20 CURVE",
"627 36 OFFCURVE",
"627 42 OFFCURVE",
"613 51 CURVE",
"606 55 OFFCURVE",
"595 57 OFFCURVE",
"582 58 CURVE"
);
},
{
closed = 1;
nodes = (
"503 -50 OFFCURVE",
"483 -60 OFFCURVE",
"458 -60 CURVE SMOOTH",
"419 -60 OFFCURVE",
"384 -35 OFFCURVE",
"375 1 CURVE",
"65 1 LINE SMOOTH",
"52 1 OFFCURVE",
"40 14 OFFCURVE",
"40 27 CURVE SMOOTH",
"40 40 OFFCURVE",
"52 51 OFFCURVE",
"65 51 CURVE SMOOTH",
"378 51 LINE",
"390 82 OFFCURVE",
"423 100 OFFCURVE",
"458 100 CURVE SMOOTH",
"483 100 OFFCURVE",
"504 91 OFFCURVE",
"521 72 CURVE",
"537 89 OFFCURVE",
"557 98 OFFCURVE",
"582 98 CURVE SMOOTH",
"617 98 OFFCURVE",
"650 79 OFFCURVE",
"662 50 CURVE",
"972 50 LINE SMOOTH",
"985 50 OFFCURVE",
"997 38 OFFCURVE",
"997 25 CURVE SMOOTH",
"997 12 OFFCURVE",
"985 0 OFFCURVE",
"972 0 CURVE SMOOTH",
"665 0 LINE",
"656 -36 OFFCURVE",
"621 -62 OFFCURVE",
"582 -62 CURVE SMOOTH",
"557 -62 OFFCURVE",
"536 -52 OFFCURVE",
"519 -31 CURVE"
);
}
);
width = 1037;
}
);
unicode = 062A;
},
{
glyphname = "tehMarbuta-ar";
lastChange = "2013-06-18 11:14:40 +0330";
layers = (
{
layerId = "3D323242-F336-407C-B164-DE86AA499667";
name = "Regular";
paths = (
{
closed = 1;
nodes = (
"433 60 OFFCURVE",
"412 43 OFFCURVE",
"412 22 CURVE SMOOTH",
"412 -1 OFFCURVE",
"433 -20 OFFCURVE",
"458 -20 CURVE SMOOTH",
"481 -20 OFFCURVE",
"499 0 OFFCURVE",
"499 24 CURVE SMOOTH",
"499 43 OFFCURVE",
"481 60 OFFCURVE",
"458 60 CURVE SMOOTH"
);
},
{
closed = 1;
nodes = (
"559 58 OFFCURVE",
"541 42 OFFCURVE",
"541 22 CURVE SMOOTH",
"541 -2 OFFCURVE",
"559 -22 OFFCURVE",
"582 -22 CURVE SMOOTH",
"607 -22 OFFCURVE",
"628 -3 OFFCURVE",
"628 20 CURVE",
"627 36 OFFCURVE",
"627 42 OFFCURVE",
"613 51 CURVE",
"606 55 OFFCURVE",
"595 57 OFFCURVE",
"582 58 CURVE"
);
},
{
closed = 1;
nodes = (
"503 -50 OFFCURVE",
"483 -60 OFFCURVE",
"458 -60 CURVE SMOOTH",
"419 -60 OFFCURVE",
"384 -35 OFFCURVE",
"375 1 CURVE",
"65 1 LINE SMOOTH",
"52 1 OFFCURVE",
"40 14 OFFCURVE",
"40 27 CURVE SMOOTH",
"40 40 OFFCURVE",
"52 51 OFFCURVE",
"65 51 CURVE SMOOTH",
"378 51 LINE",
"390 82 OFFCURVE",
"423 100 OFFCURVE",
"458 100 CURVE SMOOTH",
"483 100 OFFCURVE",
"504 91 OFFCURVE",
"521 72 CURVE",
"537 89 OFFCURVE",
"557 98 OFFCURVE",
"582 98 CURVE SMOOTH",
"617 98 OFFCURVE",
"650 79 OFFCURVE",
"662 50 CURVE",
"972 50 LINE SMOOTH",
"985 50 OFFCURVE",
"997 38 OFFCURVE",
"997 25 CURVE SMOOTH",
"997 12 OFFCURVE",
"985 0 OFFCURVE",
"972 0 CURVE SMOOTH",
"665 0 LINE",
"656 -36 OFFCURVE",
"621 -62 OFFCURVE",
"582 -62 CURVE SMOOTH",
"557 -62 OFFCURVE",
"536 -52 OFFCURVE",
"519 -31 CURVE"
);
}
);
width = 1037;
}
);
unicode = 0629;
},
{
glyphname = "thal-ar";
lastChange = "2013-06-18 11:22:36 +0330";
layers = (
{
layerId = "3D323242-F336-407C-B164-DE86AA499667";
name = "Regular";
paths = (
{
closed = 1;
nodes = (
"322 155 OFFCURVE",
"323 156 OFFCURVE",
"326 158 CURVE",
"327 162 OFFCURVE",
"330 163 OFFCURVE",
"330 166 CURVE",
"532 416 LINE",
"535 417 OFFCURVE",
"537 418 OFFCURVE",
"542 418 CURVE SMOOTH",
"545 418 OFFCURVE",
"548 417 OFFCURVE",
"548 416 CURVE",
"596 378 LINE SMOOTH",
"600 375 OFFCURVE",
"602 371 OFFCURVE",
"602 368 CURVE SMOOTH",
"602 366 OFFCURVE",
"601 363 OFFCURVE",
"598 360 CURVE",
"486 220 LINE",
"526 189 LINE SMOOTH",
"528 186 OFFCURVE",
"529 182 OFFCURVE",
"529 181 CURVE SMOOTH",
"529 177 OFFCURVE",
"528 174 OFFCURVE",
"527 171 CURVE",
"332 -67 LINE",
"329 -73 OFFCURVE",
"326 -75 OFFCURVE",
"323 -75 CURVE SMOOTH",
"317 -75 OFFCURVE",
"313 -73 OFFCURVE",
"311 -68 CURVE",
"115 171 LINE",
"114 174 OFFCURVE",
"113 177 OFFCURVE",
"113 181 CURVE SMOOTH",
"113 182 OFFCURVE",
"114 186 OFFCURVE",
"116 189 CURVE SMOOTH",
"156 220 LINE",
"44 360 LINE",
"41 363 OFFCURVE",
"40 366 OFFCURVE",
"40 368 CURVE SMOOTH",
"40 371 OFFCURVE",
"42 375 OFFCURVE",
"46 378 CURVE SMOOTH",
"94 416 LINE",
"94 417 OFFCURVE",
"97 418 OFFCURVE",
"100 418 CURVE SMOOTH",
"105 418 OFFCURVE",
"107 417 OFFCURVE",
"110 416 CURVE",
"312 163 LINE",
"321 155 LINE"
);
},
{
closed = 1;
nodes = (
"316 -39 OFFCURVE",
"318 -41 OFFCURVE",
"321 -41 CURVE SMOOTH",
"324 -41 OFFCURVE",
"326 -39 OFFCURVE",
"329 -34 CURVE",
"500 178 LINE",
"471 200 LINE",
"330 26 LINE",
"326 20 OFFCURVE",
"323 17 OFFCURVE",
"322 17 CURVE SMOOTH",
"321 17 OFFCURVE",
"316 18 OFFCURVE",
"312 25 CURVE",
"171 200 LINE",
"142 178 LINE",
"314 -35 LINE"
);
},
{
closed = 1;
nodes = (
"316 59 OFFCURVE",
"320 57 OFFCURVE",
"321 57 CURVE",
"330 67 LINE",
"572 366 LINE",
"544 388 LINE",
"330 127 LINE",
"326 120 OFFCURVE",
"322 117 OFFCURVE",
"321 117 CURVE SMOOTH",
"320 117 OFFCURVE",
"315 121 OFFCURVE",
"312 125 CURVE",
"98 388 LINE",
"70 366 LINE",
"312 67 LINE SMOOTH"
);
}
);
width = 642;
}
);
unicode = 0630;
},
{
glyphname = "theh-ar";
lastChange = "2013-06-18 11:19:43 +0330";
layers = (
{
layerId = "3D323242-F336-407C-B164-DE86AA499667";
name = "Regular";
paths = (
{
closed = 1;
nodes = (
"57 246 OFFCURVE",
"59 250 OFFCURVE",
"63 253 CURVE",
"67 256 OFFCURVE",
"70 257 OFFCURVE",
"74 257 CURVE SMOOTH",
"76 257 OFFCURVE",
"77 257 OFFCURVE",
"78 257 CURVE",
"79 256 OFFCURVE",
"80 256 OFFCURVE",
"81 256 CURVE",
"100 250 OFFCURVE",
"122 241 OFFCURVE",
"147 230 CURVE SMOOTH",
"200 208 OFFCURVE",
"238 185 OFFCURVE",
"285 185 CURVE SMOOTH",
"288 185 LINE SMOOTH",
"300 185 OFFCURVE",
"313 204 OFFCURVE",
"330 222 CURVE SMOOTH",
"345 239 OFFCURVE",
"360 252 OFFCURVE",
"376 259 CURVE SMOOTH",
"422 278 OFFCURVE",
"467 288 OFFCURVE",
"510 288 CURVE SMOOTH",
"553 288 OFFCURVE",
"598 278 OFFCURVE",
"644 259 CURVE SMOOTH",
"660 252 OFFCURVE",
"675 239 OFFCURVE",
"691 222 CURVE SMOOTH",
"707 204 OFFCURVE",
"719 183 OFFCURVE",
"731 183 CURVE SMOOTH",
"735 183 LINE SMOOTH",
"782 183 OFFCURVE",
"820 208 OFFCURVE",
"873 230 CURVE SMOOTH",
"898 241 OFFCURVE",
"920 250 OFFCURVE",
"939 256 CURVE",
"940 256 OFFCURVE",
"941 256 OFFCURVE",
"942 257 CURVE",
"943 257 OFFCURVE",
"944 257 OFFCURVE",
"946 257 CURVE SMOOTH",
"954 257 OFFCURVE",
"961 252 OFFCURVE",
"963 239 CURVE",
"964 237 OFFCURVE",
"966 231 OFFCURVE",
"970 220 CURVE SMOOTH",
"976 201 OFFCURVE",
"980 178 OFFCURVE",
"980 149 CURVE SMOOTH",
"980 116 OFFCURVE",
"975 79 OFFCURVE",
"963 35 CURVE SMOOTH",
"961 23 OFFCURVE",
"954 17 OFFCURVE",
"946 17 CURVE SMOOTH",
"944 17 OFFCURVE",
"943 17 OFFCURVE",
"942 18 CURVE",
"941 18 OFFCURVE",
"940 18 OFFCURVE",
"939 18 CURVE",
"920 24 OFFCURVE",
"898 32 OFFCURVE",
"873 43 CURVE SMOOTH",
"820 67 OFFCURVE",
"782 89 OFFCURVE",
"735 89 CURVE SMOOTH",
"731 89 LINE SMOOTH",
"719 89 OFFCURVE",
"707 70 OFFCURVE",
"690 52 CURVE SMOOTH",
"675 35 OFFCURVE",
"660 23 OFFCURVE",
"644 16 CURVE SMOOTH",
"600 -3 OFFCURVE",
"554 -12 OFFCURVE",
"508 -12 CURVE SMOOTH",
"463 -12 OFFCURVE",
"420 -3 OFFCURVE",
"376 16 CURVE SMOOTH",
"360 23 OFFCURVE",
"345 35 OFFCURVE",
"330 52 CURVE SMOOTH",
"313 70 OFFCURVE",
"301 91 OFFCURVE",
"289 91 CURVE SMOOTH",
"285 91 LINE SMOOTH",
"238 91 OFFCURVE",
"200 67 OFFCURVE",
"147 43 CURVE SMOOTH",
"122 32 OFFCURVE",
"100 24 OFFCURVE",
"81 18 CURVE",
"80 18 OFFCURVE",
"79 18 OFFCURVE",
"78 18 CURVE",
"77 17 OFFCURVE",
"76 17 OFFCURVE",
"74 17 CURVE SMOOTH",
"66 17 OFFCURVE",
"59 23 OFFCURVE",
"57 35 CURVE SMOOTH",
"45 79 OFFCURVE",
"40 116 OFFCURVE",
"40 149 CURVE SMOOTH",
"40 178 OFFCURVE",
"45 201 OFFCURVE",
"51 220 CURVE SMOOTH",
"55 231 OFFCURVE",
"56 237 OFFCURVE",
"57 239 CURVE"
);
},
{
closed = 1;
nodes = (
"381 219 OFFCURVE",
"373 212 OFFCURVE",
"362 201 CURVE SMOOTH",
"342 178 OFFCURVE",
"321 148 OFFCURVE",
"289 148 CURVE SMOOTH",
"285 148 LINE SMOOTH",
"236 148 OFFCURVE",
"202 167 OFFCURVE",
"146 190 CURVE SMOOTH",
"120 202 OFFCURVE",
"101 209 OFFCURVE",
"89 213 CURVE",
"81 180 OFFCURVE",
"80 154 OFFCURVE",
"80 138 CURVE SMOOTH",
"80 120 OFFCURVE",
"81 94 OFFCURVE",
"89 61 CURVE",
"101 64 OFFCURVE",
"120 72 OFFCURVE",
"146 85 CURVE SMOOTH",
"202 107 OFFCURVE",
"236 128 OFFCURVE",
"285 128 CURVE SMOOTH",
"289 128 LINE SMOOTH",
"314 128 OFFCURVE",
"335 105 OFFCURVE",
"346 89 CURVE SMOOTH",
"358 75 OFFCURVE",
"375 58 OFFCURVE",
"390 50 CURVE SMOOTH",
"433 34 OFFCURVE",
"473 25 OFFCURVE",
"509 25 CURVE SMOOTH",
"547 25 OFFCURVE",
"588 34 OFFCURVE",
"630 50 CURVE SMOOTH",
"639 54 OFFCURVE",
"647 62 OFFCURVE",
"658 73 CURVE",
"677 96 OFFCURVE",
"698 127 OFFCURVE",
"731 127 CURVE SMOOTH",
"735 127 LINE SMOOTH",
"784 127 OFFCURVE",
"818 107 OFFCURVE",
"874 85 CURVE SMOOTH",
"900 72 OFFCURVE",
"919 64 OFFCURVE",
"931 61 CURVE",
"939 94 OFFCURVE",
"940 120 OFFCURVE",
"940 138 CURVE SMOOTH",
"940 154 OFFCURVE",
"939 180 OFFCURVE",
"931 213 CURVE",
"919 209 OFFCURVE",
"900 202 OFFCURVE",
"874 190 CURVE SMOOTH",
"818 167 OFFCURVE",
"784 146 OFFCURVE",
"735 146 CURVE SMOOTH",
"731 146 LINE SMOOTH",
"699 146 OFFCURVE",
"678 178 OFFCURVE",
"658 201 CURVE SMOOTH",
"647 212 OFFCURVE",
"639 219 OFFCURVE",
"630 224 CURVE SMOOTH",
"588 240 OFFCURVE",
"548 249 OFFCURVE",
"510 249 CURVE SMOOTH",
"472 249 OFFCURVE",
"432 240 OFFCURVE",
"390 224 CURVE SMOOTH"
);
}
);
width = 1020;
}
);
unicode = 062B;
},
{
glyphname = "waw-ar";
lastChange = "2013-06-18 11:29:16 +0330";
layers = (
{
layerId = "3D323242-F336-407C-B164-DE86AA499667";
name = "Regular";
paths = (
{
closed = 1;
nodes = (
"153 -11 OFFCURVE",
"121 39 OFFCURVE",
"95 83 CURVE SMOOTH",
"66 128 OFFCURVE",
"44 189 OFFCURVE",
"44 240 CURVE SMOOTH",
"44 309 OFFCURVE",
"77 362 OFFCURVE",
"124 381 CURVE SMOOTH",
"146 394 OFFCURVE",
"170 397 OFFCURVE",
"197 397 CURVE SMOOTH",
"250 397 OFFCURVE",
"299 377 OFFCURVE",
"326 337 CURVE SMOOTH",
"342 305 OFFCURVE",
"350 276 OFFCURVE",
"350 240 CURVE SMOOTH",
"350 189 OFFCURVE",
"329 128 OFFCURVE",
"299 83 CURVE SMOOTH",
"273 39 OFFCURVE",
"241 -11 OFFCURVE",
"222 -36 CURVE",
"238 -59 OFFCURVE",
"261 -88 OFFCURVE",
"290 -122 CURVE SMOOTH",
"319 -158 OFFCURVE",
"340 -179 OFFCURVE",
"350 -191 CURVE",
"354 -196 OFFCURVE",
"354 -201 OFFCURVE",
"354 -206 CURVE SMOOTH",
"354 -219 OFFCURVE",
"344 -223 OFFCURVE",
"332 -223 CURVE SMOOTH",
"327 -223 OFFCURVE",
"320 -221 OFFCURVE",
"318 -219 CURVE",
"311 -208 OFFCURVE",
"294 -189 OFFCURVE",
"265 -153 CURVE SMOOTH",
"235 -121 OFFCURVE",
"211 -94 OFFCURVE",
"197 -72 CURVE",
"183 -94 OFFCURVE",
"159 -121 OFFCURVE",
"129 -153 CURVE SMOOTH",
"100 -189 OFFCURVE",
"83 -208 OFFCURVE",
"76 -219 CURVE",
"74 -221 OFFCURVE",
"67 -223 OFFCURVE",
"62 -223 CURVE SMOOTH",
"50 -223 OFFCURVE",
"40 -219 OFFCURVE",
"40 -206 CURVE SMOOTH",
"40 -201 OFFCURVE",
"40 -196 OFFCURVE",
"44 -191 CURVE",
"54 -179 OFFCURVE",
"75 -158 OFFCURVE",
"104 -122 CURVE SMOOTH",
"133 -88 OFFCURVE",
"156 -59 OFFCURVE",
"172 -36 CURVE"
);
},
{
closed = 1;
nodes = (
"272 341 OFFCURVE",
"241 359 OFFCURVE",
"197 359 CURVE SMOOTH",
"108 359 OFFCURVE",
"85 295 OFFCURVE",
"85 240 CURVE SMOOTH",
"85 212 OFFCURVE",
"93 180 OFFCURVE",
"104 155 CURVE SMOOTH",
"113 127 OFFCURVE",
"129 101 OFFCURVE",
"148 73 CURVE SMOOTH",
"162 46 OFFCURVE",
"183 19 OFFCURVE",
"197 -2 CURVE",
"211 19 OFFCURVE",
"232 46 OFFCURVE",
"246 73 CURVE SMOOTH",
"265 101 OFFCURVE",
"281 127 OFFCURVE",
"290 155 CURVE SMOOTH",
"301 180 OFFCURVE",
"309 212 OFFCURVE",
"309 240 CURVE SMOOTH",
"309 268 OFFCURVE",
"303 292 OFFCURVE",
"290 314 CURVE"
);
}
);
width = 394;
}
);
unicode = 0648;
},
{
glyphname = "wawHamzaabove-ar";
lastChange = "2013-06-18 11:28:35 +0330";
layers = (
{
layerId = "3D323242-F336-407C-B164-DE86AA499667";
name = "Regular";
paths = (
{
closed = 1;
nodes = (
"153 -11 OFFCURVE",
"121 39 OFFCURVE",
"95 83 CURVE SMOOTH",
"66 128 OFFCURVE",
"44 189 OFFCURVE",
"44 240 CURVE SMOOTH",
"44 309 OFFCURVE",
"77 362 OFFCURVE",
"124 381 CURVE SMOOTH",
"146 394 OFFCURVE",
"170 397 OFFCURVE",
"197 397 CURVE SMOOTH",
"250 397 OFFCURVE",
"299 377 OFFCURVE",
"326 337 CURVE SMOOTH",
"342 305 OFFCURVE",
"350 276 OFFCURVE",
"350 240 CURVE SMOOTH",
"350 189 OFFCURVE",
"329 128 OFFCURVE",
"299 83 CURVE SMOOTH",
"273 39 OFFCURVE",
"241 -11 OFFCURVE",
"222 -36 CURVE",
"238 -59 OFFCURVE",
"261 -88 OFFCURVE",
"290 -122 CURVE SMOOTH",
"319 -158 OFFCURVE",
"340 -179 OFFCURVE",
"350 -191 CURVE",
"354 -196 OFFCURVE",
"354 -201 OFFCURVE",
"354 -206 CURVE SMOOTH",
"354 -219 OFFCURVE",
"344 -223 OFFCURVE",
"332 -223 CURVE SMOOTH",
"327 -223 OFFCURVE",
"320 -221 OFFCURVE",
"318 -219 CURVE",
"311 -208 OFFCURVE",
"294 -189 OFFCURVE",
"265 -153 CURVE SMOOTH",
"235 -121 OFFCURVE",
"211 -94 OFFCURVE",
"197 -72 CURVE",
"183 -94 OFFCURVE",
"159 -121 OFFCURVE",
"129 -153 CURVE SMOOTH",
"100 -189 OFFCURVE",
"83 -208 OFFCURVE",
"76 -219 CURVE",
"74 -221 OFFCURVE",
"67 -223 OFFCURVE",
"62 -223 CURVE SMOOTH",
"50 -223 OFFCURVE",
"40 -219 OFFCURVE",
"40 -206 CURVE SMOOTH",
"40 -201 OFFCURVE",
"40 -196 OFFCURVE",
"44 -191 CURVE",
"54 -179 OFFCURVE",
"75 -158 OFFCURVE",
"104 -122 CURVE SMOOTH",
"133 -88 OFFCURVE",
"156 -59 OFFCURVE",
"172 -36 CURVE"
);
},
{
closed = 1;
nodes = (
"272 341 OFFCURVE",
"241 359 OFFCURVE",
"197 359 CURVE SMOOTH",
"108 359 OFFCURVE",
"85 295 OFFCURVE",
"85 240 CURVE SMOOTH",
"85 212 OFFCURVE",
"93 180 OFFCURVE",
"104 155 CURVE SMOOTH",
"113 127 OFFCURVE",
"129 101 OFFCURVE",
"148 73 CURVE SMOOTH",
"162 46 OFFCURVE",
"183 19 OFFCURVE",
"197 -2 CURVE",
"211 19 OFFCURVE",
"232 46 OFFCURVE",
"246 73 CURVE SMOOTH",
"265 101 OFFCURVE",
"281 127 OFFCURVE",
"290 155 CURVE SMOOTH",
"301 180 OFFCURVE",
"309 212 OFFCURVE",
"309 240 CURVE SMOOTH",
"309 268 OFFCURVE",
"303 292 OFFCURVE",
"290 314 CURVE"
);
}
);
width = 394;
}
);
unicode = 0624;
},
{
glyphname = "yeh-ar";
lastChange = "2013-06-18 11:30:59 +0330";
layers = (
{
layerId = "3D323242-F336-407C-B164-DE86AA499667";
name = "Regular";
paths = (
{
closed = 1;
nodes = (
"528 296 OFFCURVE",
"523 296 OFFCURVE",
"519 298 CURVE",
"90 298 LINE",
"217 0 LINE",
"416 0 LINE",
"542 298 LINE",
"533 298 LINE"
);
},
{
closed = 1;
nodes = (
"669 476 LINE SMOOTH",
"672 479 OFFCURVE",
"676 481 OFFCURVE",
"681 481 CURVE SMOOTH",
"690 481 OFFCURVE",
"699 472 OFFCURVE",
"699 463 CURVE SMOOTH",
"699 458 OFFCURVE",
"697 454 OFFCURVE",
"693 451 CURVE",
"576 338 LINE",
"581 337 OFFCURVE",
"586 335 OFFCURVE",
"589 330 CURVE",
"589 329 OFFCURVE",
"589 329 OFFCURVE",
"590 329 CURVE",
"775 416 LINE",
"779 417 OFFCURVE",
"782 418 OFFCURVE",
"783 418 CURVE SMOOTH",
"790 418 OFFCURVE",
"796 415 OFFCURVE",
"799 408 CURVE",
"800 406 OFFCURVE",
"800 403 OFFCURVE",
"800 400 CURVE SMOOTH",
"800 393 OFFCURVE",
"797 388 OFFCURVE",
"790 385 CURVE",
"581 286 LINE",
"580 286 LINE",
"447 -27 LINE",
"444 -36 OFFCURVE",
"438 -40 OFFCURVE",
"429 -40 CURVE SMOOTH",
"203 -40 LINE SMOOTH",
"194 -40 OFFCURVE",
"188 -36 OFFCURVE",
"185 -28 CURVE",
"42 310 LINE",
"41 312 OFFCURVE",
"40 315 OFFCURVE",
"40 318 CURVE SMOOTH",
"40 325 OFFCURVE",
"45 338 OFFCURVE",
"60 338 CURVE SMOOTH",
"526 339 LINE"
);
}
);
width = 820;
}
);
unicode = 064A;
},
{
glyphname = "yeh-farsi";
lastChange = "2013-06-18 11:31:02 +0330";
layers = (
{
layerId = "3D323242-F336-407C-B164-DE86AA499667";
name = "Regular";
paths = (
{
closed = 1;
nodes = (
"528 296 OFFCURVE",
"523 296 OFFCURVE",
"519 298 CURVE",
"90 298 LINE",
"217 0 LINE",
"416 0 LINE",
"542 298 LINE",
"533 298 LINE"
);
},
{
closed = 1;
nodes = (
"669 476 LINE SMOOTH",
"672 479 OFFCURVE",
"676 481 OFFCURVE",
"681 481 CURVE SMOOTH",
"690 481 OFFCURVE",
"699 472 OFFCURVE",
"699 463 CURVE SMOOTH",
"699 458 OFFCURVE",
"697 454 OFFCURVE",
"693 451 CURVE",
"576 338 LINE",
"581 337 OFFCURVE",
"586 335 OFFCURVE",
"589 330 CURVE",
"589 329 OFFCURVE",
"589 329 OFFCURVE",
"590 329 CURVE",
"775 416 LINE",
"779 417 OFFCURVE",
"782 418 OFFCURVE",
"783 418 CURVE SMOOTH",
"790 418 OFFCURVE",
"796 415 OFFCURVE",
"799 408 CURVE",
"800 406 OFFCURVE",
"800 403 OFFCURVE",
"800 400 CURVE SMOOTH",
"800 393 OFFCURVE",
"797 388 OFFCURVE",
"790 385 CURVE",
"581 286 LINE",
"580 286 LINE",
"447 -27 LINE",
"444 -36 OFFCURVE",
"438 -40 OFFCURVE",
"429 -40 CURVE SMOOTH",
"203 -40 LINE SMOOTH",
"194 -40 OFFCURVE",
"188 -36 OFFCURVE",
"185 -28 CURVE",
"42 310 LINE",
"41 312 OFFCURVE",
"40 315 OFFCURVE",
"40 318 CURVE SMOOTH",
"40 325 OFFCURVE",
"45 338 OFFCURVE",
"60 338 CURVE SMOOTH",
"526 339 LINE"
);
}
);
width = 820;
}
);
unicode = 06CC;
},
{
glyphname = "yehHamzaabove-ar";
lastChange = "2013-06-18 11:31:03 +0330";
layers = (
{
layerId = "3D323242-F336-407C-B164-DE86AA499667";
name = "Regular";
paths = (
{
closed = 1;
nodes = (
"528 296 OFFCURVE",
"523 296 OFFCURVE",
"519 298 CURVE",
"90 298 LINE",
"217 0 LINE",
"416 0 LINE",
"542 298 LINE",
"533 298 LINE"
);
},
{
closed = 1;
nodes = (
"669 476 LINE SMOOTH",
"672 479 OFFCURVE",
"676 481 OFFCURVE",
"681 481 CURVE SMOOTH",
"690 481 OFFCURVE",
"699 472 OFFCURVE",
"699 463 CURVE SMOOTH",
"699 458 OFFCURVE",
"697 454 OFFCURVE",
"693 451 CURVE",
"576 338 LINE",
"581 337 OFFCURVE",
"586 335 OFFCURVE",
"589 330 CURVE",
"589 329 OFFCURVE",
"589 329 OFFCURVE",
"590 329 CURVE",
"775 416 LINE",
"779 417 OFFCURVE",
"782 418 OFFCURVE",
"783 418 CURVE SMOOTH",
"790 418 OFFCURVE",
"796 415 OFFCURVE",
"799 408 CURVE",
"800 406 OFFCURVE",
"800 403 OFFCURVE",
"800 400 CURVE SMOOTH",
"800 393 OFFCURVE",
"797 388 OFFCURVE",
"790 385 CURVE",
"581 286 LINE",
"580 286 LINE",
"447 -27 LINE",
"444 -36 OFFCURVE",
"438 -40 OFFCURVE",
"429 -40 CURVE SMOOTH",
"203 -40 LINE SMOOTH",
"194 -40 OFFCURVE",
"188 -36 OFFCURVE",
"185 -28 CURVE",
"42 310 LINE",
"41 312 OFFCURVE",
"40 315 OFFCURVE",
"40 318 CURVE SMOOTH",
"40 325 OFFCURVE",
"45 338 OFFCURVE",
"60 338 CURVE SMOOTH",
"526 339 LINE"
);
}
);
width = 820;
}
);
unicode = 0626;
},
{
glyphname = "zah-ar";
lastChange = "2013-06-18 11:27:26 +0330";
layers = (
{
layerId = "3D323242-F336-407C-B164-DE86AA499667";
name = "Regular";
paths = (
{
closed = 1;
nodes = (
"84 163 LINE",
"84 1 LINE",
"794 1 LINE",
"794 163 LINE"
);
},
{
closed = 1;
nodes = (
"816 207 LINE SMOOTH",
"830 207 OFFCURVE",
"838 199 OFFCURVE",
"838 185 CURVE SMOOTH",
"838 -21 LINE SMOOTH",
"838 -35 OFFCURVE",
"830 -43 OFFCURVE",
"816 -43 CURVE SMOOTH",
"62 -43 LINE SMOOTH",
"48 -43 OFFCURVE",
"40 -35 OFFCURVE",
"40 -21 CURVE SMOOTH",
"40 185 LINE SMOOTH",
"40 199 OFFCURVE",
"48 207 OFFCURVE",
"62 207 CURVE SMOOTH",
"290 207 LINE",
"291 208 OFFCURVE",
"291 208 OFFCURVE",
"291 208 CURVE",
"291 209 OFFCURVE",
"291 210 OFFCURVE",
"292 210 CURVE",
"600 664 LINE",
"593 675 OFFCURVE",
"590 687 OFFCURVE",
"590 700 CURVE SMOOTH",
"590 749 OFFCURVE",
"634 818 OFFCURVE",
"691 818 CURVE SMOOTH",
"717 818 OFFCURVE",
"752 797 OFFCURVE",
"752 759 CURVE SMOOTH",
"752 715 OFFCURVE",
"698 637 OFFCURVE",
"646 635 CURVE",
"646 634 LINE",
"357 207 LINE"
);
}
);
width = 878;
}
);
unicode = 0638;
},
{
glyphname = "zain-ar";
lastChange = "2013-06-18 11:24:02 +0330";
layers = (
{
layerId = "3D323242-F336-407C-B164-DE86AA499667";
name = "Regular";
paths = (
{
closed = 1;
nodes = (
"376 689 LINE",
"377 559 OFFCURVE",
"379 460 OFFCURVE",
"380 392 CURVE SMOOTH",
"380 390 LINE SMOOTH",
"380 373 OFFCURVE",
"379 351 OFFCURVE",
"379 325 CURVE SMOOTH",
"377 299 OFFCURVE",
"377 278 OFFCURVE",
"377 264 CURVE SMOOTH",
"377 249 OFFCURVE",
"377 237 OFFCURVE",
"377 229 CURVE SMOOTH",
"381 166 OFFCURVE",
"384 139 OFFCURVE",
"402 91 CURVE",
"411 69 OFFCURVE",
"425 55 OFFCURVE",
"445 51 CURVE",
"448 50 OFFCURVE",
"451 50 OFFCURVE",
"458 50 CURVE SMOOTH",
"469 50 OFFCURVE",
"485 52 OFFCURVE",
"507 55 CURVE SMOOTH",
"528 58 OFFCURVE",
"544 59 OFFCURVE",
"556 59 CURVE SMOOTH",
"557 59 OFFCURVE",
"559 59 OFFCURVE",
"561 59 CURVE",
"563 59 OFFCURVE",
"566 59 OFFCURVE",
"567 59 CURVE SMOOTH",
"589 59 OFFCURVE",
"611 49 OFFCURVE",
"634 29 CURVE",
"647 18 OFFCURVE",
"654 7 OFFCURVE",
"661 -11 CURVE",
"665 -19 OFFCURVE",
"668 -27 OFFCURVE",
"671 -31 CURVE",
"588 5 OFFCURVE",
"578 9 OFFCURVE",
"526 15 CURVE SMOOTH",
"520 16 OFFCURVE",
"510 17 OFFCURVE",
"499 17 CURVE SMOOTH",
"494 17 OFFCURVE",
"488 17 OFFCURVE",
"481 17 CURVE",
"473 16 OFFCURVE",
"468 16 OFFCURVE",
"463 16 CURVE SMOOTH",
"451 16 OFFCURVE",
"437 18 OFFCURVE",
"424 19 CURVE SMOOTH",
"410 22 OFFCURVE",
"401 28 OFFCURVE",
"388 37 CURVE",
"381 40 OFFCURVE",
"375 45 OFFCURVE",
"370 46 CURVE",
"366 41 OFFCURVE",
"350 20 OFFCURVE",
"340 12 CURVE SMOOTH",
"291 -32 OFFCURVE",
"263 -49 OFFCURVE",
"225 -55 CURVE SMOOTH",
"215 -57 OFFCURVE",
"206 -58 OFFCURVE",
"200 -58 CURVE SMOOTH",
"182 -58 OFFCURVE",
"158 -54 OFFCURVE",
"137 -45 CURVE SMOOTH",
"125 -41 OFFCURVE",
"116 -38 OFFCURVE",
"109 -37 CURVE SMOOTH",
"102 -37 OFFCURVE",
"97 -36 OFFCURVE",
"96 -36 CURVE SMOOTH",
"84 -36 OFFCURVE",
"73 -41 OFFCURVE",
"65 -45 CURVE",
"61 -47 OFFCURVE",
"57 -51 OFFCURVE",
"52 -54 CURVE",
"47 -56 OFFCURVE",
"43 -59 OFFCURVE",
"40 -61 CURVE",
"41 -60 OFFCURVE",
"41 -56 OFFCURVE",
"41 -53 CURVE SMOOTH",
"41 -51 OFFCURVE",
"41 -46 OFFCURVE",
"41 -42 CURVE",
"40 -37 OFFCURVE",
"40 -35 OFFCURVE",
"40 -32 CURVE SMOOTH",
"40 -29 OFFCURVE",
"41 -27 OFFCURVE",
"45 -25 CURVE",
"47 -24 OFFCURVE",
"49 -22 OFFCURVE",
"51 -21 CURVE SMOOTH",
"62 -9 OFFCURVE",
"82 -1 OFFCURVE",
"109 -1 CURVE SMOOTH",
"117 -1 LINE SMOOTH",
"127 -1 OFFCURVE",
"141 -3 OFFCURVE",
"156 -6 CURVE SMOOTH",
"188 -12 OFFCURVE",
"214 -13 OFFCURVE",
"222 -13 CURVE SMOOTH",
"241 -13 OFFCURVE",
"263 -10 OFFCURVE",
"272 3 CURVE SMOOTH",
"284 20 OFFCURVE",
"327 50 OFFCURVE",
"333 248 CURVE",
"333 265 OFFCURVE",
"331 289 OFFCURVE",
"329 319 CURVE SMOOTH",
"326 350 OFFCURVE",
"324 375 OFFCURVE",
"324 394 CURVE SMOOTH",
"324 426 LINE SMOOTH",
"324 500 OFFCURVE",
"328 646 OFFCURVE",
"329 689 CURVE"
);
}
);
width = 711;
}
);
unicode = 0632;
},
{
glyphname = "zero";
lastChange = "2013-06-18 11:34:02 +0330";
layers = (
{
layerId = "3D323242-F336-407C-B164-DE86AA499667";
name = "Regular";
paths = (
{
closed = 1;
nodes = (
"408 39 OFFCURVE",
"367 -1 OFFCURVE",
"306 -1 CURVE SMOOTH",
"246 -1 OFFCURVE",
"206 38 OFFCURVE",
"206 98 CURVE SMOOTH",
"206 161 OFFCURVE",
"246 204 OFFCURVE",
"309 204 CURVE SMOOTH",
"370 204 OFFCURVE",
"408 161 OFFCURVE",
"408 99 CURVE SMOOTH"
);
},
{
closed = 1;
nodes = (
"159 -33 LINE",
"486 204 LINE",
"464 233 LINE",
"136 -4 LINE"
);
}
);
width = 622;
}
);
unicode = 0030;
},
{
glyphname = "one";
lastChange = "2013-06-18 11:32:50 +0330";
layers = (
{
layerId = "3D323242-F336-407C-B164-DE86AA499667";
name = "Regular";
paths = (
{
closed = 1;
nodes = (
"338 47 OFFCURVE",
"291 1 OFFCURVE",
"236 1 CURVE SMOOTH",
"181 1 OFFCURVE",
"133 46 OFFCURVE",
"133 100 CURVE SMOOTH",
"133 158 OFFCURVE",
"181 206 OFFCURVE",
"239 206 CURVE SMOOTH",
"293 206 OFFCURVE",
"338 158 OFFCURVE",
"338 101 CURVE SMOOTH"
);
}
);
width = 471;
}
);
unicode = 0031;
},
{
glyphname = "two";
lastChange = "2013-06-18 11:32:59 +0330";
layers = (
{
layerId = "3D323242-F336-407C-B164-DE86AA499667";
name = "Regular";
paths = (
{
closed = 1;
nodes = (
"326 43 OFFCURVE",
"279 -2 OFFCURVE",
"224 -2 CURVE SMOOTH",
"169 -2 OFFCURVE",
"121 42 OFFCURVE",
"121 97 CURVE SMOOTH",
"121 154 OFFCURVE",
"169 201 OFFCURVE",
"227 201 CURVE SMOOTH",
"281 201 OFFCURVE",
"326 154 OFFCURVE",
"326 98 CURVE SMOOTH"
);
},
{
closed = 1;
nodes = (
"326 291 OFFCURVE",
"279 246 OFFCURVE",
"224 246 CURVE SMOOTH",
"169 246 OFFCURVE",
"121 290 OFFCURVE",
"121 345 CURVE SMOOTH",
"121 401 OFFCURVE",
"169 449 OFFCURVE",
"227 449 CURVE SMOOTH",
"281 449 OFFCURVE",
"326 401 OFFCURVE",
"326 346 CURVE SMOOTH"
);
}
);
width = 447;
}
);
unicode = 0032;
},
{
glyphname = "three";
lastChange = "2013-06-18 11:33:06 +0330";
layers = (
{
layerId = "3D323242-F336-407C-B164-DE86AA499667";
name = "Regular";
paths = (
{
closed = 1;
nodes = (
"360 46 OFFCURVE",
"313 0 OFFCURVE",
"259 0 CURVE SMOOTH",
"204 0 OFFCURVE",
"156 45 OFFCURVE",
"156 100 CURVE SMOOTH",
"156 157 OFFCURVE",
"204 204 OFFCURVE",
"261 204 CURVE SMOOTH",
"316 204 OFFCURVE",
"360 157 OFFCURVE",
"360 100 CURVE SMOOTH"
);
},
{
closed = 1;
nodes = (
"691 46 OFFCURVE",
"644 0 OFFCURVE",
"589 0 CURVE SMOOTH",
"535 0 OFFCURVE",
"487 45 OFFCURVE",
"487 100 CURVE SMOOTH",
"487 157 OFFCURVE",
"535 204 OFFCURVE",
"592 204 CURVE SMOOTH",
"647 204 OFFCURVE",
"691 157 OFFCURVE",
"691 100 CURVE SMOOTH"
);
},
{
closed = 1;
nodes = (
"534 290 OFFCURVE",
"487 245 OFFCURVE",
"432 245 CURVE SMOOTH",
"378 245 OFFCURVE",
"329 290 OFFCURVE",
"329 344 CURVE SMOOTH",
"329 401 OFFCURVE",
"378 449 OFFCURVE",
"435 449 CURVE SMOOTH",
"489 449 OFFCURVE",
"534 401 OFFCURVE",
"534 345 CURVE SMOOTH"
);
}
);
width = 847;
}
);
unicode = 0033;
},
{
glyphname = "four";
lastChange = "2013-06-18 11:33:14 +0330";
layers = (
{
layerId = "3D323242-F336-407C-B164-DE86AA499667";
name = "Regular";
paths = (
{
closed = 1;
nodes = (
"337 229 OFFCURVE",
"294 188 OFFCURVE",
"245 188 CURVE SMOOTH",
"195 188 OFFCURVE",
"151 229 OFFCURVE",
"151 278 CURVE SMOOTH",
"151 330 OFFCURVE",
"195 374 OFFCURVE",
"247 374 CURVE SMOOTH",
"297 374 OFFCURVE",
"337 330 OFFCURVE",
"337 279 CURVE SMOOTH"
);
},
{
closed = 1;
nodes = (
"638 229 OFFCURVE",
"595 188 OFFCURVE",
"545 188 CURVE SMOOTH",
"496 188 OFFCURVE",
"452 229 OFFCURVE",
"452 278 CURVE SMOOTH",
"452 330 OFFCURVE",
"496 374 OFFCURVE",
"548 374 CURVE SMOOTH",
"598 374 OFFCURVE",
"638 330 OFFCURVE",
"638 279 CURVE SMOOTH"
);
},
{
closed = 1;
nodes = (
"495 415 OFFCURVE",
"452 374 OFFCURVE",
"402 374 CURVE SMOOTH",
"353 374 OFFCURVE",
"309 414 OFFCURVE",
"309 464 CURVE SMOOTH",
"309 515 OFFCURVE",
"353 559 OFFCURVE",
"405 559 CURVE SMOOTH",
"454 559 OFFCURVE",
"495 515 OFFCURVE",
"495 465 CURVE SMOOTH"
);
},
{
closed = 1;
nodes = (
"495 40 OFFCURVE",
"452 -1 OFFCURVE",
"402 -1 CURVE SMOOTH",
"353 -1 OFFCURVE",
"309 39 OFFCURVE",
"309 89 CURVE SMOOTH",
"309 141 OFFCURVE",
"353 184 OFFCURVE",
"405 184 CURVE SMOOTH",
"454 184 OFFCURVE",
"495 141 OFFCURVE",
"495 90 CURVE SMOOTH"
);
}
);
width = 789;
}
);
unicode = 0034;
},
{
glyphname = "five";
lastChange = "2013-06-18 11:33:20 +0330";
layers = (
{
layerId = "3D323242-F336-407C-B164-DE86AA499667";
name = "Regular";
paths = (
{
closed = 1;
nodes = (
"402 -1 OFFCURVE",
"398 4 OFFCURVE",
"398 15 CURVE",
"415 323 LINE",
"368 329 OFFCURVE",
"339 335 OFFCURVE",
"315 347 CURVE SMOOTH",
"281 362 OFFCURVE",
"253 381 OFFCURVE",
"216 413 CURVE SMOOTH",
"216 413 OFFCURVE",
"202 424 OFFCURVE",
"170 449 CURVE",
"165 451 OFFCURVE",
"163 455 OFFCURVE",
"163 460 CURVE SMOOTH",
"163 464 OFFCURVE",
"164 467 OFFCURVE",
"164 469 CURVE",
"167 475 OFFCURVE",
"171 478 OFFCURVE",
"178 478 CURVE SMOOTH",
"179 478 OFFCURVE",
"180 478 OFFCURVE",
"180 477 CURVE",
"181 477 OFFCURVE",
"181 477 OFFCURVE",
"182 477 CURVE",
"206 469 OFFCURVE",
"216 466 OFFCURVE",
"231 460 CURVE SMOOTH",
"255 452 OFFCURVE",
"270 449 OFFCURVE",
"281 444 CURVE SMOOTH",
"323 433 OFFCURVE",
"345 428 OFFCURVE",
"360 426 CURVE SMOOTH",
"367 423 OFFCURVE",
"384 420 OFFCURVE",
"421 419 CURVE",
"437 733 LINE SMOOTH",
"438 744 OFFCURVE",
"447 749 OFFCURVE",
"468 749 CURVE SMOOTH",
"487 749 OFFCURVE",
"494 744 OFFCURVE",
"495 733 CURVE SMOOTH",
"511 420 LINE",
"578 426 OFFCURVE",
"627 437 OFFCURVE",
"686 457 CURVE SMOOTH",
"702 462 OFFCURVE",
"721 469 OFFCURVE",
"750 478 CURVE",
"751 478 OFFCURVE",
"751 478 OFFCURVE",
"753 478 CURVE SMOOTH",
"761 478 OFFCURVE",
"764 475 OFFCURVE",
"768 469 CURVE",
"768 467 OFFCURVE",
"769 464 OFFCURVE",
"769 462 CURVE SMOOTH",
"769 457 OFFCURVE",
"767 453 OFFCURVE",
"761 451 CURVE",
"754 445 OFFCURVE",
"745 438 OFFCURVE",
"716 415 CURVE SMOOTH",
"678 383 OFFCURVE",
"650 364 OFFCURVE",
"616 349 CURVE SMOOTH",
"593 337 OFFCURVE",
"564 330 OFFCURVE",
"517 324 CURVE",
"534 15 LINE",
"534 4 OFFCURVE",
"530 -1 OFFCURVE",
"520 -1 CURVE SMOOTH",
"520 -1 OFFCURVE",
"520 -1 OFFCURVE",
"519 -1 CURVE SMOOTH",
"412 -1 LINE SMOOTH"
);
}
);
width = 932;
}
);
unicode = 0035;
},
{
glyphname = "six";
lastChange = "2013-06-18 11:33:27 +0330";
layers = (
{
layerId = "3D323242-F336-407C-B164-DE86AA499667";
name = "Regular";
paths = (
{
closed = 1;
nodes = (
"693 515 OFFCURVE",
"654 477 OFFCURVE",
"609 477 CURVE SMOOTH",
"563 477 OFFCURVE",
"524 514 OFFCURVE",
"524 559 CURVE SMOOTH",
"524 606 OFFCURVE",
"563 646 OFFCURVE",
"611 646 CURVE SMOOTH",
"656 646 OFFCURVE",
"693 606 OFFCURVE",
"693 559 CURVE SMOOTH"
);
},
{
closed = 1;
nodes = (
"402 -1 OFFCURVE",
"398 4 OFFCURVE",
"398 15 CURVE",
"415 323 LINE",
"368 329 OFFCURVE",
"339 335 OFFCURVE",
"315 347 CURVE SMOOTH",
"281 362 OFFCURVE",
"253 381 OFFCURVE",
"216 413 CURVE SMOOTH",
"216 413 OFFCURVE",
"202 424 OFFCURVE",
"170 449 CURVE",
"165 451 OFFCURVE",
"163 455 OFFCURVE",
"163 460 CURVE SMOOTH",
"163 464 OFFCURVE",
"164 467 OFFCURVE",
"164 469 CURVE",
"167 475 OFFCURVE",
"171 478 OFFCURVE",
"178 478 CURVE SMOOTH",
"179 478 OFFCURVE",
"180 478 OFFCURVE",
"180 477 CURVE",
"181 477 OFFCURVE",
"181 477 OFFCURVE",
"182 477 CURVE",
"206 469 OFFCURVE",
"216 466 OFFCURVE",
"231 460 CURVE SMOOTH",
"255 452 OFFCURVE",
"270 449 OFFCURVE",
"281 444 CURVE SMOOTH",
"323 433 OFFCURVE",
"345 428 OFFCURVE",
"360 426 CURVE SMOOTH",
"367 423 OFFCURVE",
"384 420 OFFCURVE",
"421 419 CURVE",
"437 733 LINE SMOOTH",
"438 744 OFFCURVE",
"447 749 OFFCURVE",
"468 749 CURVE SMOOTH",
"487 749 OFFCURVE",
"494 744 OFFCURVE",
"495 733 CURVE SMOOTH",
"511 420 LINE",
"578 426 OFFCURVE",
"627 437 OFFCURVE",
"686 457 CURVE SMOOTH",
"702 462 OFFCURVE",
"721 469 OFFCURVE",
"750 478 CURVE",
"751 478 OFFCURVE",
"751 478 OFFCURVE",
"753 478 CURVE SMOOTH",
"761 478 OFFCURVE",
"764 475 OFFCURVE",
"768 469 CURVE",
"768 467 OFFCURVE",
"769 464 OFFCURVE",
"769 462 CURVE SMOOTH",
"769 457 OFFCURVE",
"767 453 OFFCURVE",
"761 451 CURVE",
"754 445 OFFCURVE",
"745 438 OFFCURVE",
"716 415 CURVE SMOOTH",
"678 383 OFFCURVE",
"650 364 OFFCURVE",
"616 349 CURVE SMOOTH",
"593 337 OFFCURVE",
"564 330 OFFCURVE",
"517 324 CURVE",
"534 15 LINE",
"534 4 OFFCURVE",
"530 -1 OFFCURVE",
"520 -1 CURVE SMOOTH",
"520 -1 OFFCURVE",
"520 -1 OFFCURVE",
"519 -1 CURVE SMOOTH",
"412 -1 LINE SMOOTH"
);
}
);
width = 932;
}
);
unicode = 0036;
},
{
glyphname = "seven";
lastChange = "2013-06-18 11:33:33 +0330";
layers = (
{
layerId = "3D323242-F336-407C-B164-DE86AA499667";
name = "Regular";
paths = (
{
closed = 1;
nodes = (
"693 514 OFFCURVE",
"654 476 OFFCURVE",
"609 476 CURVE SMOOTH",
"563 476 OFFCURVE",
"524 513 OFFCURVE",
"524 558 CURVE SMOOTH",
"524 605 OFFCURVE",
"563 645 OFFCURVE",
"611 645 CURVE SMOOTH",
"656 645 OFFCURVE",
"693 605 OFFCURVE",
"693 558 CURVE SMOOTH"
);
},
{
closed = 1;
nodes = (
"410 514 OFFCURVE",
"371 477 OFFCURVE",
"325 477 CURVE SMOOTH",
"280 477 OFFCURVE",
"241 514 OFFCURVE",
"241 558 CURVE SMOOTH",
"241 606 OFFCURVE",
"280 646 OFFCURVE",
"328 646 CURVE SMOOTH",
"372 646 OFFCURVE",
"410 606 OFFCURVE",
"410 559 CURVE SMOOTH"
);
},
{
closed = 1;
nodes = (
"402 -2 OFFCURVE",
"398 3 OFFCURVE",
"398 14 CURVE",
"415 322 LINE",
"368 328 OFFCURVE",
"339 334 OFFCURVE",
"315 346 CURVE SMOOTH",
"281 361 OFFCURVE",
"253 380 OFFCURVE",
"216 412 CURVE SMOOTH",
"216 412 OFFCURVE",
"202 423 OFFCURVE",
"170 448 CURVE",
"165 450 OFFCURVE",
"163 454 OFFCURVE",
"163 459 CURVE SMOOTH",
"163 463 OFFCURVE",
"164 466 OFFCURVE",
"164 468 CURVE",
"167 474 OFFCURVE",
"171 477 OFFCURVE",
"178 477 CURVE SMOOTH",
"179 477 OFFCURVE",
"180 477 OFFCURVE",
"180 476 CURVE",
"181 476 OFFCURVE",
"181 476 OFFCURVE",
"182 476 CURVE",
"206 468 OFFCURVE",
"216 465 OFFCURVE",
"231 459 CURVE SMOOTH",
"255 451 OFFCURVE",
"270 448 OFFCURVE",
"281 443 CURVE SMOOTH",
"323 432 OFFCURVE",
"345 427 OFFCURVE",
"360 425 CURVE SMOOTH",
"367 422 OFFCURVE",
"384 419 OFFCURVE",
"421 418 CURVE",
"437 732 LINE SMOOTH",
"438 743 OFFCURVE",
"447 748 OFFCURVE",
"468 748 CURVE SMOOTH",
"487 748 OFFCURVE",
"494 743 OFFCURVE",
"495 732 CURVE SMOOTH",
"511 419 LINE",
"578 425 OFFCURVE",
"627 436 OFFCURVE",
"686 456 CURVE SMOOTH",
"702 461 OFFCURVE",
"721 468 OFFCURVE",
"750 477 CURVE",
"751 477 OFFCURVE",
"751 477 OFFCURVE",
"753 477 CURVE SMOOTH",
"761 477 OFFCURVE",
"764 474 OFFCURVE",
"768 468 CURVE",
"768 466 OFFCURVE",
"769 463 OFFCURVE",
"769 461 CURVE SMOOTH",
"769 456 OFFCURVE",
"767 452 OFFCURVE",
"761 450 CURVE",
"754 444 OFFCURVE",
"745 437 OFFCURVE",
"716 414 CURVE SMOOTH",
"678 382 OFFCURVE",
"650 363 OFFCURVE",
"616 348 CURVE SMOOTH",
"593 336 OFFCURVE",
"564 329 OFFCURVE",
"517 323 CURVE",
"534 14 LINE",
"534 3 OFFCURVE",
"530 -2 OFFCURVE",
"520 -2 CURVE SMOOTH",
"520 -2 OFFCURVE",
"520 -2 OFFCURVE",
"519 -2 CURVE SMOOTH",
"412 -2 LINE SMOOTH"
);
}
);
width = 932;
}
);
unicode = 0037;
},
{
glyphname = "eight";
lastChange = "2013-06-18 11:33:44 +0330";
layers = (
{
layerId = "3D323242-F336-407C-B164-DE86AA499667";
name = "Regular";
paths = (
{
closed = 1;
nodes = (
"693 516 OFFCURVE",
"654 478 OFFCURVE",
"609 478 CURVE SMOOTH",
"563 478 OFFCURVE",
"524 515 OFFCURVE",
"524 560 CURVE SMOOTH",
"524 607 OFFCURVE",
"563 647 OFFCURVE",
"611 647 CURVE SMOOTH",
"656 647 OFFCURVE",
"693 607 OFFCURVE",
"693 560 CURVE SMOOTH"
);
},
{
closed = 1;
nodes = (
"708 189 OFFCURVE",
"670 150 OFFCURVE",
"624 150 CURVE SMOOTH",
"579 150 OFFCURVE",
"539 188 OFFCURVE",
"539 232 CURVE SMOOTH",
"539 280 OFFCURVE",
"579 320 OFFCURVE",
"626 320 CURVE SMOOTH",
"671 320 OFFCURVE",
"708 280 OFFCURVE",
"708 233 CURVE SMOOTH"
);
},
{
closed = 1;
nodes = (
"410 516 OFFCURVE",
"371 479 OFFCURVE",
"325 479 CURVE SMOOTH",
"280 479 OFFCURVE",
"241 516 OFFCURVE",
"241 560 CURVE SMOOTH",
"241 608 OFFCURVE",
"280 648 OFFCURVE",
"328 648 CURVE SMOOTH",
"372 648 OFFCURVE",
"410 608 OFFCURVE",
"410 561 CURVE SMOOTH"
);
},
{
closed = 1;
nodes = (
"402 0 OFFCURVE",
"398 5 OFFCURVE",
"398 16 CURVE",
"415 324 LINE",
"368 330 OFFCURVE",
"339 336 OFFCURVE",
"315 348 CURVE SMOOTH",
"281 363 OFFCURVE",
"253 382 OFFCURVE",
"216 414 CURVE SMOOTH",
"216 414 OFFCURVE",
"202 425 OFFCURVE",
"170 450 CURVE",
"165 452 OFFCURVE",
"163 456 OFFCURVE",
"163 461 CURVE SMOOTH",
"163 465 OFFCURVE",
"164 468 OFFCURVE",
"164 470 CURVE",
"167 476 OFFCURVE",
"171 479 OFFCURVE",
"178 479 CURVE SMOOTH",
"179 479 OFFCURVE",
"180 479 OFFCURVE",
"180 478 CURVE",
"181 478 OFFCURVE",
"181 478 OFFCURVE",
"182 478 CURVE",
"206 470 OFFCURVE",
"216 467 OFFCURVE",
"231 461 CURVE SMOOTH",
"255 453 OFFCURVE",
"270 450 OFFCURVE",
"281 445 CURVE SMOOTH",
"323 434 OFFCURVE",
"345 429 OFFCURVE",
"360 427 CURVE SMOOTH",
"367 424 OFFCURVE",
"384 421 OFFCURVE",
"421 420 CURVE",
"437 734 LINE SMOOTH",
"438 745 OFFCURVE",
"447 750 OFFCURVE",
"468 750 CURVE SMOOTH",
"487 750 OFFCURVE",
"494 745 OFFCURVE",
"495 734 CURVE SMOOTH",
"511 421 LINE",
"578 427 OFFCURVE",
"627 438 OFFCURVE",
"686 458 CURVE SMOOTH",
"702 463 OFFCURVE",
"721 470 OFFCURVE",
"750 479 CURVE",
"751 479 OFFCURVE",
"751 479 OFFCURVE",
"753 479 CURVE SMOOTH",
"761 479 OFFCURVE",
"764 476 OFFCURVE",
"768 470 CURVE",
"768 468 OFFCURVE",
"769 465 OFFCURVE",
"769 463 CURVE SMOOTH",
"769 458 OFFCURVE",
"767 454 OFFCURVE",
"761 452 CURVE",
"754 446 OFFCURVE",
"745 439 OFFCURVE",
"716 416 CURVE SMOOTH",
"678 384 OFFCURVE",
"650 365 OFFCURVE",
"616 350 CURVE SMOOTH",
"593 338 OFFCURVE",
"564 331 OFFCURVE",
"517 325 CURVE",
"534 16 LINE",
"534 5 OFFCURVE",
"530 0 OFFCURVE",
"520 0 CURVE SMOOTH",
"520 0 OFFCURVE",
"520 0 OFFCURVE",
"519 0 CURVE SMOOTH",
"412 0 LINE SMOOTH"
);
}
);
width = 932;
}
);
unicode = 0038;
},
{
glyphname = "nine";
lastChange = "2013-06-18 11:33:50 +0330";
layers = (
{
layerId = "3D323242-F336-407C-B164-DE86AA499667";
name = "Regular";
paths = (
{
closed = 1;
nodes = (
"693 516 OFFCURVE",
"654 478 OFFCURVE",
"609 478 CURVE SMOOTH",
"563 478 OFFCURVE",
"524 515 OFFCURVE",
"524 560 CURVE SMOOTH",
"524 607 OFFCURVE",
"563 647 OFFCURVE",
"611 647 CURVE SMOOTH",
"656 647 OFFCURVE",
"693 607 OFFCURVE",
"693 560 CURVE SMOOTH"
);
},
{
closed = 1;
nodes = (
"708 189 OFFCURVE",
"670 150 OFFCURVE",
"624 150 CURVE SMOOTH",
"579 150 OFFCURVE",
"539 188 OFFCURVE",
"539 232 CURVE SMOOTH",
"539 280 OFFCURVE",
"579 320 OFFCURVE",
"626 320 CURVE SMOOTH",
"671 320 OFFCURVE",
"708 280 OFFCURVE",
"708 233 CURVE SMOOTH"
);
},
{
closed = 1;
nodes = (
"398 189 OFFCURVE",
"360 151 OFFCURVE",
"314 151 CURVE SMOOTH",
"269 151 OFFCURVE",
"229 189 OFFCURVE",
"229 233 CURVE SMOOTH",
"229 280 OFFCURVE",
"269 320 OFFCURVE",
"316 320 CURVE SMOOTH",
"361 320 OFFCURVE",
"398 280 OFFCURVE",
"398 234 CURVE SMOOTH"
);
},
{
closed = 1;
nodes = (
"410 516 OFFCURVE",
"371 479 OFFCURVE",
"325 479 CURVE SMOOTH",
"280 479 OFFCURVE",
"241 516 OFFCURVE",
"241 560 CURVE SMOOTH",
"241 608 OFFCURVE",
"280 648 OFFCURVE",
"328 648 CURVE SMOOTH",
"372 648 OFFCURVE",
"410 608 OFFCURVE",
"410 561 CURVE SMOOTH"
);
},
{
closed = 1;
nodes = (
"402 0 OFFCURVE",
"398 5 OFFCURVE",
"398 16 CURVE",
"415 324 LINE",
"368 330 OFFCURVE",
"339 336 OFFCURVE",
"315 348 CURVE SMOOTH",
"281 363 OFFCURVE",
"253 382 OFFCURVE",
"216 414 CURVE SMOOTH",
"216 414 OFFCURVE",
"202 425 OFFCURVE",
"170 450 CURVE",
"165 452 OFFCURVE",
"163 456 OFFCURVE",
"163 461 CURVE SMOOTH",
"163 465 OFFCURVE",
"164 468 OFFCURVE",
"164 470 CURVE",
"167 476 OFFCURVE",
"171 479 OFFCURVE",
"178 479 CURVE SMOOTH",
"179 479 OFFCURVE",
"180 479 OFFCURVE",
"180 478 CURVE",
"181 478 OFFCURVE",
"181 478 OFFCURVE",
"182 478 CURVE",
"206 470 OFFCURVE",
"216 467 OFFCURVE",
"231 461 CURVE SMOOTH",
"255 453 OFFCURVE",
"270 450 OFFCURVE",
"281 445 CURVE SMOOTH",
"323 434 OFFCURVE",
"345 429 OFFCURVE",
"360 427 CURVE SMOOTH",
"367 424 OFFCURVE",
"384 421 OFFCURVE",
"421 420 CURVE",
"437 734 LINE SMOOTH",
"438 745 OFFCURVE",
"447 750 OFFCURVE",
"468 750 CURVE SMOOTH",
"487 750 OFFCURVE",
"494 745 OFFCURVE",
"495 734 CURVE SMOOTH",
"511 421 LINE",
"578 427 OFFCURVE",
"627 438 OFFCURVE",
"686 458 CURVE SMOOTH",
"702 463 OFFCURVE",
"721 470 OFFCURVE",
"750 479 CURVE",
"751 479 OFFCURVE",
"751 479 OFFCURVE",
"753 479 CURVE SMOOTH",
"761 479 OFFCURVE",
"764 476 OFFCURVE",
"768 470 CURVE",
"768 468 OFFCURVE",
"769 465 OFFCURVE",
"769 463 CURVE SMOOTH",
"769 458 OFFCURVE",
"767 454 OFFCURVE",
"761 452 CURVE",
"754 446 OFFCURVE",
"745 439 OFFCURVE",
"716 416 CURVE SMOOTH",
"678 384 OFFCURVE",
"650 365 OFFCURVE",
"616 350 CURVE SMOOTH",
"593 338 OFFCURVE",
"564 331 OFFCURVE",
"517 325 CURVE",
"534 16 LINE",
"534 5 OFFCURVE",
"530 0 OFFCURVE",
"520 0 CURVE SMOOTH",
"520 0 OFFCURVE",
"520 0 OFFCURVE",
"519 0 CURVE SMOOTH",
"412 0 LINE SMOOTH"
);
}
);
width = 932;
}
);
unicode = 0039;
},
{
glyphname = "zero-persian";
lastChange = "2013-06-18 11:34:19 +0330";
layers = (
{
layerId = "3D323242-F336-407C-B164-DE86AA499667";
name = "Regular";
paths = (
{
closed = 1;
nodes = (
"408 39 OFFCURVE",
"367 -1 OFFCURVE",
"306 -1 CURVE SMOOTH",
"246 -1 OFFCURVE",
"206 38 OFFCURVE",
"206 98 CURVE SMOOTH",
"206 161 OFFCURVE",
"246 204 OFFCURVE",
"309 204 CURVE SMOOTH",
"370 204 OFFCURVE",
"408 161 OFFCURVE",
"408 99 CURVE SMOOTH"
);
},
{
closed = 1;
nodes = (
"159 -33 LINE",
"486 204 LINE",
"464 233 LINE",
"136 -4 LINE"
);
}
);
width = 622;
}
);
unicode = 06F0;
},
{
glyphname = "one-persian";
lastChange = "2013-06-18 11:34:23 +0330";
layers = (
{
layerId = "3D323242-F336-407C-B164-DE86AA499667";
name = "Regular";
paths = (
{
closed = 1;
nodes = (
"338 47 OFFCURVE",
"291 1 OFFCURVE",
"236 1 CURVE SMOOTH",
"181 1 OFFCURVE",
"133 46 OFFCURVE",
"133 100 CURVE SMOOTH",
"133 158 OFFCURVE",
"181 206 OFFCURVE",
"239 206 CURVE SMOOTH",
"293 206 OFFCURVE",
"338 158 OFFCURVE",
"338 101 CURVE SMOOTH"
);
}
);
width = 471;
}
);
unicode = 06F1;
},
{
glyphname = "two-persian";
lastChange = "2013-06-18 11:34:39 +0330";
layers = (
{
layerId = "3D323242-F336-407C-B164-DE86AA499667";
name = "Regular";
paths = (
{
closed = 1;
nodes = (
"326 43 OFFCURVE",
"279 -2 OFFCURVE",
"224 -2 CURVE SMOOTH",
"169 -2 OFFCURVE",
"121 42 OFFCURVE",
"121 97 CURVE SMOOTH",
"121 154 OFFCURVE",
"169 201 OFFCURVE",
"227 201 CURVE SMOOTH",
"281 201 OFFCURVE",
"326 154 OFFCURVE",
"326 98 CURVE SMOOTH"
);
},
{
closed = 1;
nodes = (
"326 291 OFFCURVE",
"279 246 OFFCURVE",
"224 246 CURVE SMOOTH",
"169 246 OFFCURVE",
"121 290 OFFCURVE",
"121 345 CURVE SMOOTH",
"121 401 OFFCURVE",
"169 449 OFFCURVE",
"227 449 CURVE SMOOTH",
"281 449 OFFCURVE",
"326 401 OFFCURVE",
"326 346 CURVE SMOOTH"
);
}
);
width = 447;
}
);
unicode = 06F2;
},
{
glyphname = "three-persian";
lastChange = "2013-06-18 11:34:27 +0330";
layers = (
{
layerId = "3D323242-F336-407C-B164-DE86AA499667";
name = "Regular";
paths = (
{
closed = 1;
nodes = (
"360 46 OFFCURVE",
"313 0 OFFCURVE",
"259 0 CURVE SMOOTH",
"204 0 OFFCURVE",
"156 45 OFFCURVE",
"156 100 CURVE SMOOTH",
"156 157 OFFCURVE",
"204 204 OFFCURVE",
"261 204 CURVE SMOOTH",
"316 204 OFFCURVE",
"360 157 OFFCURVE",
"360 100 CURVE SMOOTH"
);
},
{
closed = 1;
nodes = (
"691 46 OFFCURVE",
"644 0 OFFCURVE",
"589 0 CURVE SMOOTH",
"535 0 OFFCURVE",
"487 45 OFFCURVE",
"487 100 CURVE SMOOTH",
"487 157 OFFCURVE",
"535 204 OFFCURVE",
"592 204 CURVE SMOOTH",
"647 204 OFFCURVE",
"691 157 OFFCURVE",
"691 100 CURVE SMOOTH"
);
},
{
closed = 1;
nodes = (
"534 290 OFFCURVE",
"487 245 OFFCURVE",
"432 245 CURVE SMOOTH",
"378 245 OFFCURVE",
"329 290 OFFCURVE",
"329 344 CURVE SMOOTH",
"329 401 OFFCURVE",
"378 449 OFFCURVE",
"435 449 CURVE SMOOTH",
"489 449 OFFCURVE",
"534 401 OFFCURVE",
"534 345 CURVE SMOOTH"
);
}
);
width = 847;
}
);
unicode = 06F3;
},
{
glyphname = "four-persian";
lastChange = "2013-06-18 11:34:31 +0330";
layers = (
{
layerId = "3D323242-F336-407C-B164-DE86AA499667";
name = "Regular";
paths = (
{
closed = 1;
nodes = (
"337 229 OFFCURVE",
"294 188 OFFCURVE",
"245 188 CURVE SMOOTH",
"195 188 OFFCURVE",
"151 229 OFFCURVE",
"151 278 CURVE SMOOTH",
"151 330 OFFCURVE",
"195 374 OFFCURVE",
"247 374 CURVE SMOOTH",
"297 374 OFFCURVE",
"337 330 OFFCURVE",
"337 279 CURVE SMOOTH"
);
},
{
closed = 1;
nodes = (
"638 229 OFFCURVE",
"595 188 OFFCURVE",
"545 188 CURVE SMOOTH",
"496 188 OFFCURVE",
"452 229 OFFCURVE",
"452 278 CURVE SMOOTH",
"452 330 OFFCURVE",
"496 374 OFFCURVE",
"548 374 CURVE SMOOTH",
"598 374 OFFCURVE",
"638 330 OFFCURVE",
"638 279 CURVE SMOOTH"
);
},
{
closed = 1;
nodes = (
"495 415 OFFCURVE",
"452 374 OFFCURVE",
"402 374 CURVE SMOOTH",
"353 374 OFFCURVE",
"309 414 OFFCURVE",
"309 464 CURVE SMOOTH",
"309 515 OFFCURVE",
"353 559 OFFCURVE",
"405 559 CURVE SMOOTH",
"454 559 OFFCURVE",
"495 515 OFFCURVE",
"495 465 CURVE SMOOTH"
);
},
{
closed = 1;
nodes = (
"495 40 OFFCURVE",
"452 -1 OFFCURVE",
"402 -1 CURVE SMOOTH",
"353 -1 OFFCURVE",
"309 39 OFFCURVE",
"309 89 CURVE SMOOTH",
"309 141 OFFCURVE",
"353 184 OFFCURVE",
"405 184 CURVE SMOOTH",
"454 184 OFFCURVE",
"495 141 OFFCURVE",
"495 90 CURVE SMOOTH"
);
}
);
width = 789;
}
);
unicode = 06F4;
},
{
glyphname = "five-persian";
lastChange = "2013-06-18 11:34:34 +0330";
layers = (
{
layerId = "3D323242-F336-407C-B164-DE86AA499667";
name = "Regular";
paths = (
{
closed = 1;
nodes = (
"402 -1 OFFCURVE",
"398 4 OFFCURVE",
"398 15 CURVE",
"415 323 LINE",
"368 329 OFFCURVE",
"339 335 OFFCURVE",
"315 347 CURVE SMOOTH",
"281 362 OFFCURVE",
"253 381 OFFCURVE",
"216 413 CURVE SMOOTH",
"216 413 OFFCURVE",
"202 424 OFFCURVE",
"170 449 CURVE",
"165 451 OFFCURVE",
"163 455 OFFCURVE",
"163 460 CURVE SMOOTH",
"163 464 OFFCURVE",
"164 467 OFFCURVE",
"164 469 CURVE",
"167 475 OFFCURVE",
"171 478 OFFCURVE",
"178 478 CURVE SMOOTH",
"179 478 OFFCURVE",
"180 478 OFFCURVE",
"180 477 CURVE",
"181 477 OFFCURVE",
"181 477 OFFCURVE",
"182 477 CURVE",
"206 469 OFFCURVE",
"216 466 OFFCURVE",
"231 460 CURVE SMOOTH",
"255 452 OFFCURVE",
"270 449 OFFCURVE",
"281 444 CURVE SMOOTH",
"323 433 OFFCURVE",
"345 428 OFFCURVE",
"360 426 CURVE SMOOTH",
"367 423 OFFCURVE",
"384 420 OFFCURVE",
"421 419 CURVE",
"437 733 LINE SMOOTH",
"438 744 OFFCURVE",
"447 749 OFFCURVE",
"468 749 CURVE SMOOTH",
"487 749 OFFCURVE",
"494 744 OFFCURVE",
"495 733 CURVE SMOOTH",
"511 420 LINE",
"578 426 OFFCURVE",
"627 437 OFFCURVE",
"686 457 CURVE SMOOTH",
"702 462 OFFCURVE",
"721 469 OFFCURVE",
"750 478 CURVE",
"751 478 OFFCURVE",
"751 478 OFFCURVE",
"753 478 CURVE SMOOTH",
"761 478 OFFCURVE",
"764 475 OFFCURVE",
"768 469 CURVE",
"768 467 OFFCURVE",
"769 464 OFFCURVE",
"769 462 CURVE SMOOTH",
"769 457 OFFCURVE",
"767 453 OFFCURVE",
"761 451 CURVE",
"754 445 OFFCURVE",
"745 438 OFFCURVE",
"716 415 CURVE SMOOTH",
"678 383 OFFCURVE",
"650 364 OFFCURVE",
"616 349 CURVE SMOOTH",
"593 337 OFFCURVE",
"564 330 OFFCURVE",
"517 324 CURVE",
"534 15 LINE",
"534 4 OFFCURVE",
"530 -1 OFFCURVE",
"520 -1 CURVE SMOOTH",
"520 -1 OFFCURVE",
"520 -1 OFFCURVE",
"519 -1 CURVE SMOOTH",
"412 -1 LINE SMOOTH"
);
}
);
width = 932;
}
);
unicode = 06F5;
},
{
glyphname = "six-persian";
lastChange = "2013-06-18 11:34:37 +0330";
layers = (
{
layerId = "3D323242-F336-407C-B164-DE86AA499667";
name = "Regular";
paths = (
{
closed = 1;
nodes = (
"693 515 OFFCURVE",
"654 477 OFFCURVE",
"609 477 CURVE SMOOTH",
"563 477 OFFCURVE",
"524 514 OFFCURVE",
"524 559 CURVE SMOOTH",
"524 606 OFFCURVE",
"563 646 OFFCURVE",
"611 646 CURVE SMOOTH",
"656 646 OFFCURVE",
"693 606 OFFCURVE",
"693 559 CURVE SMOOTH"
);
},
{
closed = 1;
nodes = (
"402 -1 OFFCURVE",
"398 4 OFFCURVE",
"398 15 CURVE",
"415 323 LINE",
"368 329 OFFCURVE",
"339 335 OFFCURVE",
"315 347 CURVE SMOOTH",
"281 362 OFFCURVE",
"253 381 OFFCURVE",
"216 413 CURVE SMOOTH",
"216 413 OFFCURVE",
"202 424 OFFCURVE",
"170 449 CURVE",
"165 451 OFFCURVE",
"163 455 OFFCURVE",
"163 460 CURVE SMOOTH",
"163 464 OFFCURVE",
"164 467 OFFCURVE",
"164 469 CURVE",
"167 475 OFFCURVE",
"171 478 OFFCURVE",
"178 478 CURVE SMOOTH",
"179 478 OFFCURVE",
"180 478 OFFCURVE",
"180 477 CURVE",
"181 477 OFFCURVE",
"181 477 OFFCURVE",
"182 477 CURVE",
"206 469 OFFCURVE",
"216 466 OFFCURVE",
"231 460 CURVE SMOOTH",
"255 452 OFFCURVE",
"270 449 OFFCURVE",
"281 444 CURVE SMOOTH",
"323 433 OFFCURVE",
"345 428 OFFCURVE",
"360 426 CURVE SMOOTH",
"367 423 OFFCURVE",
"384 420 OFFCURVE",
"421 419 CURVE",
"437 733 LINE SMOOTH",
"438 744 OFFCURVE",
"447 749 OFFCURVE",
"468 749 CURVE SMOOTH",
"487 749 OFFCURVE",
"494 744 OFFCURVE",
"495 733 CURVE SMOOTH",
"511 420 LINE",
"578 426 OFFCURVE",
"627 437 OFFCURVE",
"686 457 CURVE SMOOTH",
"702 462 OFFCURVE",
"721 469 OFFCURVE",
"750 478 CURVE",
"751 478 OFFCURVE",
"751 478 OFFCURVE",
"753 478 CURVE SMOOTH",
"761 478 OFFCURVE",
"764 475 OFFCURVE",
"768 469 CURVE",
"768 467 OFFCURVE",
"769 464 OFFCURVE",
"769 462 CURVE SMOOTH",
"769 457 OFFCURVE",
"767 453 OFFCURVE",
"761 451 CURVE",
"754 445 OFFCURVE",
"745 438 OFFCURVE",
"716 415 CURVE SMOOTH",
"678 383 OFFCURVE",
"650 364 OFFCURVE",
"616 349 CURVE SMOOTH",
"593 337 OFFCURVE",
"564 330 OFFCURVE",
"517 324 CURVE",
"534 15 LINE",
"534 4 OFFCURVE",
"530 -1 OFFCURVE",
"520 -1 CURVE SMOOTH",
"520 -1 OFFCURVE",
"520 -1 OFFCURVE",
"519 -1 CURVE SMOOTH",
"412 -1 LINE SMOOTH"
);
}
);
width = 932;
}
);
unicode = 06F6;
},
{
glyphname = "seven-persian";
lastChange = "2013-06-18 11:34:46 +0330";
layers = (
{
layerId = "3D323242-F336-407C-B164-DE86AA499667";
name = "Regular";
paths = (
{
closed = 1;
nodes = (
"693 514 OFFCURVE",
"654 476 OFFCURVE",
"609 476 CURVE SMOOTH",
"563 476 OFFCURVE",
"524 513 OFFCURVE",
"524 558 CURVE SMOOTH",
"524 605 OFFCURVE",
"563 645 OFFCURVE",
"611 645 CURVE SMOOTH",
"656 645 OFFCURVE",
"693 605 OFFCURVE",
"693 558 CURVE SMOOTH"
);
},
{
closed = 1;
nodes = (
"410 514 OFFCURVE",
"371 477 OFFCURVE",
"325 477 CURVE SMOOTH",
"280 477 OFFCURVE",
"241 514 OFFCURVE",
"241 558 CURVE SMOOTH",
"241 606 OFFCURVE",
"280 646 OFFCURVE",
"328 646 CURVE SMOOTH",
"372 646 OFFCURVE",
"410 606 OFFCURVE",
"410 559 CURVE SMOOTH"
);
},
{
closed = 1;
nodes = (
"402 -2 OFFCURVE",
"398 3 OFFCURVE",
"398 14 CURVE",
"415 322 LINE",
"368 328 OFFCURVE",
"339 334 OFFCURVE",
"315 346 CURVE SMOOTH",
"281 361 OFFCURVE",
"253 380 OFFCURVE",
"216 412 CURVE SMOOTH",
"216 412 OFFCURVE",
"202 423 OFFCURVE",
"170 448 CURVE",
"165 450 OFFCURVE",
"163 454 OFFCURVE",
"163 459 CURVE SMOOTH",
"163 463 OFFCURVE",
"164 466 OFFCURVE",
"164 468 CURVE",
"167 474 OFFCURVE",
"171 477 OFFCURVE",
"178 477 CURVE SMOOTH",
"179 477 OFFCURVE",
"180 477 OFFCURVE",
"180 476 CURVE",
"181 476 OFFCURVE",
"181 476 OFFCURVE",
"182 476 CURVE",
"206 468 OFFCURVE",
"216 465 OFFCURVE",
"231 459 CURVE SMOOTH",
"255 451 OFFCURVE",
"270 448 OFFCURVE",
"281 443 CURVE SMOOTH",
"323 432 OFFCURVE",
"345 427 OFFCURVE",
"360 425 CURVE SMOOTH",
"367 422 OFFCURVE",
"384 419 OFFCURVE",
"421 418 CURVE",
"437 732 LINE SMOOTH",
"438 743 OFFCURVE",
"447 748 OFFCURVE",
"468 748 CURVE SMOOTH",
"487 748 OFFCURVE",
"494 743 OFFCURVE",
"495 732 CURVE SMOOTH",
"511 419 LINE",
"578 425 OFFCURVE",
"627 436 OFFCURVE",
"686 456 CURVE SMOOTH",
"702 461 OFFCURVE",
"721 468 OFFCURVE",
"750 477 CURVE",
"751 477 OFFCURVE",
"751 477 OFFCURVE",
"753 477 CURVE SMOOTH",
"761 477 OFFCURVE",
"764 474 OFFCURVE",
"768 468 CURVE",
"768 466 OFFCURVE",
"769 463 OFFCURVE",
"769 461 CURVE SMOOTH",
"769 456 OFFCURVE",
"767 452 OFFCURVE",
"761 450 CURVE",
"754 444 OFFCURVE",
"745 437 OFFCURVE",
"716 414 CURVE SMOOTH",
"678 382 OFFCURVE",
"650 363 OFFCURVE",
"616 348 CURVE SMOOTH",
"593 336 OFFCURVE",
"564 329 OFFCURVE",
"517 323 CURVE",
"534 14 LINE",
"534 3 OFFCURVE",
"530 -2 OFFCURVE",
"520 -2 CURVE SMOOTH",
"520 -2 OFFCURVE",
"520 -2 OFFCURVE",
"519 -2 CURVE SMOOTH",
"412 -2 LINE SMOOTH"
);
}
);
width = 932;
}
);
unicode = 06F7;
},
{
glyphname = "eight-persian";
lastChange = "2013-06-18 11:34:42 +0330";
layers = (
{
layerId = "3D323242-F336-407C-B164-DE86AA499667";
name = "Regular";
paths = (
{
closed = 1;
nodes = (
"693 516 OFFCURVE",
"654 478 OFFCURVE",
"609 478 CURVE SMOOTH",
"563 478 OFFCURVE",
"524 515 OFFCURVE",
"524 560 CURVE SMOOTH",
"524 607 OFFCURVE",
"563 647 OFFCURVE",
"611 647 CURVE SMOOTH",
"656 647 OFFCURVE",
"693 607 OFFCURVE",
"693 560 CURVE SMOOTH"
);
},
{
closed = 1;
nodes = (
"708 189 OFFCURVE",
"670 150 OFFCURVE",
"624 150 CURVE SMOOTH",
"579 150 OFFCURVE",
"539 188 OFFCURVE",
"539 232 CURVE SMOOTH",
"539 280 OFFCURVE",
"579 320 OFFCURVE",
"626 320 CURVE SMOOTH",
"671 320 OFFCURVE",
"708 280 OFFCURVE",
"708 233 CURVE SMOOTH"
);
},
{
closed = 1;
nodes = (
"410 516 OFFCURVE",
"371 479 OFFCURVE",
"325 479 CURVE SMOOTH",
"280 479 OFFCURVE",
"241 516 OFFCURVE",
"241 560 CURVE SMOOTH",
"241 608 OFFCURVE",
"280 648 OFFCURVE",
"328 648 CURVE SMOOTH",
"372 648 OFFCURVE",
"410 608 OFFCURVE",
"410 561 CURVE SMOOTH"
);
},
{
closed = 1;
nodes = (
"402 0 OFFCURVE",
"398 5 OFFCURVE",
"398 16 CURVE",
"415 324 LINE",
"368 330 OFFCURVE",
"339 336 OFFCURVE",
"315 348 CURVE SMOOTH",
"281 363 OFFCURVE",
"253 382 OFFCURVE",
"216 414 CURVE SMOOTH",
"216 414 OFFCURVE",
"202 425 OFFCURVE",
"170 450 CURVE",
"165 452 OFFCURVE",
"163 456 OFFCURVE",
"163 461 CURVE SMOOTH",
"163 465 OFFCURVE",
"164 468 OFFCURVE",
"164 470 CURVE",
"167 476 OFFCURVE",
"171 479 OFFCURVE",
"178 479 CURVE SMOOTH",
"179 479 OFFCURVE",
"180 479 OFFCURVE",
"180 478 CURVE",
"181 478 OFFCURVE",
"181 478 OFFCURVE",
"182 478 CURVE",
"206 470 OFFCURVE",
"216 467 OFFCURVE",
"231 461 CURVE SMOOTH",
"255 453 OFFCURVE",
"270 450 OFFCURVE",
"281 445 CURVE SMOOTH",
"323 434 OFFCURVE",
"345 429 OFFCURVE",
"360 427 CURVE SMOOTH",
"367 424 OFFCURVE",
"384 421 OFFCURVE",
"421 420 CURVE",
"437 734 LINE SMOOTH",
"438 745 OFFCURVE",
"447 750 OFFCURVE",
"468 750 CURVE SMOOTH",
"487 750 OFFCURVE",
"494 745 OFFCURVE",
"495 734 CURVE SMOOTH",
"511 421 LINE",
"578 427 OFFCURVE",
"627 438 OFFCURVE",
"686 458 CURVE SMOOTH",
"702 463 OFFCURVE",
"721 470 OFFCURVE",
"750 479 CURVE",
"751 479 OFFCURVE",
"751 479 OFFCURVE",
"753 479 CURVE SMOOTH",
"761 479 OFFCURVE",
"764 476 OFFCURVE",
"768 470 CURVE",
"768 468 OFFCURVE",
"769 465 OFFCURVE",
"769 463 CURVE SMOOTH",
"769 458 OFFCURVE",
"767 454 OFFCURVE",
"761 452 CURVE",
"754 446 OFFCURVE",
"745 439 OFFCURVE",
"716 416 CURVE SMOOTH",
"678 384 OFFCURVE",
"650 365 OFFCURVE",
"616 350 CURVE SMOOTH",
"593 338 OFFCURVE",
"564 331 OFFCURVE",
"517 325 CURVE",
"534 16 LINE",
"534 5 OFFCURVE",
"530 0 OFFCURVE",
"520 0 CURVE SMOOTH",
"520 0 OFFCURVE",
"520 0 OFFCURVE",
"519 0 CURVE SMOOTH",
"412 0 LINE SMOOTH"
);
}
);
width = 932;
}
);
unicode = 06F8;
},
{
glyphname = "nine-persian";
lastChange = "2013-06-18 11:34:49 +0330";
layers = (
{
layerId = "3D323242-F336-407C-B164-DE86AA499667";
name = "Regular";
paths = (
{
closed = 1;
nodes = (
"693 516 OFFCURVE",
"654 478 OFFCURVE",
"609 478 CURVE SMOOTH",
"563 478 OFFCURVE",
"524 515 OFFCURVE",
"524 560 CURVE SMOOTH",
"524 607 OFFCURVE",
"563 647 OFFCURVE",
"611 647 CURVE SMOOTH",
"656 647 OFFCURVE",
"693 607 OFFCURVE",
"693 560 CURVE SMOOTH"
);
},
{
closed = 1;
nodes = (
"708 189 OFFCURVE",
"670 150 OFFCURVE",
"624 150 CURVE SMOOTH",
"579 150 OFFCURVE",
"539 188 OFFCURVE",
"539 232 CURVE SMOOTH",
"539 280 OFFCURVE",
"579 320 OFFCURVE",
"626 320 CURVE SMOOTH",
"671 320 OFFCURVE",
"708 280 OFFCURVE",
"708 233 CURVE SMOOTH"
);
},
{
closed = 1;
nodes = (
"398 189 OFFCURVE",
"360 151 OFFCURVE",
"314 151 CURVE SMOOTH",
"269 151 OFFCURVE",
"229 189 OFFCURVE",
"229 233 CURVE SMOOTH",
"229 280 OFFCURVE",
"269 320 OFFCURVE",
"316 320 CURVE SMOOTH",
"361 320 OFFCURVE",
"398 280 OFFCURVE",
"398 234 CURVE SMOOTH"
);
},
{
closed = 1;
nodes = (
"410 516 OFFCURVE",
"371 479 OFFCURVE",
"325 479 CURVE SMOOTH",
"280 479 OFFCURVE",
"241 516 OFFCURVE",
"241 560 CURVE SMOOTH",
"241 608 OFFCURVE",
"280 648 OFFCURVE",
"328 648 CURVE SMOOTH",
"372 648 OFFCURVE",
"410 608 OFFCURVE",
"410 561 CURVE SMOOTH"
);
},
{
closed = 1;
nodes = (
"402 0 OFFCURVE",
"398 5 OFFCURVE",
"398 16 CURVE",
"415 324 LINE",
"368 330 OFFCURVE",
"339 336 OFFCURVE",
"315 348 CURVE SMOOTH",
"281 363 OFFCURVE",
"253 382 OFFCURVE",
"216 414 CURVE SMOOTH",
"216 414 OFFCURVE",
"202 425 OFFCURVE",
"170 450 CURVE",
"165 452 OFFCURVE",
"163 456 OFFCURVE",
"163 461 CURVE SMOOTH",
"163 465 OFFCURVE",
"164 468 OFFCURVE",
"164 470 CURVE",
"167 476 OFFCURVE",
"171 479 OFFCURVE",
"178 479 CURVE SMOOTH",
"179 479 OFFCURVE",
"180 479 OFFCURVE",
"180 478 CURVE",
"181 478 OFFCURVE",
"181 478 OFFCURVE",
"182 478 CURVE",
"206 470 OFFCURVE",
"216 467 OFFCURVE",
"231 461 CURVE SMOOTH",
"255 453 OFFCURVE",
"270 450 OFFCURVE",
"281 445 CURVE SMOOTH",
"323 434 OFFCURVE",
"345 429 OFFCURVE",
"360 427 CURVE SMOOTH",
"367 424 OFFCURVE",
"384 421 OFFCURVE",
"421 420 CURVE",
"437 734 LINE SMOOTH",
"438 745 OFFCURVE",
"447 750 OFFCURVE",
"468 750 CURVE SMOOTH",
"487 750 OFFCURVE",
"494 745 OFFCURVE",
"495 734 CURVE SMOOTH",
"511 421 LINE",
"578 427 OFFCURVE",
"627 438 OFFCURVE",
"686 458 CURVE SMOOTH",
"702 463 OFFCURVE",
"721 470 OFFCURVE",
"750 479 CURVE",
"751 479 OFFCURVE",
"751 479 OFFCURVE",
"753 479 CURVE SMOOTH",
"761 479 OFFCURVE",
"764 476 OFFCURVE",
"768 470 CURVE",
"768 468 OFFCURVE",
"769 465 OFFCURVE",
"769 463 CURVE SMOOTH",
"769 458 OFFCURVE",
"767 454 OFFCURVE",
"761 452 CURVE",
"754 446 OFFCURVE",
"745 439 OFFCURVE",
"716 416 CURVE SMOOTH",
"678 384 OFFCURVE",
"650 365 OFFCURVE",
"616 350 CURVE SMOOTH",
"593 338 OFFCURVE",
"564 331 OFFCURVE",
"517 325 CURVE",
"534 16 LINE",
"534 5 OFFCURVE",
"530 0 OFFCURVE",
"520 0 CURVE SMOOTH",
"520 0 OFFCURVE",
"520 0 OFFCURVE",
"519 0 CURVE SMOOTH",
"412 0 LINE SMOOTH"
);
}
);
width = 932;
}
);
unicode = 06F9;
},
{
glyphname = "comma";
lastChange = "2013-06-18 12:45:15 +0330";
layers = (
{
layerId = "3D323242-F336-407C-B164-DE86AA499667";
name = "Regular";
paths = (
{
closed = 1;
nodes = (
"345 144 OFFCURVE",
"281 81 OFFCURVE",
"204 81 CURVE SMOOTH",
"124 81 OFFCURVE",
"59 148 OFFCURVE",
"59 228 CURVE SMOOTH",
"59 302 OFFCURVE",
"125 359 OFFCURVE",
"202 359 CURVE SMOOTH",
"232 359 OFFCURVE",
"259 352 OFFCURVE",
"280 335 CURVE",
"280 337 OFFCURVE",
"282 339 OFFCURVE",
"286 341 CURVE SMOOTH",
"290 342 OFFCURVE",
"292 343 OFFCURVE",
"293 343 CURVE",
"393 426 LINE",
"398 431 OFFCURVE",
"404 433 OFFCURVE",
"408 433 CURVE SMOOTH",
"423 433 OFFCURVE",
"431 422 OFFCURVE",
"431 409 CURVE SMOOTH",
"431 402 OFFCURVE",
"430 395 OFFCURVE",
"423 390 CURVE SMOOTH",
"323 306 LINE",
"321 304 OFFCURVE",
"319 303 OFFCURVE",
"316 302 CURVE",
"335 278 OFFCURVE",
"345 252 OFFCURVE",
"345 222 CURVE SMOOTH"
);
},
{
closed = 1;
nodes = (
"261 321 OFFCURVE",
"233 331 OFFCURVE",
"202 331 CURVE SMOOTH",
"139 331 OFFCURVE",
"85 286 OFFCURVE",
"85 228 CURVE SMOOTH",
"85 162 OFFCURVE",
"139 109 OFFCURVE",
"204 109 CURVE SMOOTH",
"266 109 OFFCURVE",
"317 160 OFFCURVE",
"317 222 CURVE SMOOTH",
"317 252 OFFCURVE",
"307 278 OFFCURVE",
"284 299 CURVE SMOOTH"
);
}
);
width = 490;
}
);
unicode = 002C;
},
{
glyphname = "hyphen";
lastChange = "2013-06-18 12:40:28 +0330";
layers = (
{
layerId = "3D323242-F336-407C-B164-DE86AA499667";
name = "Regular";
paths = (
{
closed = 1;
nodes = (
"847 159 OFFCURVE",
"847 157 OFFCURVE",
"835 152 CURVE",
"834 152 LINE",
"830 150 OFFCURVE",
"827 149 OFFCURVE",
"824 149 CURVE SMOOTH",
"758 151 OFFCURVE",
"700 152 OFFCURVE",
"647 152 CURVE SMOOTH",
"565 155 OFFCURVE",
"570 154 OFFCURVE",
"531 161 CURVE SMOOTH",
"511 165 OFFCURVE",
"496 167 OFFCURVE",
"485 167 CURVE SMOOTH",
"481 167 OFFCURVE",
"477 167 OFFCURVE",
"476 166 CURVE",
"461 165 OFFCURVE",
"439 161 OFFCURVE",
"412 152 CURVE SMOOTH",
"384 144 OFFCURVE",
"363 140 OFFCURVE",
"347 140 CURVE SMOOTH",
"337 140 OFFCURVE",
"326 141 OFFCURVE",
"315 143 CURVE SMOOTH",
"289 149 OFFCURVE",
"262 165 OFFCURVE",
"235 189 CURVE SMOOTH",
"207 214 OFFCURVE",
"184 229 OFFCURVE",
"167 237 CURVE",
"164 238 OFFCURVE",
"160 239 OFFCURVE",
"157 239 CURVE SMOOTH",
"156 239 OFFCURVE",
"149 237 OFFCURVE",
"138 234 CURVE SMOOTH",
"128 232 OFFCURVE",
"119 230 OFFCURVE",
"112 230 CURVE SMOOTH",
"108 230 LINE",
"102 230 LINE",
"88 230 LINE SMOOTH",
"83 230 OFFCURVE",
"77 231 OFFCURVE",
"74 232 CURVE SMOOTH",
"64 234 OFFCURVE",
"55 239 OFFCURVE",
"46 248 CURVE",
"36 260 OFFCURVE",
"30 273 OFFCURVE",
"30 287 CURVE SMOOTH",
"30 288 LINE SMOOTH",
"30 314 OFFCURVE",
"53 339 OFFCURVE",
"90 349 CURVE",
"77 356 OFFCURVE",
"65 368 OFFCURVE",
"51 384 CURVE",
"47 391 OFFCURVE",
"44 398 OFFCURVE",
"44 403 CURVE SMOOTH",
"44 408 OFFCURVE",
"46 412 OFFCURVE",
"47 416 CURVE",
"57 423 OFFCURVE",
"66 427 OFFCURVE",
"75 427 CURVE SMOOTH",
"85 427 OFFCURVE",
"98 424 OFFCURVE",
"107 404 CURVE SMOOTH",
"117 383 OFFCURVE",
"127 376 OFFCURVE",
"137 376 CURVE SMOOTH",
"141 376 OFFCURVE",
"145 377 OFFCURVE",
"147 379 CURVE",
"153 383 OFFCURVE",
"157 390 OFFCURVE",
"164 401 CURVE",
"168 412 OFFCURVE",
"174 419 OFFCURVE",
"182 421 CURVE",
"185 423 OFFCURVE",
"188 424 OFFCURVE",
"191 424 CURVE SMOOTH",
"200 424 OFFCURVE",
"209 419 OFFCURVE",
"217 409 CURVE",
"219 405 OFFCURVE",
"219 401 OFFCURVE",
"219 398 CURVE SMOOTH",
"219 390 OFFCURVE",
"217 376 OFFCURVE",
"193 356 CURVE SMOOTH",
"183 347 OFFCURVE",
"177 342 OFFCURVE",
"176 341 CURVE",
"180 339 OFFCURVE",
"190 333 OFFCURVE",
"193 330 CURVE",
"207 323 OFFCURVE",
"226 307 OFFCURVE",
"251 285 CURVE SMOOTH",
"276 262 OFFCURVE",
"299 249 OFFCURVE",
"320 243 CURVE",
"327 242 OFFCURVE",
"334 241 OFFCURVE",
"344 241 CURVE SMOOTH",
"356 241 OFFCURVE",
"376 245 OFFCURVE",
"404 254 CURVE SMOOTH",
"431 262 OFFCURVE",
"455 267 OFFCURVE",
"473 267 CURVE SMOOTH",
"479 267 LINE SMOOTH",
"507 266 OFFCURVE",
"528 259 OFFCURVE",
"556 246 CURVE",
"569 240 OFFCURVE",
"580 235 OFFCURVE",
"587 233 CURVE",
"591 232 OFFCURVE",
"600 228 OFFCURVE",
"615 221 CURVE",
"629 214 OFFCURVE",
"641 209 OFFCURVE",
"650 209 CURVE",
"676 206 OFFCURVE",
"704 204 OFFCURVE",
"734 204 CURVE SMOOTH",
"739 204 OFFCURVE",
"748 204 OFFCURVE",
"761 205 CURVE",
"774 205 OFFCURVE",
"783 205 OFFCURVE",
"790 205 CURVE SMOOTH",
"805 205 OFFCURVE",
"817 205 OFFCURVE",
"825 204 CURVE",
"829 204 OFFCURVE",
"834 202 OFFCURVE",
"837 198 CURVE",
"838 198 LINE",
"839 197 OFFCURVE",
"839 197 OFFCURVE",
"840 196 CURVE",
"848 189 OFFCURVE",
"853 183 OFFCURVE",
"853 174 CURVE"
);
},
{
closed = 1;
nodes = (
"628 187 OFFCURVE",
"610 192 OFFCURVE",
"577 201 CURVE",
"567 205 OFFCURVE",
"556 209 OFFCURVE",
"543 216 CURVE SMOOTH",
"517 228 OFFCURVE",
"501 233 OFFCURVE",
"477 234 CURVE SMOOTH",
"473 234 LINE SMOOTH",
"456 234 OFFCURVE",
"435 229 OFFCURVE",
"408 221 CURVE SMOOTH",
"381 212 OFFCURVE",
"359 208 OFFCURVE",
"344 208 CURVE SMOOTH",
"333 208 OFFCURVE",
"322 209 OFFCURVE",
"313 211 CURVE",
"287 217 OFFCURVE",
"261 232 OFFCURVE",
"233 257 CURVE SMOOTH",
"177 307 OFFCURVE",
"151 319 OFFCURVE",
"135 319 CURVE SMOOTH",
"133 319 LINE",
"96 317 OFFCURVE",
"83 316 OFFCURVE",
"68 299 CURVE",
"67 299 OFFCURVE",
"66 298 OFFCURVE",
"65 295 CURVE",
"65 294 OFFCURVE",
"65 294 OFFCURVE",
"65 293 CURVE",
"64 292 OFFCURVE",
"64 289 OFFCURVE",
"64 288 CURVE SMOOTH",
"64 281 OFFCURVE",
"66 275 OFFCURVE",
"71 269 CURVE SMOOTH",
"77 262 OFFCURVE",
"81 263 OFFCURVE",
"88 263 CURVE SMOOTH",
"102 263 LINE",
"110 263 LINE",
"112 263 LINE SMOOTH",
"117 263 OFFCURVE",
"124 265 OFFCURVE",
"134 268 CURVE SMOOTH",
"143 270 OFFCURVE",
"151 271 OFFCURVE",
"157 271 CURVE SMOOTH",
"165 271 OFFCURVE",
"173 270 OFFCURVE",
"180 268 CURVE",
"197 260 OFFCURVE",
"214 250 OFFCURVE",
"229 236 CURVE SMOOTH",
"262 208 OFFCURVE",
"288 183 OFFCURVE",
"322 176 CURVE",
"330 173 OFFCURVE",
"338 172 OFFCURVE",
"347 172 CURVE SMOOTH",
"361 172 OFFCURVE",
"381 177 OFFCURVE",
"407 185 CURVE SMOOTH",
"432 193 OFFCURVE",
"456 198 OFFCURVE",
"474 199 CURVE",
"475 199 OFFCURVE",
"477 199 OFFCURVE",
"480 199 CURVE",
"483 199 OFFCURVE",
"484 199 OFFCURVE",
"485 199 CURVE SMOOTH",
"499 199 OFFCURVE",
"517 198 OFFCURVE",
"537 195 CURVE SMOOTH",
"576 188 OFFCURVE",
"597 186 OFFCURVE",
"629 186 CURVE"
);
}
);
width = 883;
}
);
unicode = 002D;
},
{
glyphname = "comma-ar";
lastChange = "2013-06-18 12:45:18 +0330";
layers = (
{
layerId = "3D323242-F336-407C-B164-DE86AA499667";
name = "Regular";
paths = (
{
closed = 1;
nodes = (
"345 144 OFFCURVE",
"281 81 OFFCURVE",
"204 81 CURVE SMOOTH",
"124 81 OFFCURVE",
"59 148 OFFCURVE",
"59 228 CURVE SMOOTH",
"59 302 OFFCURVE",
"125 359 OFFCURVE",
"202 359 CURVE SMOOTH",
"232 359 OFFCURVE",
"259 352 OFFCURVE",
"280 335 CURVE",
"280 337 OFFCURVE",
"282 339 OFFCURVE",
"286 341 CURVE SMOOTH",
"290 342 OFFCURVE",
"292 343 OFFCURVE",
"293 343 CURVE",
"393 426 LINE",
"398 431 OFFCURVE",
"404 433 OFFCURVE",
"408 433 CURVE SMOOTH",
"423 433 OFFCURVE",
"431 422 OFFCURVE",
"431 409 CURVE SMOOTH",
"431 402 OFFCURVE",
"430 395 OFFCURVE",
"423 390 CURVE SMOOTH",
"323 306 LINE",
"321 304 OFFCURVE",
"319 303 OFFCURVE",
"316 302 CURVE",
"335 278 OFFCURVE",
"345 252 OFFCURVE",
"345 222 CURVE SMOOTH"
);
},
{
closed = 1;
nodes = (
"261 321 OFFCURVE",
"233 331 OFFCURVE",
"202 331 CURVE SMOOTH",
"139 331 OFFCURVE",
"85 286 OFFCURVE",
"85 228 CURVE SMOOTH",
"85 162 OFFCURVE",
"139 109 OFFCURVE",
"204 109 CURVE SMOOTH",
"266 109 OFFCURVE",
"317 160 OFFCURVE",
"317 222 CURVE SMOOTH",
"317 252 OFFCURVE",
"307 278 OFFCURVE",
"284 299 CURVE SMOOTH"
);
}
);
width = 490;
}
);
unicode = 060C;
},
